<?xml version="1.0" encoding="UTF-8"?><svg id="_图层_2" xmlns="http://www.w3.org/2000/svg" viewBox="0 0 560.47 847.24"><defs><style>.cls-1{fill:#373635;stroke-width:0px;}</style></defs><g id="_图层_1-2"><path class="cls-1" d="m103.63,421.68c1.26.37,2.31.69,3.35.99,2.6.75,5.19,1.58,7.81,2.18.76.17,1.76-.14,2.41-.56,1.32-.87,2.44-2.01,3.71-2.96,1.25-.94,2.58-1.78,3.89-2.64.61-.41,1.43-.64,1.85-1.19,2.59-3.39,6.34-3.14,10.16-2.32,1.84.4,3.63,1.28,5.41,2.06,2.19.97,2.77,1.68,2.52,3.87-.92,8.05-.06,16.21.46,24.35.18,2.78.24,2.52,3.03,3.46,5.18,1.75,10.17.7,15.25.92,4.64.2,9.27-.05,13.93,1.2.64.17,1.37.23,1.98.1,2.74-.6,5.47.15,8.25.44,3.51.36,7.03-.12,10.54-.25.88-.03,1.78-.28,2.63-.08,4.12.96,7.9-.07,11.76-.66,1.17-.18,2.38-.18,3.57-.26,1.51-.1,3.02-.19,4.52-.31.65-.05,1.3-.34,1.94-.24,4.23.66,8.06-.58,12.01-1.25.54-.09,1.06-.34,1.59-.31,5.69.26,10.99-1.42,16.57-1.69.44-.02.97.04,1.28-.18,4.07-2.92,9.37-1.95,13.95-3.23,2.68-.75,5.45-1.56,7.76-2.98,2.67-1.64,5.87-1.33,8.65-2.42,1.13-.44,1.84.63,2.04,1.79.44,2.57-1.12,3.89-2.84,5.01-1.96,1.27-4.05,2.34-6.02,3.58-.98.61-2.05,1.25-2.71,2.17-1.81,2.52-4.42,3.83-7.07,5.25-3.65,1.95-7.04,4.34-10.62,6.42-3.94,2.28-7.73,4.8-12.23,6.15-1.58.48-2.88,1.75-4.24,2.74-4.09,2.98-8.76,4.67-13.95,5.28-.96.11-2.01.24-2.77.73-3.19,2.04-6.92,2.81-10.59,3.75-1.04.27-2.04.67-3.09.92-1.56.36-3.14.68-4.73.94-1.18.19-2.5.04-3.58.42-3.73,1.33-7.83,1.57-11.5,3.23-2.76,1.25-6.06,1.5-9.4,1.02-1.62-.23-3.32-.13-4.87.19-2.38.48-4.69.61-7.23.14-1.91-.35-3.98-.03-5.83.42-1.96.47-3.83.43-5.89.19-3.67-.43-7.35-.46-11.03-.61-1.31-.06-2.01.64-2.13,1.9-.03.32-.1.66-.04.98,1.09,5.24-.27,10.21-.11,15.34.03,1.09.29,2.2.49,3.3.73,3.98,1.3,7.93.59,11.84-.27,1.47-.12,3.05-.19,4.58-.05,1.2.06,2.47-.25,3.58-1.54,5.62-.6,11.45.15,17.29.22,1.7,1.09,2.57,2.64,3.28,2.2.99,4.37,1.59,6.63,1.25,2.47-.36,4.89-.2,7.28,1.09.31.16.65.26.99.34,5.1,1.32,10.22,2.54,15.31,3.97,3.77,1.06,7.46,2.56,11.24,3.56,6.78,1.8,12.92,5.44,19.35,8.25.84.36,1.7.93,2.32,1.61,1.5,1.65,3.24,2.77,5.28,3.47.54.18,1.08.5,1.55.84,1.75,1.27,1.83,2.62.26,3.79-.08.06-.16.15-.26.18-3.19.94-6.37,1.88-9.57,2.79-1.34.38-2.77.59-4.05,1.1-2.32.93-4.72,1.24-7.34,1.38-3.71.2-7.55.15-11.06,1.46-1.64.61-3.7.39-5.57.52-1.65.11-3.4-.05-4.95.33-2.67.66-5.27,1.35-8.23.52-.62-.17-1.43-.11-1.95.16-3.28,1.73-6.9.96-10.53.26-1.09-.21-2.2-.27-3.24-.38-.93,1.46.1,2.47.88,3.45,2.2,2.76,4.46,5.48,6.69,8.22.07.09.19.18.21.28,1.43,5.52,6.8,8.67,9.48,13.44.11.2.3.37.42.57,2.65,4.71,5.61,9.21,9.61,13.09.82.79,1.2,2.01,1.81,3.01.92,1.49,1.86,2.97,2.8,4.45.63.99,1.29,1.97,1.93,2.96.45.69,5.42,5.11,7.42,7.58,1.15,1.42.71,4.26-.84,4.7-1.02.29-5.12,1.3-6.24,1.33-1.01.03-8.26,1.65-12.44,2.76-4,1.05-8.14,1.75-12.22,2.59-1.82.37-3.66.69-5.49,1.05-.54.1-1.05.32-1.6.35-8.36.42-16.09,2.56-23.8,4.94-3.84,1.18-7.69,2.64-12.23,2.3-3.01-.23-5.47,1.68-8.2,3.09,1.67,2.07,3.45,3.1,5.55,3.6,1.14.27,2.28.56,3.42.73,4.45.68,8.87,2.03,13.04,3.75,3.96,1.64,7.95,2.75,11.94,4.05,3.43,1.12,6.63,3.44,10.06,4.43,4.54,1.31,8.86,3.21,13.28,4.83,3.29,1.2,6.83,1.38,9.94,3.55.45.31,1.15.4,1.69.36,3.64-.27,6.78,1.59,9.9,3.46,2,1.2,3.95,2.3,6.26,2.33.65,0,1.44.23,2,.61,4.24,2.92,8.9,3.82,13.6,4.82,2.02.43,3.97,1.59,5.98,2.33,3.35,1.24,6.69,2.37,9.75,4.58,1.27.91,3.15,1.38,4.65,1.38,2.66.01,5.04.82,7.34,2.3,1.8,1.15,3.65,1.61,5.64,2.06,2.23.5,4.49,1.51,6.6,2.62,2.82,1.48,5.58,2.53,8.66,3.17,3.37.7,6.81,2.2,9.98,3.91,4.69,2.53,9.49,4.12,14.46,5.18,1.26.27,2.71.24,3.75.92,4.19,2.76,8.84,3.81,13.27,5.63,3.32,1.37,6.79,2.23,10.19,3.32,4.08,1.31,8.18,2.5,12.23,3.96,4.17,1.51,8.22,3.67,12.59,3.69.33,0,.71.06,1.03.21,4.2,1.9,8.66,2.61,12.81,4.28,5.88,2.37,11.84,3.85,17.75,5.75,3.86,1.25,7.81,1.86,11.72,2.88,2.87.75,5.81,1.38,8.55,2.63,3.72,1.7,7.38,2.97,11.25,3.24,1.47.1,3.01.48,4.48.96,4.32,1.42,8.61,3.31,12.95,4.37,5.95,1.46,11.93,2.32,17.9,3.43.46.08.98-.09,1.37.12,4.99,2.82,10.38,1.02,15.37,4.11.78.48,1.86.57,2.74.54,5.32-.18,10.56,1.64,15.82,3.35.68.22,1.39.45,2.07.52,4.35.46,8.7.8,13.05,1.36,1.93.25,3.96.67,5.82,1.49,3.93,1.74,7.78,2.16,11.68,2.19,1.23,0,2.55.02,3.75.47,5.33,2.02,10.58,2.42,15.85,2.55,4.1.1,8.25.47,12.37.73.23.01.49.03.69.14,3,1.68,5.89,1.31,8.86,1.41,4.1.15,8.25.56,12.38.97,2.42.24,5.86,4.94,5.28,7.2-.14.56-.77.97-1.27,1.3-1.31.88-2.62,1.76-4.04,2.47-1.42.71-2.96,1.23-4.46,1.81-1.5.57-3.02,1.11-4.52,1.67-.3.11-.56.44-.86.41-4.75-.49-7.68,3.09-11.97,3.62-1.43.18-2.87.38-4.24.73-1.46.37-3.11.61-4.21,1.47-3.55,2.78-7.94,3.72-12.53,4.11-3.89.33-7.25,1.62-10.52,3.25-1.42.71-2.9,1.48-4.51,1.67-2.88.34-5.84.25-8.1,2.14-.55.47-1.72.21-2.6.32-1.98.25-4.1.22-5.9.85-4.06,1.42-7.94,3.22-11.96,4.73-1.5.56-3.15.88-4.79,1.08-3.32.41-6.47,1.32-9.68,1.86-4.42.74-8.47,2.01-12.48,3.53-1.6.61-3.28,1.06-4.91,1.62-4.21,1.44-8.56,2.5-13.3,2.51-.68,0-1.43-.14-2.05,0-4.46,1.06-8.91,2.11-13.32,3.3-1.34.36-2.45.03-3.62-.88-1.71-1.31-3.44-2.58-5.13-3.91-2.73-2.16-5.66-3.73-8.87-4.53-.35-.09-.72-.15-1.04-.32-4.65-2.6-9.29-5.21-13.92-7.84-.86-.49-1.63-1.38-2.49-1.63-5.27-1.53-9.52-5.25-14.16-8.11-1.76-1.08-3.75-1.67-5.62-2.53-3.89-1.79-7.82-3.48-11.64-5.46-3.8-1.97-7.1-5.18-11.36-6.05-.43-.09-.94-.42-1.25-.77-3.03-3.46-7.2-4.11-10.91-5.89-1.63-.78-3.2-1.76-4.77-2.69-.95-.56-1.83-1.31-2.8-1.8-3.73-1.88-7.52-3.59-11.2-5.55-3.48-1.85-6.91-3.67-10.7-4.5-1.55-.34-3.13-1.3-4.58-2.19-3.99-2.44-7.84-4.99-12.37-6.22-3.04-.83-5.95-2.7-8.94-4.03-2.09-.93-4.23-1.69-6.31-2.63-1.85-.83-3.84-1.56-5.43-2.8-1.63-1.26-3.22-2.2-5.12-2.61-2.57-.56-5.07-1.3-7.14-3.32-.34-.33-.82-.56-1.26-.74-3.23-1.29-6.65-2.19-9.66-3.92-4.59-2.64-9.21-4.69-14.22-5.74-1.41-.3-2.72-1.63-4.15-2.23-2.1-.89-4.25-1.64-6.41-2.29-4.37-1.31-8.6-2.91-12.37-5.84-2.16-1.68-4.54-2.66-7.15-3.31-2.96-.74-5.97-1.7-8.79-3.03-7.33-3.45-14.66-6.73-22.3-9.16-4.51-1.43-8.9-3.48-13.35-5.23-1-.39-2.04-.63-3.03-1.02-1.53-.6-3.04-1.26-4.55-1.91-1.53-.65-3.04-1.64-4.58-1.9-5.16-.86-9.95-2.86-14.67-5.37-1.65-.88-3.57-1.36-5.38-1.7-3.15-.59-6.03-1.78-8.99-3.21-3.59-1.73-7.37-3.01-11.3-3.84-4.4-.94-8.91-2.3-12.99-4.34-3.06-1.53-5.9-2.97-9.21-3.33-1.11-.12-2.24-.69-3.35-1.08-.78-.27-1.55-.75-2.33-.85-5.95-.73-11.48-3.23-17.14-5.33-7.07-2.63-14.26-4.89-21.45-7.03-2.67-.8-5.49-.83-8.24-1.23-3.21-.47-6.42-.94-9.63-1.43-1.39-.21-2.13-1.1-2.23-2.3-.37-4.86.27-9.33,3.85-12.76,1.49-1.43,2.95-2.95,4-4.7,2.73-4.56,5.86-8.66,10.39-11.8,2.61-1.81,4.82-4.07,8.42-4.18,1.29-.04,2.66.29,3.98.61,1.67.41,3.31.98,4.96,1.46.33.1.71.02,1.02.15,7.41,3.08,13.47.1,19.81-1.63,2.63-.72,5.29-1.37,7.96-1.97,4.59-1.04,9.2-2.02,13.79-3.06,1.06-.24,2.1-.57,3.12-.91.61-.21,1.14-.74,1.76-.76,4.21-.18,7.47-2.16,10.87-3.93,1.09-.57,2.51-.75,3.84-.82,6.89-.37,13.32-1.87,19.31-4.66,2.19-1.02,4.76-1.4,7.17-2.05,1.2-.33,2.42-.61,3.78-.96-1.62-4.1-2.42-7.97-5.42-11.14-.71-.75-1.33-1.75-1.57-2.68-.81-3.18-2.97-5.66-4.73-8.41-2.56-4-4.62-8.29-6.57-12.55-.92-2.02-2.22-3.51-3.97-4.75-.55-.39-1.26-.73-1.9-.79-3.47-.35-6.95-.49-10.42-.94-3.83-.5-7.65-1.28-11.47-1.9-3.16-.51-6.32-1.01-9.48-1.45-1.85-.26-2.44-.82-2.42-2.57,0-.43.07-.86.18-1.27,2.04-7.37,1.03-15.17.88-22.85-.05-2.38-.15-4.77-.18-7.15-.02-1.52,1.14-2.09,2.42-1.95,4.49.46,9,.91,13.46,1.78,1.79.34,3.47.8,5.3.76,2.21-.05,4.49.36,6.74.55,3.44.29,4.09-.38,4.03-3.69-.04-2.06.29-4.09.22-6.15-.14-4.35-.4-8.71-.66-13.07-.32-5.45-1.26-10.96.02-16.23.49-2.01.58-3.94.01-6.1-.44-1.66-.21-3.46-.13-5.17.14-2.79.43-5.56.6-8.35.08-1.32-.7-1.93-2.02-2.29-7.73-2.1-15.53-2.8-23.33-3.54-.55-.05-1.19-.1-1.64.11-2.87,1.37-5.65-.07-8.47-.89-1.51-.44-1.9-1.29-1.82-2.73.11-2.14-.14-4.32-.1-6.48.02-1.27.1-2.59.53-3.74.81-2.17.84-4.34.31-6.67-.29-1.26-.61-2.71-.24-3.81.86-2.54.63-5.04.03-7.67-1.3-5.67-.62-6.37,5.23-5.61,2.87.37,5.75.94,8.62,1.2,2.65.23,5.29.03,7.94.25,3.55.29,7.1.82,10.65,1.22,2.82.32,3.83-.32,4.2-3.13.22-1.69.28-3.48,0-5.2-.76-4.86-.18-9.51.68-14.76ZM168.47,4.39c-.93,3.4-2.04,6.66-3.91,9.67-1.42,2.27-2.91,4.78-3.35,7.39-.78,4.61-2.61,8.5-5.24,12.1-.06.09-.1.19-.16.28-2.09,3.33-2.73,7.47-5.72,10.38-1.76,1.71-2.71,4.33-3.98,6.57-.58,1.03-1.26,2.06-1.55,3.2-.58,2.23-1.94,3.76-3.47,5.32-1.86,1.89-3.5,4.02-5.18,6.1-.74.91-1.29,1.98-2,2.92-2.26,2.99-4.51,5.98-6.85,8.89-.85,1.06-1.91,1.94-2.94,2.83-.55.48-1.34.71-1.83,1.24-2.41,2.56-4.85,5.1-7.13,7.78-3.63,4.26-7.56,8.09-12.64,10.52-.92.44-1.71,1.24-2.43,2-2.67,2.85-5.71,5-9.47,6.21-1.86.6-3.56,1.8-5.24,2.87-3.56,2.25-7.05,4.62-10.62,6.87-.61.38-1.41.43-2.11.69-2.68.99-5.56,1.66-7.98,3.1-3.29,1.95-6.47,3.66-10.36,4.46-3.4.7-6.53,2.7-9.96,3.83-2.76.91-5.45,2.15-8.34,2.87-4.11,1.02-6.37,3.3-4.57,9.04.64,2.05,1.53,4.03,2.22,6.08.8,2.4,2.12,4.43,3.75,6.38,1.44,1.71,2.75,3.64,3.63,5.68,1.6,3.66,3.85,6.83,6.72,9.53,2.94,2.77,6.17,5.03,10.36,2.66.09-.05.2-.08.31-.09,5.21-.18,10.47-.98,15.6-.36,5.15.62,10.21,1.16,15.37.96,3.52-.14,7.08.19,10.6.5.8.07,2.12.86,2.23,1.47.58,3.1,1.65,6.47,1.01,9.34-.9,4.05-.54,8.06-.17,11.95.76,8.09,1.08,16.07-.3,24-.06.32-.02.65-.03.98-.08,2.7-.27,5.4-.2,8.11.09,3.25-1.3,3.89-4.23,3.65-1.18-.1-2.35-.51-3.53-.63-2.69-.26-5.43-.76-8.07-.54-2.52.21-4.91.09-7.39-.45-1.35-.3-2.8-.34-4.17-.24-1.29.1-2.1.88-2.1,2.35,0,2.38-.31,4.76-.09,7.12.73,7.8.69,15.51-.8,23.14-.56,2.84.68,4.02,3.67,3.96.43,0,.87-.04,1.29-.13,3.76-.81,7.52-.44,11.3.48,1.15.28,2.45.52,3.53.25,3.24-.79,6.24.37,9.3,1.25,1.15.33,2.08,1.05,2.07,2.31-.02,2.92.11,5.89-.38,8.72-.49,2.83-.45,5.56-.01,8.42.31,2.03.29,4.14.09,6.16-.42,4.21-.8,8.39.11,12.66.44,2.07.55,4.07-.17,6.1-.4,1.13-.22,2.53-.18,3.81.11,3.7.43,7.41.39,11.1-.03,2.56-.89,3.19-3.41,3.23-.86.01-1.74-.18-2.62-.28-1.74-.2-3.47-.49-5.21-.58-2.84-.15-5.69.02-8.51-.31-4.66-.54-9.3-1.39-13.95-2.09-2.74-.41-3.87.48-3.93,3.19-.03,1.07-.02,2.19.25,3.24,1.84,7.34,1.26,14.63,1.06,21.93-.06,2.15-.01,4.33-.24,6.45-.3,2.87.23,3.75,3.11,4.13,1.2.16,2.41,0,3.62,0,2.96.04,5.92.09,8.87.16.99.02,1.98.12,2.97.18,4.93.31,9.86.52,14.78.98,2.58.24,2.82,1.19,2.57,3.86-.32,3.52-.43,7.12-.13,10.69.24,2.85.58,5.63.12,8.44-.84,5.09.07,6.66,4.89,9.33.3.17.58.43.89.5,3.46.71,7.1,3.92,10.25.11.24-.29.83-.26,1.18-.48,1.05-.67,2.3-1.21,3.05-2.15,1.56-1.95,3.19-3.62,5.86-4.06.6-.1,1.17-.54,1.65-.94,2.12-1.77,4.23-1.49,6.63.16,1.47,1.02,3.2,1.72,4.89,2.31,1.41.49,2.4-.22,2.45-1.71.07-2.07.1-4.16-.02-6.25-.24-4.06-.63-8.12-.88-12.17-.05-.86-.02-1.85.36-2.54.35-.61,1.19-1.2,1.9-1.26,2.14-.17,4.32-.16,6.49-.07,1.41.06,2.91.14,4.24.65,1.97.76,3.83.97,5.83.68,4.36-.63,8.73-.31,13.07,1.37,1.01.39,2.23.65,3.23.46,4.27-.82,8.5.11,12.75,1.07,2.18.5,4.37.91,6.54,1.44,1.19.29,2.37.65,3.52,1.12,3.4,1.39,6.84,2.15,10.42,2.23,1.37.03,2.77.62,4.16.99,2.26.59,4.54,1.66,6.75,1.72,4.22.11,8.1,1.15,11.85,3.39,1.99,1.19,4.08,1.88,6.41,1.76,1.22-.06,2.56.58,3.82,1.01,5.66,1.97,11.32,3.97,16.97,6.01,1.68.61,3.44,1.13,4.97,2.07,2.09,1.29,4.07,2.63,6.55,2.59.61-.01,1.49.23,1.86.67,2.26,2.72,5.63,2.27,8.29,3.83.47.27,1.7-.04,1.91-.47.31-.64.21-1.68-.06-2.46-.2-.57-.97-.97-1.47-1.45-3.78-3.66-7.47-7.41-11.34-10.95-2.31-2.12-4.7-4.35-7.38-5.76-3.64-1.92-6.6-4.67-9.65-7.28-3.46-2.95-6.74-5.99-10.98-7.64-1.12-.44-2.11-1.36-3.11-2.13-1.1-.84-2.04-2.23-3.21-2.57-5.42-1.59-9.51-5.94-14.57-8.04-5.73-2.38-11.06-5.85-17.01-7.57-.42-.12-.85-.36-1.2-.64-3.08-2.49-6.75-3.27-10.3-3.81-3.8-.58-7.32-1.84-10.83-3.43-1.41-.64-2.93-.98-4.42-1.39-2.02-.56-4.18-.75-6.06-1.63-3.14-1.49-6.37-2.45-9.64-2.32-5.13.19-10.22-1.73-15.39-.94-2.88.44-4.12-1.3-4.17-4.3-.02-1.63-.26-3.26-.4-4.9-.15-1.73-.46-3.47-.42-5.17.09-4.15.72-8.29.39-12.43-.26-3.3-.43-6.46-.11-9.76.38-3.93-.85-8.08.34-12-1.49-4.56.16-8.93,0-13.42-.08-2.05.55-2.32,2.59-2.32,1.94,0,3.86-.19,5.8-.23,1.61-.04,3.26-.21,4.83.1,1.7.34,3.15.08,4.74-.32,1.93-.49,4.01-.81,6-.61,2.02.2,3.83.1,5.69-.59,3.92-1.47,8.01-2.2,12.29-2.24,1.54-.02,3.03-.74,4.51-1.23.7-.23,1.28-.79,1.98-1,6.32-1.9,12.63-3.79,18.97-5.61,2.18-.63,3.72-1.66,3.42-2.8-.51-1.91-2.16-2.37-3.76-2.94-1.41-.51-2.95-1.07-4.06-2.06-2.04-1.79-4.21-2.97-6.79-3.26-3.76-.43-7.21-1.78-10.46-3.92-2.27-1.49-4.67-2.58-7.43-2.23-.8.1-1.77-.1-2.53-.47-6.21-3.02-12.75-3.94-19.37-4.46-1.06-.08-2.17-.29-3.17-.69-2.69-1.08-5.25-1.7-8.21-1.16-1.76.32-4.12-.64-5.79-1.72-1.58-1.02-.56-3.05-.53-4.65.07-4.04.12-8.09.19-12.13.04-2.19.21-4.37.16-6.56-.15-7.1-1.24-14.23.05-21.26.08-.42-.04-.87-.06-1.31-.15-3.17-.34-6.34-.42-9.52-.05-1.99.59-2.47,2.5-2.4,1.81.06,3.61-.05,5.42-.02,2.25.03,4.53-.14,6.74.22,4.67.77,9.45.09,14.06,1.76.84.31,1.91,0,2.85-.13,4.78-.65,9.51-.72,14.39.2,3.34.63,6.88.64,10.22.23,2.57-.32,5.03-.45,7.63-.16,2.2.25,4.44-.06,6.66-.19,1.79-.1,3.56-.49,5.34-.43,2.18.08,4.25.08,6.13-1.21,1.82-1.25,3.94-1.35,6.15-1.19,1.68.12,3.39-.06,5.05-.29,1.89-.26,3.76-.71,5.62-1.13,1.03-.23,2.11-.41,3.03-.88,3.77-1.92,7.52-3.83,11.93-3.87.6,0,1.29-.29,1.73-.7,1.75-1.62,3.95-1.9,6.16-2.27,2.95-.49,5.83-1.16,7.9-3.67.5-.61,1.39-1.12,2.16-1.19,2.47-.23,4.32-1.59,6.18-3.04.91-.71,1.88-1.6,2.95-1.81,4.96-.96,8.26-4.99,12.71-6.91,4.02-1.74,8.14-3.43,11.28-6.8.33-.36,1.01-.33,1.45-.6,2.68-1.66,5.56-3.07,7.94-5.12,3.52-3.04,6.53-6.77,11.16-8.13.39-.11.73-.43,1.07-.69,5.04-3.9,10.09-7.77,15.06-11.75.88-.7,1.62-1.73,2.11-2.79.25-.54.03-1.7-.38-2.17-.39-.45-1.35-.56-1.99-.46-.7.11-1.31.64-1.97.98-3.93,2-7.86,3.99-11.8,5.96-.56.28-1.24.31-1.8.58-1.69.81-3.44,1.54-4.99,2.57-1.69,1.11-3.21,2.53-5.36,2.49-2.33-.04-4.27.95-6.24,2.03-1.25.68-2.71,1.22-4.12,1.29-3.47.18-6.71,1.13-9.61,2.86-3.63,2.16-7.66,3.38-11.65,3.74-4.66.42-9.06,1.9-13.71,2.26-2.1.16-4.13.87-6.21,1.22-1.32.22-2.68.28-4.03.3-.95.01-1.93-.32-2.86-.22-4.3.49-8.74.21-12.84,1.97-.94.4-2.07.46-3.12.49-3.07.1-6.15.16-9.23.15-7.03-.03-14.06-.13-21.1-.19-1.07,0-2.2-.18-3.18.11-2.73.81-5.49.47-8.25.14-2.96-.35-5.89-1.26-8.9-.7-.59.11-1.26-.25-1.89-.31-1.06-.11-2.11-.16-3.17-.21-1.37-.07-2.75-.13-4.12-.16-1.16-.03-2.33-.08-3.48-.02-1.38.07-2.74.34-4.12.37-4.79.1-9.56-.15-14.3-1.32-.88-.22-1.87.11-2.8.24-.73.1-1.45.46-2.17.43-3.51-.15-7.08,0-10.5-.7-4.27-.88-8.49-.81-12.75-1.02-2.54-.13-5.07-.49-7.61-.7-.74-.06-1.48.07-2.22.05-.7-.02-1.4-.12-2.63-.23.54-1.3.74-2.4,1.36-3.13,2.66-3.19,5.49-6.22,8.14-9.42,2.16-2.61,4.45-5.19,6.09-8.15,1.21-2.18,2.39-4.25,4.01-6.13,1.43-1.67,2.76-3.57,3.59-5.62.79-1.94,1.6-3.74,2.99-5.28,1.32-1.45,2.08-3.16,2.31-5.25.16-1.47.54-3.21,1.45-4.23,2.62-2.98,3.91-6.66,5.47-10.22.56-1.29,1.41-2.52,1.63-3.87.72-4.47,1.74-8.76,4.25-12.53.34-.51.52-1.24.5-1.87-.05-2.22.92-4,1.94-5.81,1.59-2.84,3.15-5.72,2.61-9.29-.09-.62,0-1.41.31-1.92,1.6-2.6,2-5.49,2.06-8.52.02-.85.3-1.75.65-2.53,1.28-2.8,2.4-5.6,2.17-8.85-.06-.82.4-1.69.67-2.52,1.01-3.1,2.1-6.18,3.06-9.3.71-2.31.33-3.1-1.45-4.48-.91-.71-1.68-1.63-2.48-2.49-.71-.76-1.37-1.56-2.66-3.03-.73,2.02-1.24,3.18-1.58,4.39Zm101.64,570.16c-1.26,1.48-2.03,3.4-2.87,5.22-.62,1.33-.99,2.8-1.51,4.18-.38,1-.88,1.94-1.23,2.95-1.66,4.74-1.67,9.91-1.95,15-.08,1.4.2,2.9,1.65,3.63,2.63,1.32,5.35,2.45,8.06,3.56,2.06.84,4.36,1.15,6.2,2.33,5.25,3.39,11.12,4.42,16.64,6.73,3.85,1.61,7.73,2.85,10.87,5.99.42.42.96.92,1.47,1.02,3.39.68,5.82,3.04,8.41,5.26,1.07.92,2.44,1.54,3.74,2.1,4.11,1.8,7.72,4.32,10.85,7.74,3.38,3.7,6.9,7.24,11.2,9.93,1.45.91,2.64,2.49,3.7,3.93,1.81,2.46,3.37,5.09,5.13,7.59.74,1.06,1.51,2.39,3.06,2.08,1.32-.26,2.52-2.36,2.23-3.9-.11-.57-.31-1.15-.58-1.69-1.7-3.47-3.43-6.92-5.13-10.39-.42-.86-.97-1.76-1.08-2.63-.28-2.19-1.5-3.93-2.69-5.8-2.2-3.44-5.37-6.41-6.07-10.61-.11-.69-.95-1.36-1.45-2.04-1.15-1.56-2.49-3.02-3.4-4.68-2.83-5.16-6.44-9.9-10.95-13.47-3.4-2.7-6.27-5.68-8.93-8.94-3.83-4.7-9.31-7.14-13.53-11.23-.16-.16-.43-.2-.63-.32-2.01-1.29-4.01-2.6-6.01-3.88-1-.64-1.98-1.58-3.03-1.83-5.45-1.27-10.04-4.59-14.8-7.53-1.09-.67-2.3-1.14-3.79-1.87-1.17.47-2.79.64-3.56,1.56Zm-16.22-333.83c.15.99.47,2,.91,2.92,1.87,3.96,3.27,8.03,3.86,12.36.2,1.44.72,2.87,1.15,4.29,1.97,6.5,4.94,8.15,11.19,6.76,4.21-.93,7.19-4.45,11.57-4.93.45-.05.8-.67,1.22-.99.68-.51,1.32-1.11,2.08-1.44,2.58-1.13,4.8-2.64,6.33-5.16.42-.7,1.16-1.35,1.91-1.62,5.66-2.06,8.85-7.17,12.81-11.26,3.15-3.26,4.84-7.77,8.3-10.97,2.39-2.22,3.72-5.8,5.19-8.96,2.39-5.16,4.42-10.53,7.85-15.04.44-.58.64-1.38.87-2.12.93-2.96,1.83-5.92,2.72-8.89.29-.95.8-1.94.68-2.88-.11-.88-.78-1.95-1.5-2.46-.36-.26-1.63.32-2.01.9-1.24,1.87-2.36,3.86-3.34,5.91-1.98,4.12-5.16,7.24-8.34,10.04-5.4,4.74-11.6,8.47-17.23,12.94-4.35,3.45-9.54,5.15-14.66,6.31-5.96,1.35-11.46,3.66-17.15,5.58-2.64.89-5.22,1.8-8.11,1.54-4.98-.33-7.08,2.01-6.32,7.17Z"/><path class="cls-1" d="m8.95,808.35c1.39.08,2.59.14,3.59.18,1,.04,1.8.06,2.4.06s1.3-.02,2.19-.05c.89-.03,2.1-.08,3.64-.15v1.7h-.39c-1.2,0-1.99.29-2.38.86s-.58,2.15-.58,4.73v13.2c0,2.61.19,4.19.58,4.75s1.15.85,2.28.85c.07,0,.18,0,.34-.02.16-.01.29-.02.38-.02v1.75c-.4-.01-.98-.04-1.74-.08-2.18-.1-3.67-.16-4.45-.16-.65,0-1.48.02-2.5.06-1.02.04-2.2.1-3.57.18v-1.75c.09.01.19.02.29.03.1,0,.25,0,.45,0,1.05,0,1.77-.34,2.14-1.02s.55-2.3.55-4.86v-2.01c0-.62,0-1.1,0-1.42s-.02-.63-.03-.93v-4.28c0-.69,0-1.57.02-2.63.01-1.06.02-1.79.02-2.18,0-2.2-.18-3.6-.55-4.21s-1.08-.91-2.14-.91c-.04,0-.12,0-.25.02-.13.01-.23.02-.29.02v-1.74Zm16.74,0c.23.01.58.03,1.03.06,2.12.12,3.62.18,4.49.18.68,0,1.98-.06,3.9-.18.51-.03.91-.05,1.21-.06v1.74h-.37c-1.54,0-3.28.94-5.25,2.81l-.02.02-8.04,7.71,8.64,9.04c.28.29.66.7,1.15,1.23,2.22,2.38,3.93,3.57,5.11,3.57.16,0,.27,0,.35,0,.08,0,.15-.02.21-.03l-.02,1.75c-.26-.01-.66-.04-1.19-.08-1.71-.1-2.86-.16-3.47-.16-.37,0-1.22.04-2.56.12-.82.05-1.47.09-1.95.12.01-.04.02-.07.03-.11,0-.03,0-.09,0-.16,0-.85-2.15-3.51-6.44-7.99-2.13-2.21-3.84-4-5.11-5.37l7.2-7.59.27-.31c1.94-2.05,2.91-3.26,2.91-3.61s-.13-.58-.39-.73c-.26-.15-.69-.22-1.29-.22h-.43v-1.74Z"/><path class="cls-1" d="m46.91,816.21c-.08,2.81-.14,5.26-.19,7.36-.05,2.09-.07,3.81-.07,5.15v2.28c0,1.52.15,2.49.46,2.92.31.42.89.63,1.75.63.06,0,.16,0,.3-.02.14-.01.25-.02.34-.02v1.68c-1.2-.08-2.24-.14-3.14-.18-.9-.04-1.64-.06-2.22-.06-.49,0-1.16.02-2,.06s-1.84.1-3,.18v-1.68h.41c1.66,0,2.5-1.53,2.52-4.6v-1.15l.04-4.15v-1.72c0-1.46-.12-2.39-.35-2.81-.23-.42-.69-.62-1.36-.62-.09,0-.3.01-.62.04-.14.01-.25.03-.33.04l-.29-1.56c1.38-.18,2.7-.42,3.98-.7,1.27-.29,2.54-.64,3.78-1.05Zm-2.73-9.79l1.78,1.21c.44.3.77.61.99.94.21.32.32.68.32,1.05s-.08.73-.25,1.01-.47.57-.9.87l-1.89,1.29-1.75-1.17c-.47-.3-.82-.61-1.04-.94s-.34-.66-.34-1.02c0-.39.09-.73.27-1.03.18-.3.51-.62,1-.96l1.83-1.25Z"/><path class="cls-1" d="m53.66,816.85c.87.07,1.83.12,2.87.15,1.04.03,2.6.05,4.66.05,2.78,0,4.65-.02,5.61-.05.96-.03,1.69-.08,2.19-.15l.68,1.56c-.87.68-2.21,2.13-4.02,4.37l-.47.58-6.87,8.66c.75.05,1.52.09,2.31.12.79.02,1.6.04,2.45.04,2.22,0,3.63-.2,4.23-.6.6-.4,1.01-1.15,1.23-2.22l1.6.39c-.29,1.04-.52,2.09-.71,3.16s-.33,2.16-.42,3.28c-1.7-.12-3.31-.21-4.82-.26-1.51-.06-2.9-.09-4.16-.09-.99,0-2.06.03-3.21.08-1.15.05-2.51.14-4.07.27l-.72-1.6c.91-.59,2.15-1.85,3.71-3.81.26-.31.46-.55.59-.7l7.43-9.19c-1,0-2.08-.01-3.24-.04-1.16-.02-1.81-.04-1.97-.04-1.69,0-2.78.17-3.26.5-.48.33-.82,1-1.01,2.02l-1.64-.41c.25-.97.46-1.97.62-2.98s.3-2.04.39-3.08Z"/><path class="cls-1" d="m79.5,816.35c-.09,2.32-.16,4.41-.21,6.28-.05,1.87-.07,3.44-.07,4.68,0,2.26.27,3.84.8,4.74.53.9,1.43,1.35,2.67,1.35.62,0,1.33-.14,2.11-.43s1.62-.7,2.52-1.25c.04-1.86.07-3.44.09-4.74.02-1.3.03-2.33.03-3.1v-.88c0-1.61-.14-2.62-.43-3.02s-.83-.6-1.64-.6c-.14,0-.29,0-.43,0-.14,0-.29.02-.45.03l-.12-1.56c1.37-.13,2.7-.28,4-.47,1.3-.18,2.58-.4,3.83-.65-.09,3.02-.15,5.31-.19,6.88-.03,1.57-.05,3.03-.05,4.38v1.8c0,1.69.1,2.75.31,3.19s.62.65,1.25.65c.16,0,.33-.01.52-.04.19-.03.39-.07.6-.12l.19,1.6-7.47,1.68v-3c-1.5,1.09-2.78,1.87-3.84,2.32-1.07.46-2.1.68-3.1.68-1.95,0-3.4-.61-4.36-1.82s-1.43-3.06-1.43-5.53c0-.52,0-.95.01-1.29,0-.34.02-.68.03-1.02l.08-2.65c0-.26,0-.6.02-1.01.01-.41.02-.7.02-.87,0-1.29-.11-2.16-.33-2.61s-.62-.67-1.19-.67c-.25,0-.59.02-1.04.06-.05.01-.09.02-.12.02l-.12-1.6c1.23-.16,2.48-.35,3.73-.6,1.25-.24,2.51-.52,3.78-.83Z"/><path class="cls-1" d="m103.03,812.86l1.72.49c-.08.73-.15,1.43-.21,2.09-.06.66-.09,1.29-.11,1.87,1.71,0,2.97-.01,3.81-.04.83-.03,1.6-.07,2.3-.12l-.51,2.65c-.82-.07-1.7-.11-2.64-.15-.94-.03-1.93-.04-2.96-.03-.04,1.72-.07,3.18-.09,4.4-.02,1.22-.03,2.17-.03,2.86,0,2.85.21,4.71.62,5.57.41.86,1.13,1.3,2.17,1.3.42,0,.89-.09,1.43-.25.53-.17,1.14-.43,1.81-.78l.76,1.64c-1.43.81-2.7,1.42-3.82,1.84-1.12.42-2.04.63-2.77.63-1.66,0-2.89-.52-3.69-1.57s-1.19-2.67-1.19-4.87c0-.43.04-1.84.11-4.23s.11-4.58.11-6.55c-.03,0-.34.01-.93.04-.59.03-1.29.05-2.08.08v-1.87c1.51-.22,2.77-.74,3.79-1.57s1.82-1.97,2.39-3.42Z"/><path class="cls-1" d="m132.19,832.87l.72,1.48c-1.18.78-2.25,1.36-3.19,1.75-.95.38-1.79.58-2.53.58-.9,0-1.58-.23-2.06-.69-.48-.46-.75-1.16-.83-2.1-1.42.99-2.61,1.7-3.59,2.14-.98.44-1.85.65-2.63.65-1.36,0-2.53-.53-3.49-1.59-.96-1.06-1.44-2.33-1.44-3.81,0-2.5,2.79-4.39,8.37-5.68,1.21-.29,2.16-.51,2.85-.68.01-.32.02-.64.03-.95,0-.3,0-.6,0-.89,0-1.39-.27-2.4-.81-3.04-.54-.64-1.4-.96-2.59-.96-.77,0-1.43.16-1.98.47-.55.31-.85.68-.89,1.09-.01.07-.02.15-.02.25-.08,1.3-.9,1.95-2.46,1.95-.58,0-1.03-.1-1.34-.29-.31-.2-.47-.48-.47-.86,0-1.04.96-2.21,2.88-3.5,1.92-1.29,3.93-1.94,6.04-1.94s3.62.54,4.68,1.61c1.07,1.07,1.6,2.64,1.6,4.71,0,.62-.05,1.91-.15,3.87-.1,1.96-.15,3.61-.15,4.95,0,.79.1,1.37.31,1.72.21.35.53.53.97.53.25,0,.55-.07.92-.2.36-.13.77-.32,1.23-.56Zm-7.79-5.99c-.28.08-.7.2-1.25.35-3.72,1.03-5.58,2.24-5.58,3.65,0,.78.25,1.43.76,1.96.51.53,1.15.79,1.91.79.49,0,1.06-.12,1.69-.37.63-.25,1.45-.67,2.47-1.27v-5.11Z"/><path class="cls-1" d="m141.3,816.25c-.05.42-.11,1.1-.18,2.05-.03.44-.05.77-.06.98,1.59-1.09,2.91-1.87,3.96-2.33,1.05-.46,2.02-.69,2.91-.69,1.2,0,2.22.27,3.06.81.84.54,1.53,1.36,2.05,2.47,1.59-1.17,2.95-2.01,4.08-2.52,1.13-.51,2.18-.76,3.16-.76,1.82,0,3.23.61,4.22,1.83,1,1.22,1.49,2.97,1.49,5.25v1.68l-.08,4.9c0,.09,0,.35-.02.79s-.02.83-.02,1.18c0,1.11.15,1.83.44,2.17s.86.51,1.71.51h.49v1.64c-1.04-.08-1.98-.14-2.82-.18s-1.58-.06-2.21-.06c-.46,0-1.07.02-1.84.06s-1.69.1-2.76.18l.02-1.64c.06.01.14.02.23.03.09,0,.22.01.39.01.79,0,1.32-.26,1.59-.79.27-.53.4-1.85.4-3.97v-2.19c0-.45,0-1.06.03-1.8.02-.75.03-1.26.03-1.55,0-1.61-.28-2.8-.84-3.55-.56-.75-1.43-1.13-2.61-1.13-.56,0-1.22.14-1.97.42s-1.6.7-2.54,1.26l-.08,8.99c0,.6-.01,1.18-.04,1.76v.12c0,1,.12,1.65.37,1.95.25.3.74.45,1.46.45h.49v1.64c-1.03-.08-1.96-.14-2.8-.18s-1.58-.06-2.24-.06c-.36,0-.9.02-1.6.06-.7.04-1.57.1-2.59.18v-1.64c.08.01.16.02.25.03.09,0,.21.01.37.01.74,0,1.24-.27,1.5-.82.26-.55.39-1.76.39-3.65v-5.91c0-1.61-.27-2.78-.81-3.51-.54-.73-1.39-1.09-2.55-1.09-.59,0-1.26.13-2.01.4-.76.27-1.59.67-2.52,1.2-.01.43-.03,1.05-.04,1.85-.08,3.71-.12,6.25-.12,7.65,0,1.8.13,2.88.38,3.27.25.38.78.58,1.57.58h.57v1.64c-1.12-.08-2.1-.14-2.96-.18-.85-.04-1.57-.06-2.15-.06s-1.7.05-3.38.16c-.57.04-1,.07-1.29.08l-.02-1.64h.49c1.6,0,2.41-1.6,2.42-4.8.01-.39.02-.7.02-.92v-5.83c0-1.48-.12-2.45-.34-2.89-.23-.44-.65-.66-1.26-.66-.09,0-.21,0-.37.03-.16.02-.34.05-.55.09l-.18-1.52c.94-.18,1.94-.41,3.02-.67,1.08-.27,2.5-.64,4.25-1.12Z"/><path class="cls-1" d="m189.77,832.87l.72,1.48c-1.18.78-2.25,1.36-3.19,1.75-.95.38-1.79.58-2.53.58-.9,0-1.58-.23-2.06-.69-.48-.46-.75-1.16-.83-2.1-1.42.99-2.61,1.7-3.59,2.14-.98.44-1.85.65-2.63.65-1.36,0-2.53-.53-3.49-1.59-.96-1.06-1.44-2.33-1.44-3.81,0-2.5,2.79-4.39,8.37-5.68,1.21-.29,2.16-.51,2.85-.68.01-.32.02-.64.03-.95,0-.3,0-.6,0-.89,0-1.39-.27-2.4-.81-3.04-.54-.64-1.4-.96-2.59-.96-.77,0-1.43.16-1.98.47-.55.31-.85.68-.89,1.09-.01.07-.02.15-.02.25-.08,1.3-.9,1.95-2.46,1.95-.58,0-1.03-.1-1.34-.29-.31-.2-.47-.48-.47-.86,0-1.04.96-2.21,2.88-3.5,1.92-1.29,3.93-1.94,6.04-1.94s3.62.54,4.68,1.61c1.07,1.07,1.6,2.64,1.6,4.71,0,.62-.05,1.91-.15,3.87-.1,1.96-.15,3.61-.15,4.95,0,.79.1,1.37.31,1.72.21.35.53.53.97.53.25,0,.55-.07.92-.2.36-.13.77-.32,1.23-.56Zm-7.79-5.99c-.28.08-.7.2-1.25.35-3.72,1.03-5.58,2.24-5.58,3.65,0,.78.25,1.43.76,1.96.51.53,1.15.79,1.91.79.49,0,1.06-.12,1.69-.37.63-.25,1.45-.67,2.47-1.27v-5.11Z"/><path class="cls-1" d="m68.58,775.38v-11.96h-3.05c-3.58,0-7.75.09-10.08.36l-.4-2.42c2.6.27,6.9.36,10.48.36h14.16c3.05-3.31,3.63-3.81,4.03-3.81.54,0,1.08.27,2.96,2.02,2.06,1.93,2.33,2.37,2.33,2.78s-.27.72-1.12.72h-11.42c-.13.49-.63.76-1.97,1.12v10.84h3.09c2.87-3,3.45-3.4,3.81-3.4.49,0,.9.22,2.69,1.66,2.15,1.75,2.37,2.11,2.37,2.69,0,.63-.31.76-1.57.76h-10.39v14.42h9.36c3-3.27,3.36-3.72,3.94-3.72.45,0,1.16.27,2.91,1.88,2.11,1.88,2.51,2.37,2.51,2.82,0,.58-.27.72-1.57.72h-28.36c-3.9,0-8.65.09-10.98.36l-.4-2.42c2.6.27,7.48.36,11.38.36h5.29v-14.42h-.45c-2.87,0-6.94.09-9.18.36l-.4-2.42c2.46.27,6.72.36,9.59.36h.45Zm7.21,4.66l.18-.49c7.03.31,9.77,3.76,9.77,6.18,0,2.11-1.21,3.18-3.14,3.18-1.34,0-2.24-.54-2.69-2.69-.54-2.69-1.88-4.93-4.12-6.18Zm-50.89-3.49v-13.13h-3.05c-3.58,0-7.75.09-10.08.36l-.4-2.42c2.6.27,6.9.36,10.48.36h14.16c3.05-3.31,3.63-3.81,4.03-3.81.54,0,1.08.27,2.96,2.02,2.06,1.93,2.33,2.37,2.33,2.78s-.27.72-1.12.72h-11.42c-.13.49-.63.76-1.97,1.12v12.01h2.55c2.87-3,3.45-3.4,3.81-3.4.49,0,.9.22,2.69,1.66,2.15,1.75,2.37,2.11,2.37,2.69,0,.63-.31.76-1.57.76h-9.86v13.26h9.36c3-3.27,3.36-3.72,3.94-3.72.45,0,1.16.27,2.91,1.88,2.11,1.88,2.51,2.37,2.51,2.82,0,.58-.27.72-1.57.72h-28.36c-3.9,0-8.65.09-10.98.36l-.4-2.42c2.6.27,7.48.36,11.38.36h5.29v-13.26h-.45c-2.87,0-6.94.09-9.18.36l-.4-2.42c2.46.27,6.72.36,9.59.36h.45Zm10.35-9.86l.09-.45c6.36-.99,9.41,1.66,9.86,3.85.31,1.88-.54,3.05-2.28,3.4-1.21.18-2.11-.13-2.87-1.97-.99-2.33-2.6-4.08-4.79-4.84Z"/></g></svg>