<?xml version="1.0" encoding="UTF-8"?><svg id="_图层_2" xmlns="http://www.w3.org/2000/svg" xmlns:xlink="http://www.w3.org/1999/xlink" viewBox="0 0 1389.01 265.55"><defs><style>.cls-1{clip-path:url(#clippath);}.cls-2{fill:none;}.cls-2,.cls-3,.cls-4,.cls-5{stroke-width:0px;}.cls-3{fill:#f9eadb;}.cls-4{fill:#2a282c;}.cls-5{fill:#d45978;}</style><clipPath id="clippath"><rect class="cls-2" width="1389.01" height="265.55"/></clipPath></defs><g id="_图层_1-2"><g class="cls-1"><path class="cls-5" d="m1321.39,224.35v11.76c0,.78-2.88,6.01-8.62,15.68-5.75,9.67-8.62,14.24-8.62,13.72V118.32c0-.26,2.87-.39,8.62-.39s8.62.13,8.62.39v106.04Zm-40.77-49.59c0,3.79,2.16,5.85,6.47,6.17,4.31.33,9.08-.46,14.31-2.35,5.22-1.89,8.62-3.82,10.19-5.78.91-1.7,2.12-3.26,3.63-4.7,1.5-1.44,2.61-2.25,3.33-2.45.72-.2.62.49-.29,2.06-6.53,9.28-14.05,15.26-22.54,17.93-8.49,2.68-16.01,2.68-22.54,0-6.54-2.68-9.8-6.3-9.8-10.88V59.52c0-.26,2.87-.39,8.62-.39s8.62.13,8.62.39v115.25Z"/><path class="cls-5" d="m1004.86,78.14l6.47-1.18c1.04-.26-.36.88-4.21,3.43-3.86,2.55-8.07,5.13-12.64,7.74-4.58,2.62-7.71,4.12-9.41,4.51-1.31.39-3.46.39-6.47,0-3.01-.39-6.4-.91-10.19-1.57-9.93-1.57-19.5-2.84-28.71-3.82-9.21-.98-20.16-1.53-32.83-1.67-2.35,0-3.99-.39-4.9-1.18-.92-.78-.85-1.6.2-2.45,1.04-.85,2.74-1.27,5.09-1.27,49.39.52,81.93-.32,97.61-2.55m-176.6-15.48v-3.14c.26-6.92,1.67-13.33,4.22-19.21,2.55-5.88,7.18-10.88,13.92-14.99,6.73-4.12,16.1-6.17,28.13-6.17,12.93,0,22.51,2.35,28.71,7.06,6.2,4.7,10.03,9.93,11.47,15.68,1.44,5.75,2.16,12.22,2.16,19.4v125.05c0,.26-2.94.39-8.82.39s-8.82-.13-8.82-.39V60.89c-.13-6.79-.78-13-1.96-18.62-1.18-5.62-3.6-10.39-7.25-14.31-3.66-3.92-8.82-5.88-15.48-5.88s-11.7,1.8-15.88,5.39c-4.18,3.6-7.29,8.27-9.31,14.01-2.03,5.75-3.17,12.09-3.43,19.01v8.23c0,.26-2.94.39-8.82.39s-8.82-.13-8.82-.39v-6.08Z"/><path class="cls-5" d="m962.33,119.1c7.97-2.22,14.99-2.09,21.07.39,6.08,2.48,9.11,6.66,9.11,12.54v54.68c0,.26-2.94.39-8.82.39s-8.82-.13-8.82-.39v-54.68c0-4.57-1.6-7.35-4.8-8.33-3.2-.98-6.73-.85-10.58.39-3.86,1.24-6.24,2.45-7.15,3.63-.66.78-1.93,1.73-3.82,2.84-1.9,1.11-3.53,1.9-4.9,2.35-1.37.46-1.73.29-1.08-.49,5.23-6.66,11.82-11.1,19.8-13.33m-11.17,105.25v11.76c0,.78-2.88,6.01-8.62,15.68-5.75,9.67-8.62,14.24-8.62,13.72V118.32c0-.26,2.87-.39,8.62-.39s8.62.13,8.62.39v106.04Z"/><path class="cls-5" d="m1050.13,181.63c2.61-2.48,4.77-6.17,6.47-11.07,1.7-4.9,2.55-10.81,2.55-17.74s-.85-12.87-2.55-17.84c-1.7-4.96-3.85-8.72-6.47-11.27-2.61-2.55-5.23-3.82-7.84-3.82s-5.23,1.34-7.84,4.02c-2.62,2.68-4.77,6.5-6.47,11.47-1.7,4.97-2.55,10.78-2.55,17.44s.85,12.45,2.55,17.35c1.7,4.9,3.85,8.66,6.47,11.27,2.61,2.62,5.22,3.92,7.84,3.92s5.22-1.24,7.84-3.72m-26.36,1.86c-5.29-3.2-9.38-7.48-12.25-12.84-2.88-5.36-4.31-11.3-4.31-17.84s1.44-12.54,4.31-18.03c2.87-5.49,6.99-9.83,12.35-13.03,5.36-3.2,11.5-4.8,18.42-4.8s13.03,1.64,18.33,4.9c5.29,3.27,9.41,7.61,12.35,13.03,2.94,5.42,4.41,11.4,4.41,17.93s-1.47,12.48-4.41,17.84c-2.94,5.36-7.05,9.64-12.35,12.84-5.29,3.2-11.4,4.8-18.33,4.8s-13.23-1.6-18.52-4.8"/><path class="cls-5" d="m1087.08,224.75c1.89-3.01,5.13-7.06,9.7-12.15,5.22-5.75,9.6-11.04,13.13-15.88,13.06-17.51,18.68-32.47,16.85-44.88-.91-5.88-3.17-10.58-6.76-14.11-3.6-3.53-7.68-5.29-12.25-5.29-3.53,0-6.86,1.08-10,3.23-3.14,2.16-5.16,5.85-6.08,11.07-.13.26-.66.29-1.57.1-.92-.2-1.31-.49-1.18-.88.79-8.23,3.1-15.22,6.96-20.97,3.85-5.75,10.16-8.62,18.91-8.62,7.32,0,13.07,2.12,17.25,6.37,4.18,4.25,6.86,9.9,8.04,16.95,1.18,6.93.42,14.5-2.25,22.74-2.68,8.23-8.27,17.58-16.76,28.03-11.5,14.11-17.25,26.33-17.25,36.65,0,14.24,11.96,21.36,35.87,21.36h149.16c.26,0,.39.62.39,1.86s-.13,1.86-.39,1.86h-157.39c-14.38,0-25.84-1.18-34.4-3.53-8.56-2.35-12.84-7.12-12.84-14.31,0-3.4.95-6.6,2.84-9.6"/><path class="cls-5" d="m1245.34,183.98v2.74c0,.26-2.94.39-8.82.39s-8.82-.13-8.82-.39v-68.4c0-.26,2.94-.39,8.82-.39s8.82.13,8.82.39v65.66Zm-31.16-98c9.02-18.55,19.67-32.24,31.95-41.06,12.28-8.82,24.37-14.24,36.26-16.27,11.89-2.03,26.39-3.1,43.51-3.23,10.32,0,18.65-.29,24.99-.88,6.34-.59,12.22-2.09,17.64-4.51,5.42-2.42,9.83-6.24,13.23-11.47.91-1.57,2.48-4.38,4.7-8.43.26-.26.82-.13,1.67.39.85.52,1.14.92.88,1.18l-4.9,8.43c-5.49,9.41-12.18,16.43-20.09,21.07-7.91,4.64-16.14,7.61-24.7,8.92-8.56,1.31-19.57,2.22-33.03,2.74-15.16.52-27.67,1.64-37.53,3.33-9.87,1.7-19.44,5.72-28.71,12.05-9.28,6.34-17.05,16.04-23.32,29.11-2.22,4.44-4.44,8.95-6.66,13.52-.13.26-.59.13-1.37-.39-.78-.52-1.11-.91-.98-1.18l6.47-13.33Zm-4.12,92.12c0,2.88,1.18,4.48,3.53,4.8,2.35.33,5.03-.1,8.04-1.27,3.01-1.18,5.22-2.35,6.66-3.53,1.83-1.31,3.49-2.32,5-3.04,1.5-.72,2.29-.88,2.35-.49.06.39-.82,1.31-2.65,2.74-5.75,4.44-11.79,7.42-18.13,8.92-6.34,1.5-11.66,1.5-15.97,0-4.31-1.5-6.47-4.21-6.47-8.13v-59.78c0-.26,2.94-.39,8.82-.39s8.82.13,8.82.39v59.78Zm-35.28,0c0,2.88,1.18,4.48,3.53,4.8,2.35.33,5.03-.1,8.04-1.27,3-1.18,5.22-2.35,6.67-3.53,1.83-1.31,3.49-2.32,5-3.04,1.5-.72,2.29-.88,2.35-.49.06.39-.82,1.31-2.65,2.74-5.75,4.44-11.79,7.42-18.13,8.92-6.34,1.5-11.66,1.5-15.97,0-4.31-1.5-6.47-4.21-6.47-8.13v-59.78c0-.26,2.94-.39,8.82-.39s8.82.13,8.82.39v59.78Z"/><path class="cls-4" d="m111.93,136.74h1.57c.39,0-.88.92-3.82,2.74-2.94,1.83-6.01,3.66-9.21,5.49-3.2,1.83-5,2.74-5.39,2.74-.52-.13-.88-.23-1.08-.29-.19-.06-.56-.16-1.08-.29-3.4-1.18-7.38-2.22-11.96-3.14-4.58-.91-9.74-1.37-15.48-1.37-2.35,0-4.02-.39-5-1.18s-.98-1.6,0-2.45c.98-.85,2.65-1.27,5-1.27,13.98,0,29.46-.32,46.45-.98M.02,106.75v-2.16c-.13-6.4.42-12.08,1.67-17.05,1.24-4.96,4.6-9.47,10.09-13.52,5.49-4.05,14.04-6.08,25.68-6.08s20.19,2.03,25.68,6.08c5.49,4.05,8.85,8.56,10.09,13.52,1.24,4.97,1.79,10.65,1.67,17.05v81.73c0,.26-2.94.39-8.82.39s-8.82-.13-8.82-.39v-81.14c0-6.79-.33-12.48-.98-17.05-.65-4.57-2.42-8.59-5.29-12.05-2.88-3.46-7.38-5.19-13.52-5.19s-10.65,1.73-13.52,5.19c-2.88,3.46-4.64,7.48-5.29,12.05-.66,4.58-.98,10.26-.98,17.05v10.58c0,.26-2.94.39-8.82.39S.02,116.03.02,115.77v-9.02Z"/><path class="cls-4" d="m149.17,119.1c7.97-2.22,14.99-2.09,21.07.39,6.08,2.48,9.11,6.66,9.11,12.54v54.68c0,.26-2.94.39-8.82.39s-8.82-.13-8.82-.39v-54.68c0-4.57-1.6-7.35-4.8-8.33-3.2-.98-6.73-.85-10.58.39-3.85,1.24-6.24,2.45-7.15,3.63-.66.78-1.93,1.73-3.82,2.84-1.9,1.11-3.53,1.9-4.9,2.35-1.37.46-1.73.29-1.08-.49,5.22-6.66,11.82-11.1,19.8-13.33m-11.17,105.25v11.76c0,.78-2.88,6.01-8.62,15.68-5.75,9.67-8.62,14.24-8.62,13.72V118.32c0-.26,2.87-.39,8.62-.39s8.62.13,8.62.39v106.04Z"/><path class="cls-4" d="m236.98,181.63c2.61-2.48,4.77-6.17,6.47-11.07,1.7-4.9,2.55-10.81,2.55-17.74s-.85-12.87-2.55-17.84c-1.7-4.96-3.85-8.72-6.47-11.27-2.62-2.55-5.23-3.82-7.84-3.82s-5.23,1.34-7.84,4.02c-2.62,2.68-4.77,6.5-6.47,11.47-1.7,4.97-2.55,10.78-2.55,17.44s.85,12.45,2.55,17.35c1.7,4.9,3.85,8.66,6.47,11.27,2.61,2.62,5.22,3.92,7.84,3.92s5.22-1.24,7.84-3.72m-26.36,1.86c-5.29-3.2-9.38-7.48-12.25-12.84-2.88-5.36-4.31-11.3-4.31-17.84s1.44-12.54,4.31-18.03c2.87-5.49,6.99-9.83,12.35-13.03,5.36-3.2,11.5-4.8,18.42-4.8s13.04,1.64,18.33,4.9c5.29,3.27,9.41,7.61,12.35,13.03,2.94,5.42,4.41,11.4,4.41,17.93s-1.47,12.48-4.41,17.84c-2.94,5.36-7.05,9.64-12.35,12.84-5.29,3.2-11.4,4.8-18.33,4.8s-13.23-1.6-18.52-4.8"/><path class="cls-4" d="m273.93,224.75c1.89-3.01,5.13-7.06,9.7-12.15,5.23-5.75,9.6-11.04,13.13-15.88,13.06-17.51,18.68-32.47,16.86-44.88-.92-5.88-3.17-10.58-6.76-14.11-3.6-3.53-7.68-5.29-12.25-5.29-3.53,0-6.86,1.08-10,3.23-3.14,2.16-5.16,5.85-6.08,11.07-.13.26-.65.29-1.57.1-.92-.2-1.31-.49-1.18-.88.79-8.23,3.1-15.22,6.96-20.97,3.85-5.75,10.16-8.62,18.91-8.62,7.32,0,13.07,2.12,17.25,6.37,4.18,4.25,6.86,9.9,8.04,16.95,1.17,6.93.42,14.5-2.25,22.74-2.68,8.23-8.27,17.58-16.76,28.03-11.5,14.11-17.25,26.33-17.25,36.65,0,14.24,11.96,21.36,35.87,21.36h13.92c.26,0,.39.62.39,1.86s-.13,1.86-.39,1.86h-22.15c-14.38,0-25.84-1.18-34.4-3.53-8.56-2.35-12.84-7.12-12.84-14.31,0-3.4.95-6.6,2.84-9.6"/><path class="cls-4" d="m432.19,183.98v2.74c0,.26-2.94.39-8.82.39s-8.82-.13-8.82-.39v-68.4c0-.26,2.94-.39,8.82-.39s8.82.13,8.82.39v65.66Zm-34.69-89.77c3.92-6.66,7.45-11.6,10.58-14.8,3.14-3.2,5.81-5.16,8.04-5.88,2.22-.72,4.7-1.01,7.45-.88,1.7,0,3.04-.07,4.02-.2.98-.13,2.02-.62,3.14-1.47,1.11-.85,2.19-2.19,3.23-4.02.78-1.57,2.42-4.38,4.9-8.43.13-.26.59-.13,1.37.39.78.52,1.11.92.98,1.18l-4.9,8.43c-3.01,5.23-5.82,9.11-8.43,11.66-2.61,2.55-4.9,4.18-6.86,4.9-1.96.72-4.31,1.15-7.06,1.27-2.09.13-3.79.36-5.1.69-1.31.33-2.74,1.14-4.31,2.45-1.57,1.31-3.14,3.4-4.7,6.27-.92,1.7-1.9,3.4-2.94,5.1-.13.26-.59.13-1.37-.39-.78-.52-1.11-.91-.98-1.18l2.94-5.1Zm-.59,83.89c0,2.88,1.18,4.48,3.53,4.8,2.35.33,5.03-.1,8.04-1.27,3.01-1.18,5.22-2.35,6.66-3.53,1.83-1.31,3.49-2.32,5-3.04,1.5-.72,2.29-.88,2.35-.49.06.39-.82,1.31-2.65,2.74-5.75,4.44-11.79,7.42-18.13,8.92-6.34,1.5-11.66,1.5-15.97,0-4.31-1.5-6.47-4.21-6.47-8.13v-59.78c0-.26,2.94-.39,8.82-.39s8.82.13,8.82.39v59.78Zm-35.28,0c0,2.88,1.18,4.48,3.53,4.8,2.35.33,5.03-.1,8.04-1.27,3-1.18,5.23-2.35,6.67-3.53,1.83-1.31,3.49-2.32,5-3.04,1.5-.72,2.28-.88,2.35-.49.07.39-.82,1.31-2.65,2.74-5.75,4.44-11.79,7.42-18.13,8.92-6.34,1.5-11.66,1.5-15.97,0-4.31-1.5-6.47-4.21-6.47-8.13v-59.78c0-.26,2.94-.39,8.82-.39s8.82.13,8.82.39v59.78Z"/><path class="cls-4" d="m508.24,224.35v11.76c0,.78-2.88,6.01-8.62,15.68-5.75,9.67-8.62,14.24-8.62,13.72V118.32c0-.26,2.87-.39,8.62-.39s8.62.13,8.62.39v106.04Zm-40.77-49.59c0,3.79,2.16,5.85,6.47,6.17,4.31.33,9.08-.46,14.31-2.35,5.23-1.89,8.62-3.82,10.19-5.78.91-1.7,2.12-3.26,3.63-4.7,1.5-1.44,2.61-2.25,3.33-2.45.72-.2.62.49-.29,2.06-6.54,9.28-14.05,15.26-22.54,17.93-8.5,2.68-16.01,2.68-22.54,0-6.54-2.68-9.8-6.3-9.8-10.88V59.52c0-.26,2.87-.39,8.62-.39s8.62.13,8.62.39v115.25Z"/></g><rect class="cls-3" x="640.72" y="117.38" width="32.37" height="69.15"/><rect class="cls-3" x="589.89" y="117.38" width="32.37" height="69.15"/><rect class="cls-3" x="691.55" y="117.38" width="63.29" height="69.15"/><polygon class="cls-3" points="749.94 245.51 749.94 58.41 803.38 151.96 749.94 245.51"/></g></svg>