<?xml version="1.0" encoding="UTF-8"?><svg id="_图层_2" xmlns="http://www.w3.org/2000/svg" xmlns:xlink="http://www.w3.org/1999/xlink" viewBox="0 0 2874.31 817.71"><defs><style>.cls-1{clip-path:url(#clippath);}.cls-2,.cls-3{fill:none;}.cls-2,.cls-4,.cls-5,.cls-6,.cls-7{stroke-width:0px;}.cls-8{clip-path:url(#clippath-1);}.cls-9{clip-path:url(#clippath-3);}.cls-10{clip-path:url(#clippath-2);}.cls-3{stroke:#e25a7e;stroke-width:.28px;}.cls-4{fill:#f9eadb;}.cls-5{fill:#2a282c;}.cls-6{fill:#e25a7e;}.cls-7{fill:#d45978;}</style><clipPath id="clippath"><rect class="cls-2" width="1342.87" height="817.71"/></clipPath><clipPath id="clippath-1"><rect class="cls-2" width="1342.87" height="817.71"/></clipPath><clipPath id="clippath-2"><rect class="cls-2" width="1342.87" height="817.71"/></clipPath><clipPath id="clippath-3"><rect class="cls-2" width="1342.87" height="817.71"/></clipPath></defs><g id="_图层_1-2"><rect class="cls-6" x="49.1" y="304.84" width="162.49" height="162.49"/><g class="cls-1"><path class="cls-4" d="m137.87,405.99c2.17-1.91,3.44-2.74,3.83-2.49,6.63,2.81,10.72,4.59,12.25,5.36l.77.38-4.21,2.87,4.59-4.4c1.66-1.53,2.87-2.42,3.64-2.68.77-.26.83.1.19,1.05-.64.96-1.79,2.27-3.44,3.92l-4.59,4.4c-.77.77-1.6,1.47-2.49,2.11-.89.64-1.47.89-1.72.76-.26-.13-.51-.25-.77-.38-6.63-2.8-10.72-4.59-12.25-5.36l3.83-2.49-6.31,5.93c-1.66,1.53-2.81,2.36-3.44,2.49-.64.13-.57-.38.19-1.53.77-1.15,1.98-2.49,3.64-4.02l6.32-5.93Zm-7.65,8.61v2.68c0,.25-2.87.38-8.61.38s-8.61-.13-8.61-.38v-66.78c0-.25,2.87-.38,8.61-.38s8.61.13,8.61.38v64.11Z"/></g><rect class="cls-6" x="468.53" width="162.49" height="162.49"/><rect class="cls-6" x="468.53" y="406.45" width="162.49" height="162.49"/><g class="cls-8"><path class="cls-4" d="m546.53,506.27c2.3-2.04,3.64-2.93,4.02-2.68,3.57,2.3,7.08,4.59,10.52,6.89l.96.38-4.4,3.06,30.62-29.66c1.66-1.66,2.9-2.65,3.73-2.97.83-.32.96,0,.38.96-.58.96-1.69,2.27-3.35,3.92l-30.62,29.66c-.89.89-1.79,1.66-2.68,2.3-.89.64-1.47.89-1.72.76-.13,0-.45-.13-.96-.38-3.45-2.3-6.96-4.59-10.53-6.89l4.02-2.68-7.84,7.46c-1.66,1.66-2.81,2.55-3.45,2.68-.64.13-.64-.35,0-1.43.64-1.08,1.79-2.39,3.45-3.92l7.84-7.46Zm-8.99,9.95v2.68c0,.25-2.87.38-8.61.38s-8.61-.13-8.61-.38v-66.79c0-.25,2.87-.38,8.61-.38s8.61.13,8.61.38v64.11Z"/></g><rect class="cls-6" x="468.53" y="609.68" width="484.57" height="162.49"/><g class="cls-10"><path class="cls-4" d="m552.24,708.34c2.17-1.91,3.45-2.74,3.83-2.49,8.29,4.59,13.14,7.34,14.54,8.23l321.49-.19-4.02,3.06,4.59-4.4c1.66-1.53,2.87-2.42,3.64-2.68.77-.25.83.1.19,1.05-.64.96-1.79,2.27-3.45,3.92l-4.59,4.4c-.77.76-1.53,1.44-2.3,2.01-.77.57-1.34.93-1.72,1.05-107.29,0-214.58-.06-321.87-.19-8.29-4.59-13.14-7.33-14.54-8.23l3.83-2.49-8.99,8.42c-1.66,1.53-2.81,2.36-3.44,2.49-.64.13-.57-.38.19-1.53.77-1.15,1.98-2.49,3.64-4.02l8.99-8.42Zm-10.33,11.1v2.68c0,.25-2.87.38-8.61.38s-8.61-.13-8.61-.38v-66.79c0-.25,2.87-.38,8.61-.38s8.61.13,8.61.38v64.11Z"/></g><rect class="cls-6" x="468.53" y="203.23" width="162.49" height="162.49"/><g class="cls-9"><path class="cls-4" d="m561.45,249.02c.19-.38-16.92-.95-17.11,0-5.89,22.05-11.79,44.29-17.68,66.34-.19.38,16.92.95,17.11,0,5.89-22.05,11.78-44.29,17.68-66.34m-15.97,61.78c-5.51,4.56-4.37,6.27,1.52,1.33,2.28-1.9,4.56-3.8,7.03-5.89-1.71,1.14-3.42,2.09-5.13,3.04,3.61,1.9,7.22,3.8,11.02,5.7.19,0,.57.19.76.38.57.19,3.23-1.52,5.51-3.23,2.47-2.28,4.94-4.56,7.6-6.65,5.51-4.94,3.42-5.89-2.09-1.14-2.66,2.28-5.13,4.56-7.79,6.65,1.9-.95,3.61-2.09,5.51-3.23-.38,0-.76-.19-.95-.38-3.61-1.71-7.22-3.61-11.03-5.51-.38-.19-2.85,1.14-4.94,3.04-2.47,1.9-4.75,3.8-7.03,5.89"/><path class="cls-4" d="m543.86,110.86c-1.34,1.15-.96,2.48.19,1.34,2.29-2.1,4.4-4.2,6.69-6.31-.38.19-.76.38-1.15.57,4.39,1.91,8.79,4.01,12.99,6.11.19,0,.76-.19,1.15-.57,3.44-3.25,6.69-6.5,10.13-9.94,1.34-1.15.95-2.48-.38-1.15-3.44,3.25-6.69,6.5-10.13,9.94.38-.19.76-.38,1.15-.57-4.39-2.1-8.79-4.01-13.18-6.12-.19-.19-.57.19-.95.38-2.1,2.1-4.4,4.2-6.5,6.3m-.38-65.16c0-.57-4.59-.57-4.59,0v66.69c0,.57,4.59.57,4.59,0V45.71Z"/></g><line class="cls-3" x1="211.51" y1="386.08" x2="468.51" y2="54.26"/><line class="cls-3" x1="211.45" y1="386.02" x2="468.58" y2="289.5"/><line class="cls-3" x1="211.51" y1="386.17" x2="468.51" y2="718"/><line class="cls-3" x1="211.45" y1="386.23" x2="468.58" y2="482.75"/><path class="cls-7" d="m666.35,558.63l2.69-3.02c2.5,2.64,6.05,4.37,9.7,4.37,4.61,0,7.39-2.3,7.39-5.76s-2.54-4.75-5.86-6.24l-5.09-2.21c-3.26-1.39-7.15-3.89-7.15-9.02,0-5.42,4.7-9.36,11.09-9.36,4.18,0,7.87,1.78,10.37,4.37l-2.35,2.83c-2.16-2.02-4.75-3.31-8.02-3.31-3.98,0-6.58,2.02-6.58,5.18,0,3.41,3.07,4.7,5.81,5.86l5.04,2.16c4.08,1.78,7.25,4.18,7.25,9.41,0,5.57-4.61,9.98-11.95,9.98-4.99,0-9.27-2.02-12.34-5.23Z"/><path class="cls-7" d="m694.05,537.17h4.46l3.89,15.07c.53,2.5,1.06,4.85,1.54,7.3h.24c.58-2.45,1.1-4.85,1.78-7.3l4.03-15.07h4.27l4.08,15.07c.62,2.5,1.2,4.85,1.82,7.3h.19c.58-2.45,1.06-4.8,1.63-7.3l3.84-15.07h4.13l-7.01,26.07h-5.28l-3.79-14.07c-.67-2.45-1.15-4.85-1.78-7.49h-.24c-.58,2.64-1.1,5.09-1.78,7.58l-3.65,13.97h-5.14l-7.25-26.07Z"/><path class="cls-7" d="m733.55,556.47c0-5.66,4.94-8.5,16.03-9.75,0-3.36-1.1-6.58-5.38-6.58-3.02,0-5.76,1.39-7.83,2.78l-1.73-3.02c2.4-1.54,6.1-3.41,10.27-3.41,6.34,0,9.02,4.27,9.02,10.71v16.03h-3.6l-.38-3.12h-.14c-2.5,2.06-5.42,3.74-8.64,3.74-4.37,0-7.63-2.69-7.63-7.39Zm16.03.43v-7.3c-8.78,1.06-11.76,3.22-11.76,6.58,0,2.98,2.02,4.18,4.61,4.18s4.61-1.2,7.15-3.46Z"/><path class="cls-7" d="m759.33,560.26l2.16-2.88c2.26,1.82,4.61,3.07,7.73,3.07,3.46,0,5.14-1.82,5.14-4.08,0-2.69-3.07-3.84-5.95-4.94-3.65-1.34-7.63-3.12-7.63-7.54,0-4.13,3.36-7.39,9.02-7.39,3.22,0,6.05,1.34,8.06,2.93l-2.11,2.83c-1.78-1.34-3.6-2.3-5.9-2.3-3.31,0-4.85,1.73-4.85,3.74,0,2.5,2.69,3.41,5.62,4.51,3.79,1.44,7.97,2.98,7.97,7.92,0,4.22-3.36,7.73-9.5,7.73-3.7,0-7.25-1.54-9.75-3.6Z"/><path class="cls-7" d="m784.72,525.03h4.37v10.46l-.14,5.38c2.4-2.4,5.09-4.37,8.64-4.37,5.47,0,7.97,3.55,7.97,10.22v16.51h-4.37v-15.94c0-4.9-1.49-6.96-4.94-6.96-2.69,0-4.51,1.34-7.15,3.98v18.91h-4.37v-38.21Z"/><path class="cls-7" d="m811.65,548.12h12.29v3.36h-12.29v-3.36Z"/><path class="cls-7" d="m828.45,546.01c0-11.47,4.18-17.62,10.99-17.62s10.95,6.19,10.95,17.62-4.13,17.86-10.95,17.86-10.99-6.38-10.99-17.86Zm17.67,0c0-10.03-2.69-14.11-6.67-14.11s-6.72,4.08-6.72,14.11,2.69,14.35,6.72,14.35,6.67-4.32,6.67-14.35Z"/><path class="cls-7" d="m856.96,559.59h7.82v-25.25h-6.24v-2.83c3.12-.53,5.38-1.34,7.3-2.5h3.36v30.58h7.06v3.65h-19.3v-3.65Z"/><path class="cls-7" d="m666.88,345.37c0-11.28,6.19-18.15,15.03-18.15s15.03,6.86,15.03,18.15-6.19,18.34-15.03,18.34-15.03-7.06-15.03-18.34Zm25.49,0c0-8.83-4.18-14.26-10.46-14.26s-10.46,5.42-10.46,14.26,4.13,14.45,10.46,14.45,10.46-5.67,10.46-14.45Z"/><path class="cls-7" d="m708.21,360.39h-.19l-.38,2.69h-3.5v-38.21h4.37v10.46l-.14,4.7c2.35-2.06,5.28-3.7,8.16-3.7,6.77,0,10.42,5.28,10.42,13.25,0,8.98-5.33,14.11-11.33,14.11-2.4,0-5.14-1.25-7.39-3.31Zm14.16-10.7c0-5.76-1.92-9.65-6.87-9.65-2.21,0-4.51,1.25-7.01,3.6v13.68c2.3,2.02,4.66,2.74,6.38,2.74,4.32,0,7.49-3.89,7.49-10.37Z"/><path class="cls-7" d="m733.79,357.89v-33.03h4.37v33.31c0,1.34.58,1.87,1.25,1.87.24,0,.43,0,.91-.1l.62,3.36c-.62.24-1.34.38-2.54.38-3.26,0-4.61-2.11-4.61-5.81Z"/><path class="cls-7" d="m746.75,328.71c0-1.68,1.2-2.83,2.93-2.83s2.93,1.15,2.93,2.83c0,1.78-1.2,2.93-2.93,2.93s-2.93-1.15-2.93-2.93Zm.72,8.3h4.37v26.07h-4.37v-26.07Z"/><path class="cls-7" d="m777.23,364.81l.19-4.75c-2.11,2.06-4.85,3.65-7.87,3.65-6.53,0-10.75-4.94-10.75-13.63s5.33-13.73,11.28-13.73c3.02,0,5.18,1.1,7.44,3.17h.14l.43-2.5h3.46v37.06h-4.32v-9.26Zm0-8.35v-13.68c-2.26-1.97-4.22-2.74-6.38-2.74-4.22,0-7.54,4.03-7.54,9.99,0,6.29,2.59,10.03,7.2,10.03,2.4,0,4.51-1.2,6.72-3.6Z"/><path class="cls-7" d="m790.09,353.53v-16.51h4.37v15.99c0,4.85,1.44,6.91,4.9,6.91,2.69,0,4.56-1.3,7.06-4.42v-18.48h4.37v26.07h-3.65l-.34-4.08h-.14c-2.45,2.83-5.04,4.7-8.64,4.7-5.47,0-7.92-3.55-7.92-10.18Z"/><path class="cls-7" d="m817.6,350.07c0-8.45,5.71-13.73,11.76-13.73,6.62,0,10.37,4.8,10.37,12.24,0,.96-.1,1.87-.19,2.5h-17.57c.29,5.57,3.7,9.12,8.64,9.12,2.54,0,4.61-.77,6.53-2.06l1.58,2.88c-2.3,1.49-5.09,2.69-8.64,2.69-6.91,0-12.48-5.04-12.48-13.63Zm18.29-2.16c0-5.23-2.4-8.06-6.48-8.06-3.7,0-6.96,2.98-7.49,8.06h13.97Z"/><path class="cls-7" d="m676.24,127.73h-10.66v-3.79h25.78v3.79h-10.66v31.44h-4.46v-31.44Z"/><path class="cls-7" d="m697.26,120.96h4.37v10.46l-.14,5.38c2.4-2.4,5.09-4.37,8.64-4.37,5.47,0,7.97,3.55,7.97,10.22v16.51h-4.37v-15.94c0-4.9-1.49-6.96-4.94-6.96-2.69,0-4.51,1.34-7.15,3.98v18.91h-4.37v-38.21Z"/><path class="cls-7" d="m725.68,124.8c0-1.68,1.2-2.83,2.93-2.83s2.93,1.15,2.93,2.83c0,1.78-1.2,2.93-2.93,2.93s-2.93-1.15-2.93-2.93Zm.72,8.3h4.37v26.07h-4.37v-26.07Z"/><path class="cls-7" d="m739.6,133.11h3.6l.38,3.75h.14c2.5-2.45,5.18-4.42,8.74-4.42,5.47,0,7.97,3.55,7.97,10.22v16.51h-4.37v-15.94c0-4.9-1.49-6.96-4.94-6.96-2.69,0-4.51,1.34-7.15,3.98v18.91h-4.37v-26.07Z"/><path class="cls-7" d="m53.87,248.36h10.46c7.15,0,12.1,2.45,12.1,8.64,0,3.5-1.87,6.58-5.14,7.63v.24c4.18.82,7.15,3.6,7.15,8.4,0,6.91-5.47,10.32-13.35,10.32h-11.23v-35.23Zm9.7,15.02c6.05,0,8.5-2.26,8.5-5.81,0-4.13-2.83-5.67-8.3-5.67h-5.42v11.47h5.23Zm.91,16.66c6.05,0,9.6-2.16,9.6-6.91,0-4.37-3.46-6.38-9.6-6.38h-6.14v13.3h6.14Z"/><path class="cls-7" d="m83.06,270.58c0-8.69,5.71-13.73,12.1-13.73s12.1,5.04,12.1,13.73-5.71,13.63-12.1,13.63-12.1-4.99-12.1-13.63Zm19.68,0c0-6-3.07-10.08-7.58-10.08s-7.54,4.08-7.54,10.08,3.02,9.98,7.54,9.98,7.58-3.98,7.58-9.98Z"/><path class="cls-7" d="m114.11,278.41v-33.03h4.37v33.31c0,1.34.58,1.87,1.25,1.87.24,0,.43,0,.91-.1l.62,3.36c-.62.24-1.34.38-2.54.38-3.26,0-4.61-2.11-4.61-5.81Z"/><path class="cls-7" d="m125.92,270.58c0-8.45,5.33-13.73,11.28-13.73,3.07,0,5.04,1.15,7.34,3.07l-.19-4.51v-10.03h4.32v38.21h-3.55l-.38-3.07h-.14c-2.06,2.02-4.8,3.7-7.92,3.7-6.53,0-10.75-4.94-10.75-13.63Zm18.43,6.38v-13.68c-2.26-1.97-4.22-2.74-6.38-2.74-4.22,0-7.54,4.03-7.54,9.99,0,6.29,2.59,10.03,7.2,10.03,2.4,0,4.51-1.2,6.72-3.6Z"/><path class="cls-7" d="m988.34,761.77l2.69-3.02c2.5,2.64,6.05,4.37,9.7,4.37,4.61,0,7.39-2.3,7.39-5.76s-2.54-4.75-5.86-6.24l-5.09-2.21c-3.26-1.39-7.15-3.89-7.15-9.02,0-5.42,4.7-9.36,11.09-9.36,4.18,0,7.87,1.78,10.37,4.37l-2.35,2.83c-2.16-2.02-4.75-3.31-8.02-3.31-3.98,0-6.58,2.02-6.58,5.18,0,3.41,3.07,4.7,5.81,5.86l5.04,2.16c4.08,1.78,7.25,4.18,7.25,9.41,0,5.57-4.61,9.98-11.95,9.98-4.99,0-9.27-2.02-12.34-5.23Z"/><path class="cls-7" d="m1016.03,740.31h4.46l3.89,15.07c.53,2.5,1.06,4.85,1.54,7.3h.24c.58-2.45,1.1-4.85,1.78-7.3l4.03-15.07h4.27l4.08,15.07c.62,2.5,1.2,4.85,1.82,7.3h.19c.58-2.45,1.06-4.8,1.63-7.3l3.84-15.07h4.13l-7.01,26.07h-5.28l-3.79-14.07c-.67-2.45-1.15-4.85-1.78-7.49h-.24c-.58,2.64-1.1,5.09-1.78,7.58l-3.65,13.97h-5.14l-7.25-26.07Z"/><path class="cls-7" d="m1055.54,759.61c0-5.66,4.94-8.5,16.03-9.75,0-3.36-1.1-6.58-5.38-6.58-3.02,0-5.76,1.39-7.83,2.78l-1.73-3.02c2.4-1.54,6.1-3.41,10.27-3.41,6.34,0,9.02,4.27,9.02,10.71v16.03h-3.6l-.38-3.12h-.14c-2.5,2.06-5.42,3.74-8.64,3.74-4.37,0-7.63-2.69-7.63-7.39Zm16.03.43v-7.3c-8.78,1.06-11.76,3.22-11.76,6.58,0,2.98,2.02,4.18,4.61,4.18s4.61-1.2,7.15-3.46Z"/><path class="cls-7" d="m1081.31,763.4l2.16-2.88c2.26,1.82,4.61,3.07,7.73,3.07,3.46,0,5.14-1.82,5.14-4.08,0-2.69-3.07-3.84-5.95-4.94-3.65-1.34-7.63-3.12-7.63-7.54,0-4.13,3.36-7.39,9.02-7.39,3.22,0,6.05,1.34,8.06,2.93l-2.11,2.83c-1.78-1.34-3.6-2.3-5.9-2.3-3.31,0-4.85,1.73-4.85,3.74,0,2.5,2.69,3.41,5.62,4.51,3.79,1.44,7.97,2.98,7.97,7.92,0,4.22-3.36,7.73-9.5,7.73-3.7,0-7.25-1.54-9.75-3.6Z"/><path class="cls-7" d="m1106.7,728.16h4.37v10.46l-.14,5.38c2.4-2.4,5.09-4.37,8.64-4.37,5.47,0,7.97,3.55,7.97,10.22v16.51h-4.37v-15.94c0-4.9-1.49-6.96-4.94-6.96-2.69,0-4.51,1.34-7.15,3.98v18.91h-4.37v-38.21Z"/><path class="cls-7" d="m1133.63,751.25h12.29v3.36h-12.29v-3.36Z"/><path class="cls-7" d="m1150.43,749.14c0-11.47,4.18-17.62,10.99-17.62s10.95,6.19,10.95,17.62-4.13,17.86-10.95,17.86-10.99-6.38-10.99-17.86Zm17.67,0c0-10.03-2.69-14.11-6.67-14.11s-6.72,4.08-6.72,14.11,2.69,14.35,6.72,14.35,6.67-4.32,6.67-14.35Z"/><path class="cls-7" d="m1176.83,763.78c10.32-10.27,16.13-16.42,16.13-22.03,0-3.89-2.11-6.67-6.48-6.67-2.88,0-5.38,1.82-7.3,4.08l-2.54-2.45c2.88-3.12,5.9-5.18,10.37-5.18,6.29,0,10.22,3.98,10.22,10.03,0,6.43-5.86,12.82-13.97,21.36,1.82-.14,3.94-.34,5.76-.34h9.94v3.79h-22.13v-2.59Z"/><path class="cls-5" d="m1490.88,34.89c-2.21-2.5-5.23-3.74-9.07-3.74-5.09,0-9.27,1.18-12.53,3.53-3.26,2.35-4.9,5.16-4.9,8.42,0,2.11,1.3,4.3,3.89,6.55,2.59,2.26,6.72,5.16,12.38,8.71l6.62,4.46c7.78,5.28,13.66,10.44,17.64,15.48,3.98,5.04,5.98,10.15,5.98,15.34,0,6.62-2.3,12.05-6.91,16.27-4.61,4.23-11.04,6.34-19.3,6.34-5.95,0-11.54-1.13-16.78-3.38-5.23-2.25-9.5-5.18-12.82-8.78s-5.26-7.17-5.83-10.73c-.1-.19,2.38-.31,7.42-.36,5.04-.05,7.61.07,7.7.36,1.92,13.82,8.69,20.74,20.3,20.74,4.32,0,8.09-.72,11.3-2.16,3.21-1.44,5.69-3.26,7.42-5.47,1.73-2.21,2.59-4.46,2.59-6.77,0-2.88-1.46-5.64-4.39-8.28-2.93-2.64-7.9-6.26-14.9-10.87-2.69-1.73-5.09-3.31-7.2-4.75-7.68-5.09-12.94-9.58-15.77-13.46-2.83-3.89-4.25-8.28-4.25-13.18,0-6.14,2.04-11.04,6.12-14.69,4.08-3.65,9.48-5.47,16.2-5.47,7.78,0,14.33,1.73,19.66,5.18s8.47,8.11,9.43,13.97c0,.19-2.52.31-7.56.36-5.04.05-7.56-.07-7.56-.36-1.06-6.34-2.69-10.75-4.9-13.25Z"/><path class="cls-5" d="m1535.09,109.19c0,1.73,1.3,2.64,3.89,2.74,2.59.1,5.47-.41,8.64-1.51,3.17-1.1,5.28-2.23,6.34-3.38,1.15-1.25,2.21-2.21,3.17-2.88.96-.67,1.49-.86,1.58-.58.09.29-.43,1.06-1.58,2.3-4.42,4.9-9.34,8.02-14.76,9.36-5.42,1.34-10.15,1.3-14.18-.14-4.03-1.44-6.05-3.41-6.05-5.9v-43.92c0-.19,2.16-.29,6.48-.29s6.48.1,6.48.29v43.92Zm29.66,36.58v16.56c0,.58-1.03.98-3.1,1.22-2.07.24-4.1.24-6.12,0-2.02-.24-3.02-.65-3.02-1.22l-.14-16.56.14-123.7c0-.19,2.04-.29,6.12-.29s6.12.1,6.12.29v123.7Zm14.98,15.12c5.38,0,9.55.58,12.53,1.73,2.97,1.15,4.99,2.52,6.05,4.1,1.06,1.58,1.58,3.14,1.58,4.68,0,.09-1.08.17-3.24.22-2.16.05-4.32.05-6.48,0-2.16-.05-3.24-.12-3.24-.22,0-2.02-.19-3.55-.58-4.61-.38-1.06-1.1-1.82-2.16-2.3-1.06-.48-2.54-.72-4.46-.72h-21.31c-1.73,0-2.95-.24-3.67-.72-.72-.48-.72-.96,0-1.44.72-.48,1.94-.72,3.67-.72h21.31Z"/><path class="cls-5" d="m1578.72,102.14v-36.86c0-.19,2.11-.29,6.34-.29s6.34.1,6.34.29v75.89c-.29,4.51-.99,8.23-2.09,11.16-1.1,2.93-2.95,5.52-5.54,7.78-2.59,2.25-6.19,4.3-10.8,6.12-7.49,3.07-15.46,4.85-23.9,5.33-.77.09-1.42.09-1.94,0-.53-.1-.7-.22-.5-.36.19-.14.72-.31,1.58-.5,4.71-1.25,8.69-2.52,11.95-3.82,3.26-1.3,6.1-2.86,8.5-4.68,2.98-2.21,5.3-5.02,6.98-8.42,1.68-3.41,2.71-7.61,3.1-12.6v-39.02Z"/><path class="cls-5" d="m1617.6,109.19c0,2.11.86,3.29,2.59,3.53,1.73.24,3.69-.07,5.9-.94,2.21-.86,3.84-1.73,4.9-2.59,1.34-.96,2.57-1.7,3.67-2.23,1.1-.53,1.68-.65,1.73-.36.05.29-.6.96-1.94,2.02-4.23,3.26-8.67,5.45-13.32,6.55-4.66,1.1-8.57,1.1-11.74,0s-4.75-3.1-4.75-5.98v-43.92c0-.19,2.16-.29,6.48-.29s6.48.1,6.48.29v43.92Zm25.92,0c0,2.11.86,3.29,2.59,3.53,1.73.24,3.69-.07,5.9-.94,2.21-.86,3.84-1.73,4.9-2.59,1.34-.96,2.57-1.7,3.67-2.23,1.1-.53,1.68-.65,1.73-.36.05.29-.6.96-1.94,2.02-4.23,3.26-8.66,5.45-13.32,6.55-4.66,1.1-8.57,1.1-11.74,0s-4.75-3.1-4.75-5.98v-43.92c0-.19,2.16-.29,6.48-.29s6.48.1,6.48.29v43.92Zm25.92,4.32v2.02c0,.19-2.16.29-6.48.29s-6.48-.1-6.48-.29v-50.26c0-.19,2.16-.29,6.48-.29s6.48.1,6.48.29v48.24Z"/><path class="cls-5" d="m1695.22,146.2c0,2.5.26,4.75.79,6.77.53,2.02,1.89,3.84,4.1,5.47,2.21,1.63,5.57,2.45,10.08,2.45h5.62c.19,0,.29.46.29,1.37s-.1,1.37-.29,1.37h-7.06c-4.71-.1-8.98-.62-12.82-1.58-3.84-.96-7.01-2.71-9.5-5.26-2.5-2.54-3.74-6.07-3.74-10.58v-80.93c0-.19,2.09-.29,6.26-.29s6.26.1,6.26.29v80.93Z"/><path class="cls-5" d="m1726.25,111.21c3.22.29,6.74-.26,10.58-1.66,3.84-1.39,6.29-2.85,7.34-4.39.67-1.15,1.56-2.25,2.66-3.31,1.1-1.05,1.92-1.66,2.45-1.8.53-.14.46.41-.22,1.66-4.8,6.82-10.35,11.18-16.63,13.1-6.29,1.92-11.81,1.92-16.56,0-4.75-1.92-7.13-4.61-7.13-8.06V24.66c.19,0,.29.1.29.29h-21.17c-.09,0-.19-.26-.29-.79-.09-.53-.09-1.06,0-1.58.1-.53.19-.79.29-.79h33.55v84.96c0,2.69,1.61,4.18,4.82,4.46Zm25.13,2.3v2.02c0,.19-2.16.29-6.48.29s-6.48-.1-6.48-.29v-50.26c0-.19,2.16-.29,6.48-.29s6.48.1,6.48.29v48.24Z"/><path class="cls-5" d="m1777.29,106.74c0,2.79,1.58,4.3,4.75,4.54,3.17.24,6.67-.33,10.51-1.73,3.84-1.39,6.34-2.81,7.49-4.25.67-1.25,1.56-2.4,2.66-3.46,1.1-1.05,1.92-1.66,2.45-1.8.53-.14.46.36-.22,1.51-4.8,6.82-10.32,11.21-16.56,13.18-6.24,1.97-11.76,1.97-16.56,0-4.8-1.97-7.2-4.63-7.2-7.99V22.07c0-.19,2.11-.29,6.34-.29s6.34.1,6.34.29v84.67Zm9.29-42.05h23.83c.19,0,.29.53.29,1.58s-.1,1.58-.29,1.58h-38.16c-.19,0-.29-.53-.29-1.58s.09-1.58.29-1.58h14.33Zm20.66,49.54v1.3c0,.19-2.16.29-6.48.29s-6.48-.1-6.48-.29v-33.41c0-.19,2.16-.29,6.48-.29s6.48.1,6.48.29v32.11Z"/><path class="cls-5" d="m1833.16,143.18v8.64c0,.58-2.11,4.41-6.34,11.52-4.22,7.1-6.34,10.46-6.34,10.08v-108.14c0-.19,2.11-.29,6.34-.29s6.34.1,6.34.29v77.9Zm8.21-77.33c5.85-1.63,11.02-1.53,15.48.29,4.46,1.83,6.7,4.9,6.7,9.22v40.18c0,.19-2.16.29-6.48.29s-6.48-.1-6.48-.29v-40.18c0-3.36-1.18-5.4-3.53-6.12-2.35-.72-4.95-.62-7.78.29-2.83.91-4.58,1.8-5.26,2.66-.48.58-1.42,1.27-2.81,2.09-1.39.82-2.59,1.39-3.6,1.73-1.01.34-1.27.22-.79-.36,3.84-4.9,8.69-8.16,14.54-9.79Z"/><path class="cls-5" d="m1889.32,140.15v11.66c0,.58-2.07,4.41-6.19,11.52-4.13,7.1-6.19,10.46-6.19,10.08V22.07c0-.19,2.06-.29,6.19-.29s6.19.1,6.19.29v118.08Zm8.35-74.3c5.85-1.63,11.02-1.53,15.48.29,4.46,1.83,6.7,4.9,6.7,9.22v40.18c0,.19-2.16.29-6.48.29s-6.48-.1-6.48-.29v-40.18c0-3.36-1.18-5.4-3.53-6.12-2.35-.72-4.95-.62-7.78.29-2.83.91-4.58,1.8-5.26,2.66-.48.58-1.42,1.27-2.81,2.09-1.39.82-2.59,1.39-3.6,1.73-1.01.34-1.27.22-.79-.36,3.84-4.9,8.69-8.16,14.54-9.79Z"/><path class="cls-5" d="m1467.26,725.51v8.64c0,.58-2.11,4.42-6.34,11.52-4.23,7.1-6.34,10.46-6.34,10.08v-108.14c0-.19,2.11-.29,6.34-.29s6.34.1,6.34.29v77.9Zm10.73-77.83c7.44-1.49,14.06-1.46,19.87.07,5.81,1.54,8.71,3.74,8.71,6.62v31.39c0,4.13-1.61,7.3-4.82,9.5-3.22,2.21-7.13,3.31-11.74,3.31-5.47,0-9.82-1.51-13.03-4.54-3.22-3.02-4.82-7.08-4.82-12.17s1.61-9.24,4.82-12.74c3.21-3.5,8.04-5.26,14.47-5.26h22.61c.19,0,.12.48-.22,1.44-.34.96-.65,1.44-.94,1.44h-21.46c-2.3,0-3.94.43-4.9,1.3-.96.86-1.56,2.23-1.8,4.1-.24,1.87-.36,5.02-.36,9.43v3.89c.09,2.98.33,5.26.72,6.84.38,1.58.96,2.66,1.73,3.24.77.58,1.82.86,3.17.86h.14c.86,0,1.53-.22,2.02-.65.48-.43.84-1.42,1.08-2.95.24-1.54.36-3.89.36-7.06v-31.39c0-3.17-2.04-4.77-6.12-4.82-4.08-.05-8.62.65-13.61,2.09-4.99,1.44-7.73,2.4-8.21,2.88-.67.67-1.73,1.42-3.17,2.23-1.44.82-2.57,1.32-3.38,1.51-.82.19-.84-.09-.07-.86,5.18-4.99,11.5-8.23,18.94-9.72Z"/><path class="cls-5" d="m1533.65,725.51v8.64c0,.58-2.11,4.42-6.34,11.52-4.23,7.1-6.34,10.46-6.34,10.08v-108.14c0-.19,2.11-.29,6.34-.29s6.34.1,6.34.29v77.9Zm10.73-77.83c7.44-1.49,14.06-1.46,19.87.07,5.81,1.54,8.71,3.74,8.71,6.62v31.39c0,4.13-1.61,7.3-4.82,9.5-3.22,2.21-7.13,3.31-11.74,3.31-5.47,0-9.82-1.51-13.03-4.54-3.22-3.02-4.82-7.08-4.82-12.17s1.61-9.24,4.82-12.74c3.21-3.5,8.04-5.26,14.47-5.26h22.61c.19,0,.12.48-.22,1.44-.34.96-.65,1.44-.94,1.44h-21.46c-2.3,0-3.94.43-4.9,1.3-.96.86-1.56,2.23-1.8,4.1-.24,1.87-.36,5.02-.36,9.43v3.89c.09,2.98.33,5.26.72,6.84.38,1.58.96,2.66,1.73,3.24.77.58,1.82.86,3.17.86h.14c.86,0,1.53-.22,2.02-.65.48-.43.84-1.42,1.08-2.95.24-1.54.36-3.89.36-7.06v-31.39c0-3.17-2.04-4.77-6.12-4.82-4.08-.05-8.62.65-13.61,2.09-4.99,1.44-7.73,2.4-8.21,2.88-.67.67-1.73,1.42-3.17,2.23-1.44.82-2.57,1.32-3.38,1.51-.82.19-.84-.09-.07-.86,5.18-4.99,11.5-8.23,18.94-9.72Z"/><path class="cls-5" d="m1600.03,691.53c0,1.73,1.3,2.64,3.89,2.74,2.59.1,5.47-.41,8.64-1.51,3.17-1.1,5.28-2.23,6.34-3.38,1.15-1.25,2.21-2.21,3.17-2.88.96-.67,1.49-.86,1.58-.58.09.29-.43,1.06-1.58,2.3-4.42,4.9-9.34,8.02-14.76,9.36-5.42,1.34-10.15,1.3-14.18-.14-4.03-1.44-6.05-3.41-6.05-5.9v-43.92c0-.19,2.16-.29,6.48-.29s6.48.1,6.48.29v43.92Zm29.81,1.3v5.04c0,.19-2.11.29-6.34.29s-6.34-.1-6.34-.29v-93.46c0-.19,2.11-.29,6.34-.29s6.34.1,6.34.29v88.42Zm-6.77-87.12c0-1.06.09-1.58.29-1.58h26.35c.19,0,.29.53.29,1.58s-.1,1.58-.29,1.58h-26.35c-.19,0-.29-.53-.29-1.58Z"/><path class="cls-5" d="m1655.9,689.08c0,2.79,1.58,4.3,4.75,4.54,3.17.24,6.67-.34,10.51-1.73,3.84-1.39,6.34-2.81,7.49-4.25.67-1.25,1.56-2.4,2.66-3.46,1.1-1.05,1.92-1.66,2.45-1.8.53-.14.45.36-.22,1.51-4.8,6.82-10.32,11.21-16.56,13.18-6.24,1.97-11.76,1.97-16.56,0-4.8-1.97-7.2-4.63-7.2-7.99v-84.67c0-.19,2.11-.29,6.34-.29s6.34.1,6.34.29v84.67Zm9.29-42.05h23.83c.19,0,.29.53.29,1.58s-.1,1.58-.29,1.58h-38.16c-.19,0-.29-.53-.29-1.58s.09-1.58.29-1.58h14.33Zm20.66,49.54v1.3c0,.19-2.16.29-6.48.29s-6.48-.1-6.48-.29v-33.41c0-.19,2.16-.29,6.48-.29s6.48.1,6.48.29v32.11Z"/><path class="cls-5" d="m1711.77,695.85v2.02c0,.19-2.16.29-6.48.29s-6.48-.1-6.48-.29v-50.26c0-.19,2.16-.29,6.48-.29s6.48.1,6.48.29v48.24Zm7.92-47.66c5.85-1.63,11.02-1.53,15.48.29,4.46,1.83,6.7,4.9,6.7,9.22v40.18c0,.19-2.16.29-6.48.29s-6.48-.1-6.48-.29v-40.18c0-3.36-1.18-5.4-3.53-6.12-2.35-.72-4.95-.62-7.78.29-2.83.91-4.59,1.8-5.26,2.66-.48.58-1.42,1.27-2.81,2.09-1.39.82-2.59,1.39-3.6,1.73-1.01.34-1.27.22-.79-.36,3.84-4.9,8.69-8.16,14.54-9.79Z"/><path class="cls-5" d="m1767.79,695.85v2.02c0,.19-2.16.29-6.48.29s-6.48-.1-6.48-.29v-50.26c0-.19,2.16-.29,6.48-.29s6.48.1,6.48.29v48.24Zm5.76-6.48c1.63-1.44,2.59-2.06,2.88-1.87,4.99,2.11,8.06,3.46,9.22,4.03l.58.29-3.17,2.16,3.46-3.31c1.25-1.15,2.16-1.82,2.74-2.02.58-.19.62.07.14.79-.48.72-1.35,1.71-2.59,2.95l-3.46,3.31c-.58.58-1.2,1.1-1.87,1.58-.67.48-1.1.67-1.3.58-.19-.09-.38-.19-.58-.29-4.99-2.11-8.06-3.46-9.22-4.03l2.88-1.87-4.75,4.46c-1.25,1.15-2.11,1.78-2.59,1.87-.48.09-.43-.29.14-1.15.58-.86,1.49-1.87,2.74-3.02l4.75-4.46Z"/><path class="cls-5" d="m1795.79,660.86c3.02-4.13,7.29-7.42,12.82-9.86,5.52-2.45,11.83-3.67,18.94-3.67h18.86c.19,0,.29.48.29,1.44s-.1,1.44-.29,1.44h-18.86c-15.36,0-23.04,8.06-23.04,24.19,0,14.98,4.7,22.46,14.11,22.46,4.61,0,8.11-1.87,10.51-5.62,2.4-3.74,3.6-9.36,3.6-16.85,0-4.41-.96-8.5-2.88-12.24-1.92-3.74-4.25-7.06-6.98-9.94-2.74-2.88-6.31-6.24-10.73-10.08-5.18-4.61-8.98-8.37-11.38-11.3-2.4-2.93-3.6-6.07-3.6-9.43,0-4.03,1.85-7.58,5.54-10.66,3.7-3.07,6.89-5.28,9.58-6.62.09-.09.29.05.58.43.29.38.33.63.14.72-.77.38-1.73,1.71-2.88,3.96-1.15,2.26-1.73,4.2-1.73,5.83,0,3.65,1.3,7.15,3.89,10.51,2.59,3.36,6.58,7.54,11.95,12.53,4.7,4.51,8.47,8.38,11.3,11.59,2.83,3.22,5.28,6.91,7.34,11.09,2.06,4.18,3.1,8.71,3.1,13.61,0,4.32-1.06,8.35-3.17,12.1-2.11,3.74-5.23,6.77-9.36,9.07-4.13,2.3-9.07,3.46-14.83,3.46s-10.71-1.15-14.83-3.46c-4.13-2.3-7.25-5.33-9.36-9.07-2.11-3.74-3.17-7.78-3.17-12.1,0-4.9,1.51-9.41,4.54-13.54Zm50.47-13.54c.19,0,.29.48.29,1.44s-.1,1.44-.29,1.44h-16.56c-.19,0-.29-.48-.29-1.44s.09-1.44.29-1.44h16.56Z"/><path class="cls-5" d="m1876,693.54c3.22.29,6.74-.26,10.58-1.66,3.84-1.39,6.29-2.86,7.34-4.39.67-1.15,1.56-2.25,2.66-3.31,1.1-1.05,1.92-1.66,2.45-1.8.53-.14.46.41-.22,1.66-4.8,6.82-10.35,11.18-16.63,13.1-6.29,1.92-11.81,1.92-16.56,0-4.75-1.92-7.13-4.61-7.13-8.06v-82.08c.19,0,.29.1.29.29h-21.17c-.09,0-.19-.26-.29-.79-.09-.53-.09-1.06,0-1.58.1-.53.19-.79.29-.79h33.55v84.96c0,2.69,1.61,4.18,4.82,4.46Zm25.13,2.3v2.02c0,.19-2.16.29-6.48.29s-6.48-.1-6.48-.29v-50.26c0-.19,2.16-.29,6.48-.29s6.48.1,6.48.29v48.24Z"/><path class="cls-5" d="m1618.46,356.44c.58-9.22,2.61-16.73,6.12-22.54,3.5-5.81,8.42-10.68,14.76-14.62,4.13-2.59,8.06-4.39,11.81-5.4,3.74-1.01,6.96-1.39,9.65-1.15,2.69.24,4.51.79,5.47,1.66.29.29-.07,1.37-1.08,3.24-1.01,1.87-2.14,3.6-3.38,5.18-1.25,1.58-2.07,2.23-2.45,1.94-3.17-2.59-6.15-4.29-8.93-5.11-2.79-.81-5.9-.17-9.36,1.94-2.11,1.35-4.1,4.8-5.98,10.37-1.87,5.57-3.19,13.06-3.96,22.46l-2.45,38.02c0,.29-2.16.41-6.48.36-4.32-.05-6.48-.17-6.48-.36l2.74-36Zm18.14,24.77c6.34-1.92,12.02-2.06,17.06-.43,5.04,1.63,7.56,4.9,7.56,9.79v53.71c0,.58-2.11,4.41-6.34,11.52-4.23,7.1-6.34,10.46-6.34,10.08l.14-30.24v-45.07c0-3.26-1.37-5.35-4.1-6.26-2.74-.91-5.76-.94-9.07-.07-3.31.86-5.45,1.92-6.41,3.17-.48.58-1.42,1.27-2.81,2.09-1.39.82-2.59,1.42-3.6,1.8-1.01.38-1.27.24-.79-.43,3.46-4.51,8.35-7.73,14.69-9.65Z"/><path class="cls-5" d="m1676.86,369.54c3.02-4.13,7.29-7.42,12.82-9.86,5.52-2.45,11.83-3.67,18.94-3.67h18.86c.19,0,.29.48.29,1.44s-.1,1.44-.29,1.44h-18.86c-15.36,0-23.04,8.06-23.04,24.19,0,14.98,4.7,22.46,14.11,22.46,4.61,0,8.11-1.87,10.51-5.62,2.4-3.74,3.6-9.36,3.6-16.85,0-4.41-.96-8.5-2.88-12.24-1.92-3.74-4.25-7.06-6.98-9.94-2.74-2.88-6.31-6.24-10.73-10.08-5.18-4.61-8.98-8.38-11.38-11.3-2.4-2.93-3.6-6.07-3.6-9.43,0-4.03,1.85-7.58,5.54-10.66,3.69-3.07,6.89-5.28,9.58-6.62.09-.09.29.05.58.43.29.38.34.62.14.72-.77.38-1.73,1.71-2.88,3.96-1.15,2.26-1.73,4.2-1.73,5.83,0,3.65,1.3,7.15,3.89,10.51,2.59,3.36,6.57,7.54,11.95,12.53,4.7,4.51,8.47,8.38,11.3,11.59,2.83,3.22,5.28,6.91,7.34,11.09,2.06,4.18,3.1,8.71,3.1,13.61,0,4.32-1.06,8.35-3.17,12.1-2.11,3.74-5.23,6.77-9.36,9.07-4.13,2.3-9.07,3.46-14.83,3.46s-10.71-1.15-14.83-3.46c-4.13-2.3-7.25-5.33-9.36-9.07-2.11-3.74-3.17-7.78-3.17-12.1,0-4.9,1.51-9.41,4.54-13.54Zm50.47-13.54c.19,0,.29.48.29,1.44s-.1,1.44-.29,1.44h-16.56c-.19,0-.29-.48-.29-1.44s.09-1.44.29-1.44h16.56Z"/><path class="cls-5" d="m1745.18,350.97c12.58,1.35,22.27,5.4,29.09,12.17,6.82,6.77,10.22,17.69,10.22,32.76l.14,9.36c0,.58-1.08.99-3.24,1.22-2.16.24-4.32.24-6.48,0s-3.24-.65-3.24-1.22l.14-4.75c.09-.96.14-2.5.14-4.61,0-10.85-1.08-19.27-3.24-25.27-2.16-6-5.21-10.22-9.14-12.67-3.94-2.45-8.93-4.01-14.98-4.68-3.84-.48-7.68-.72-11.52-.72-.19,0-.29-.38-.29-1.15s.09-1.15.29-1.15c3.94,0,7.97.24,12.1.72Zm15.84,55.15c-6.53,1.44-11.9.84-16.13-1.8-4.23-2.64-6.34-7.03-6.34-13.18,0-4.61,1.92-11.3,5.76-20.09,3.84-8.78,9.5-19.37,16.99-31.75,7.1-11.81,13.51-19.44,19.22-22.9,5.71-3.46,10.78-3.84,15.19-1.15.38.29.07,1.37-.94,3.24s-2.16,3.62-3.46,5.26c-1.3,1.63-2.14,2.35-2.52,2.16l-1.15-.72c-3.26-2.02-5.74-3.12-7.42-3.31-1.68-.19-3.65.94-5.9,3.38-2.26,2.45-5.45,7.03-9.58,13.75-4.9,8.26-8.38,16.85-10.44,25.78-2.07,8.93-3.1,16.95-3.1,24.05s1.61,11.16,4.82,12.74c3.22,1.58,6.7,1.75,10.44.5,3.74-1.25,6.38-2.5,7.92-3.74.96-.86,2.11-1.66,3.46-2.38,1.34-.72,2.3-1.1,2.88-1.15.58-.05.38.36-.58,1.22-6.24,5.28-12.62,8.64-19.15,10.08Z"/><path class="cls-5" d="m1810.27,400.22c0,2.11.86,3.29,2.59,3.53,1.73.24,3.69-.07,5.9-.94,2.21-.86,3.84-1.73,4.9-2.59,1.34-.96,2.57-1.7,3.67-2.23,1.1-.53,1.68-.65,1.73-.36.05.29-.6.96-1.94,2.02-4.23,3.26-8.67,5.45-13.32,6.55-4.66,1.1-8.57,1.1-11.74,0s-4.75-3.1-4.75-5.98v-43.92c0-.19,2.16-.29,6.48-.29s6.48.1,6.48.29v43.92Zm25.92,4.32v2.02c0,.19-2.16.29-6.48.29s-6.48-.1-6.48-.29v-50.26c0-.19,2.16-.29,6.48-.29s6.48.1,6.48.29v48.24Zm3.53-47.23c6.19-1.92,11.62-1.94,16.27-.07,4.66,1.87,6.98,4.68,6.98,8.42v40.9c0,.19-2.16.29-6.48.29s-6.48-.1-6.48-.29v-40.9c0-3.74-1.42-5.83-4.25-6.26-2.83-.43-5.98.14-9.43,1.73s-5.57,3-6.34,4.25c-.38.58-1.2,1.32-2.45,2.23-1.25.91-2.35,1.58-3.31,2.02-.96.43-1.2.36-.72-.22,4.61-6.14,10.01-10.17,16.2-12.1Z"/><path class="cls-5" d="m1897.53,357.02c6.05-2.02,11.23-2.59,15.55-1.73s6.48,3.26,6.48,7.2v70.13c-.38,5.57-1.51,10.03-3.38,13.39-1.87,3.36-5.02,6.19-9.43,8.5-4.42,2.3-10.94,4.46-19.58,6.48-2.11.48-4.54.86-7.27,1.15-2.74.29-4.68.38-5.83.29-1.15-.1-.72-.38,1.3-.86,10.56-2.5,18.26-5.95,23.11-10.37,4.85-4.42,7.56-10.61,8.14-18.58v-70.13c0-1.92-1.15-3.12-3.46-3.6-2.3-.48-4.99-.26-8.06.65-3.07.91-5.67,2.23-7.78,3.96-.86.77-1.99,1.51-3.38,2.23-1.39.72-2.38,1.13-2.95,1.22-.58.1-.38-.29.58-1.15,4.61-3.84,9.94-6.77,15.98-8.78Zm-8.64,43.2c0,1.73,1.3,2.64,3.89,2.74,2.59.1,5.47-.41,8.64-1.51,3.17-1.1,5.28-2.23,6.34-3.38,1.15-1.25,2.21-2.21,3.17-2.88.96-.67,1.49-.86,1.58-.58.09.29-.43,1.06-1.58,2.3-4.42,4.9-9.34,8.02-14.76,9.36-5.42,1.34-10.15,1.3-14.18-.14-4.03-1.44-6.05-3.41-6.05-5.9v-43.92c0-.19,2.16-.29,6.48-.29s6.48.1,6.48.29v43.92Z"/><path class="cls-5" d="m2281.87,34.89c-2.21-2.5-5.23-3.74-9.07-3.74-5.09,0-9.27,1.18-12.53,3.53-3.26,2.35-4.9,5.16-4.9,8.42,0,2.11,1.3,4.3,3.89,6.55,2.59,2.26,6.72,5.16,12.38,8.71l6.62,4.46c7.78,5.28,13.66,10.44,17.64,15.48,3.98,5.04,5.98,10.15,5.98,15.34,0,6.62-2.3,12.05-6.91,16.27-4.61,4.23-11.04,6.34-19.3,6.34-5.95,0-11.54-1.13-16.78-3.38-5.23-2.25-9.5-5.18-12.82-8.78-3.31-3.6-5.26-7.17-5.83-10.73-.1-.19,2.38-.31,7.42-.36,5.04-.05,7.61.07,7.7.36,1.92,13.82,8.69,20.74,20.3,20.74,4.32,0,8.09-.72,11.3-2.16,3.21-1.44,5.69-3.26,7.42-5.47,1.73-2.21,2.59-4.46,2.59-6.77,0-2.88-1.46-5.64-4.39-8.28-2.93-2.64-7.9-6.26-14.9-10.87-2.69-1.73-5.09-3.31-7.2-4.75-7.68-5.09-12.94-9.58-15.77-13.46-2.83-3.89-4.25-8.28-4.25-13.18,0-6.14,2.04-11.04,6.12-14.69,4.08-3.65,9.48-5.47,16.2-5.47,7.78,0,14.33,1.73,19.66,5.18s8.47,8.11,9.43,13.97c0,.19-2.52.31-7.56.36-5.04.05-7.56-.07-7.56-.36-1.06-6.34-2.69-10.75-4.9-13.25Z"/><path class="cls-5" d="m2326.08,109.19c0,1.73,1.3,2.64,3.89,2.74,2.59.1,5.47-.41,8.64-1.51,3.17-1.1,5.28-2.23,6.34-3.38,1.15-1.25,2.21-2.21,3.17-2.88.96-.67,1.49-.86,1.58-.58.09.29-.43,1.06-1.58,2.3-4.42,4.9-9.34,8.02-14.76,9.36-5.42,1.34-10.15,1.3-14.18-.14-4.03-1.44-6.05-3.41-6.05-5.9v-43.92c0-.19,2.16-.29,6.48-.29s6.48.1,6.48.29v43.92Zm29.66,36.58v16.56c0,.58-1.03.98-3.1,1.22-2.07.24-4.1.24-6.12,0-2.02-.24-3.02-.65-3.02-1.22l-.14-16.56.14-123.7c0-.19,2.04-.29,6.12-.29s6.12.1,6.12.29v123.7Zm14.98,15.12c5.38,0,9.55.58,12.53,1.73,2.97,1.15,4.99,2.52,6.05,4.1,1.05,1.58,1.58,3.14,1.58,4.68,0,.09-1.08.17-3.24.22-2.16.05-4.32.05-6.48,0-2.16-.05-3.24-.12-3.24-.22,0-2.02-.19-3.55-.58-4.61-.38-1.06-1.1-1.82-2.16-2.3-1.06-.48-2.54-.72-4.46-.72h-21.31c-1.73,0-2.95-.24-3.67-.72-.72-.48-.72-.96,0-1.44.72-.48,1.94-.72,3.67-.72h21.31Z"/><path class="cls-7" d="m2382.38,84.28c0,5.38.24,9.86.72,13.46.48,3.6,1.1,7.32,1.87,11.16.96,4.13,1.44,7.63,1.44,10.51,0,4.9-.99,9.34-2.95,13.32-1.97,3.98-4.73,7.8-8.28,11.45-2.02,2.02-4.08,3.82-6.19,5.4-2.11,1.58-5.04,3.48-8.78,5.69-.19.09-.36.09-.5,0-.14-.1-.12-.19.07-.29,4.22-4.61,7.56-9.63,10.01-15.05,2.45-5.42,3.67-11.11,3.67-17.06,0-2.88-.43-6.91-1.3-12.1-.77-4.13-1.37-8.16-1.8-12.1-.43-3.94-.65-8.73-.65-14.4v-19.01c0-.19,2.11-.29,6.34-.29s6.34.1,6.34.29v19.01Z"/><path class="cls-5" d="m2408.59,109.19c0,2.11.86,3.29,2.59,3.53,1.73.24,3.69-.07,5.9-.94,2.21-.86,3.84-1.73,4.9-2.59,1.34-.96,2.57-1.7,3.67-2.23,1.1-.53,1.68-.65,1.73-.36.05.29-.6.96-1.94,2.02-4.23,3.26-8.67,5.45-13.32,6.55-4.66,1.1-8.57,1.1-11.74,0s-4.75-3.1-4.75-5.98v-43.92c0-.19,2.16-.29,6.48-.29s6.48.1,6.48.29v43.92Zm25.92,0c0,2.11.86,3.29,2.59,3.53,1.73.24,3.69-.07,5.9-.94,2.21-.86,3.84-1.73,4.9-2.59,1.34-.96,2.57-1.7,3.67-2.23,1.1-.53,1.68-.65,1.73-.36.05.29-.6.96-1.94,2.02-4.23,3.26-8.67,5.45-13.32,6.55-4.66,1.1-8.57,1.1-11.74,0s-4.75-3.1-4.75-5.98v-43.92c0-.19,2.16-.29,6.48-.29s6.48.1,6.48.29v43.92Zm25.92,4.32v2.02c0,.19-2.16.29-6.48.29s-6.48-.1-6.48-.29v-50.26c0-.19,2.16-.29,6.48-.29s6.48.1,6.48.29v48.24Z"/><path class="cls-5" d="m2486.21,146.2c0,2.5.26,4.75.79,6.77.53,2.02,1.89,3.84,4.1,5.47,2.21,1.63,5.57,2.45,10.08,2.45h5.62c.19,0,.29.46.29,1.37s-.1,1.37-.29,1.37h-7.06c-4.71-.1-8.98-.62-12.82-1.58-3.84-.96-7.01-2.71-9.5-5.26-2.5-2.54-3.74-6.07-3.74-10.58v-80.93c0-.19,2.09-.29,6.26-.29s6.26.1,6.26.29v80.93Z"/><path class="cls-5" d="m2517.24,111.21c3.22.29,6.74-.26,10.58-1.66,3.84-1.39,6.29-2.85,7.34-4.39.67-1.15,1.56-2.25,2.66-3.31,1.1-1.05,1.92-1.66,2.45-1.8.53-.14.46.41-.22,1.66-4.8,6.82-10.35,11.18-16.63,13.1-6.29,1.92-11.81,1.92-16.56,0-4.75-1.92-7.13-4.61-7.13-8.06V24.66c.19,0,.29.1.29.29h-21.17c-.09,0-.19-.26-.29-.79-.09-.53-.09-1.06,0-1.58.1-.53.19-.79.29-.79h33.55v84.96c0,2.69,1.61,4.18,4.82,4.46Zm25.13,2.3v2.02c0,.19-2.16.29-6.48.29s-6.48-.1-6.48-.29v-50.26c0-.19,2.16-.29,6.48-.29s6.48.1,6.48.29v48.24Z"/><path class="cls-5" d="m2568.29,106.74c0,2.79,1.58,4.3,4.75,4.54,3.17.24,6.67-.33,10.51-1.73,3.84-1.39,6.34-2.81,7.49-4.25.67-1.25,1.56-2.4,2.66-3.46,1.1-1.05,1.92-1.66,2.45-1.8.53-.14.46.36-.22,1.51-4.8,6.82-10.32,11.21-16.56,13.18-6.24,1.97-11.76,1.97-16.56,0-4.8-1.97-7.2-4.63-7.2-7.99V22.07c0-.19,2.11-.29,6.34-.29s6.34.1,6.34.29v84.67Zm9.29-42.05h23.83c.19,0,.29.53.29,1.58s-.1,1.58-.29,1.58h-38.16c-.19,0-.29-.53-.29-1.58s.09-1.58.29-1.58h14.33Zm20.66,49.54v1.3c0,.19-2.16.29-6.48.29s-6.48-.1-6.48-.29v-33.41c0-.19,2.16-.29,6.48-.29s6.48.1,6.48.29v32.11Z"/><path class="cls-7" d="m2624.16,134.25v6.62c0,.48-2.14,3.19-6.41,8.14-4.27,4.94-6.41,7.27-6.41,6.98v-90.72c0-.19,2.14-.29,6.41-.29s6.41.1,6.41.29v68.98Zm-6.48-58.61c3.84-4.9,8.69-8.16,14.54-9.79,5.85-1.63,11.02-1.53,15.48.29,4.46,1.82,6.7,4.9,6.7,9.22v40.18c0,.19-2.16.29-6.48.29s-6.48-.1-6.48-.29v-40.18c0-3.36-1.18-5.4-3.53-6.12-2.35-.72-4.95-.62-7.78.29-2.83.91-4.59,1.8-5.26,2.66-.48.58-1.42,1.27-2.81,2.09-1.39.82-2.59,1.39-3.6,1.73-1.01.34-1.27.22-.79-.36h0Z"/><path class="cls-5" d="m2680.18,140.15v11.66c0,.58-2.07,4.41-6.19,11.52-4.13,7.1-6.19,10.46-6.19,10.08V22.07c0-.19,2.06-.29,6.19-.29s6.19.1,6.19.29v118.08Zm8.35-74.3c5.85-1.63,11.02-1.53,15.48.29,4.46,1.83,6.7,4.9,6.7,9.22v40.18c0,.19-2.16.29-6.48.29s-6.48-.1-6.48-.29v-40.18c0-3.36-1.18-5.4-3.53-6.12-2.35-.72-4.95-.62-7.78.29-2.83.91-4.58,1.8-5.26,2.66-.48.58-1.42,1.27-2.81,2.09-1.39.82-2.59,1.39-3.6,1.73-1.01.34-1.27.22-.79-.36,3.84-4.9,8.69-8.16,14.54-9.79Z"/><path class="cls-7" d="m2258.26,725.51v8.64c0,.58-2.11,4.41-6.34,11.52-4.23,7.1-6.34,10.46-6.34,10.08v-108.14c0-.19,2.11-.29,6.34-.29s6.34.1,6.34.29v77.9Zm-8.21-68.11c5.18-4.99,11.5-8.23,18.94-9.72,7.44-1.49,14.06-1.46,19.87.07,5.81,1.54,8.71,3.74,8.71,6.62v29.81c0,4.51-1.61,8.04-4.82,10.58-3.22,2.54-7.18,3.82-11.88,3.82-5.28,0-9.55-1.51-12.82-4.54-3.26-3.02-4.9-6.93-4.9-11.74s1.51-9.26,4.54-12.82c3.02-3.55,8.66-6.96,16.92-10.22,4.32-1.73,9.48-3.24,15.48-4.54,6-1.3,12.89-2.57,20.66-3.82,14.4-2.3,25.2-2.86,32.4-1.66,7.2,1.2,10.8,4.82,10.8,10.87v25.2c0,4.13-1.63,7.37-4.9,9.72-3.26,2.35-7.15,3.53-11.66,3.53-5.47,0-9.82-1.51-13.03-4.54-3.22-3.02-4.82-7.08-4.82-12.17s1.61-9.24,4.82-12.74c3.22-3.5,8.04-5.26,14.47-5.26h22.61c.19,0,.12.48-.22,1.44-.34.96-.65,1.44-.94,1.44h-21.46c-2.3,0-3.94.46-4.9,1.37-.96.91-1.56,2.33-1.8,4.25-.24,1.92-.36,5.09-.36,9.5,0,4.03.17,7.08.5,9.14.34,2.07.89,3.48,1.66,4.25.77.77,1.92,1.15,3.46,1.15,1.25,0,2.16-.67,2.74-2.02.58-1.34.86-4.37.86-9.07v-25.2c0-2.97-.94-5.13-2.81-6.48-1.87-1.34-5.14-1.99-9.79-1.94-4.66.05-11.3.74-19.94,2.09-6.05,1.06-12.12,2.33-18.22,3.82-6.1,1.49-11.11,3-15.05,4.54-6.53,2.69-9.79,9.41-9.79,20.16,0,5.57.38,9.31,1.15,11.23.77,1.92,2.21,2.88,4.32,2.88.96,0,1.7-.24,2.23-.72.53-.48.91-1.58,1.15-3.31.24-1.73.36-4.46.36-8.21v-29.81c0-3.17-2.04-4.77-6.12-4.82-4.08-.05-8.62.65-13.61,2.09-4.99,1.44-7.73,2.4-8.21,2.88-.67.67-1.73,1.42-3.17,2.23-1.44.82-2.57,1.32-3.38,1.51-.82.19-.84-.09-.07-.86h0Zm74.59,68.11v8.64c0,.58-2.11,4.41-6.34,11.52-4.23,7.1-6.34,10.46-6.34,10.08v-108.14c0-.19,2.11-.29,6.34-.29s6.34.1,6.34.29v77.9Z"/><path class="cls-7" d="m2391.02,691.53c0,1.73,1.3,2.64,3.89,2.74,2.59.1,5.47-.41,8.64-1.51,3.17-1.1,5.28-2.23,6.34-3.38,1.15-1.25,2.21-2.21,3.17-2.88.96-.67,1.49-.86,1.58-.58.09.29-.43,1.06-1.58,2.3-4.42,4.9-9.34,8.02-14.76,9.36-5.42,1.34-10.15,1.3-14.18-.14-4.03-1.44-6.05-3.41-6.05-5.9v-43.92c0-.19,2.16-.29,6.48-.29s6.48.1,6.48.29v43.92Zm60.7,2.09c3.22.24,6.74-.34,10.58-1.73,3.84-1.39,6.29-2.86,7.34-4.39.67-1.15,1.53-2.25,2.59-3.31s1.87-1.66,2.45-1.8c.58-.14.53.41-.14,1.66-4.8,6.82-10.35,11.18-16.63,13.1-6.29,1.92-11.81,1.89-16.56-.07-4.75-1.97-7.13-4.63-7.13-7.99v-81.79h-6.77c-2.21,0-3.87.65-4.97,1.94-1.11,1.3-1.66,3.1-1.66,5.4v83.23c0,.19-2.11.29-6.34.29s-6.34-.1-6.34-.29v-83.23c0-4.41,1.89-7.22,5.69-8.42,3.79-1.2,8.33-1.8,13.61-1.8h19.44v84.67c0,2.79,1.61,4.3,4.82,4.54Zm4.46-46.58h23.83c.09,0,.14.07.14.22s.05.27.14.36c.09.48.09,1.03,0,1.66-.1.63-.19.94-.29.94h-38.16c-.19,0-.29-.53-.29-1.58s.09-1.58.29-1.58h14.33Zm20.66,49.54v1.3c0,.19-2.16.29-6.48.29s-6.48-.1-6.48-.29v-33.41c0-.19,2.16-.29,6.48-.29s6.48.1,6.48.29v32.11Z"/><path class="cls-7" d="m2502.77,695.85v2.02c0,.19-2.16.29-6.48.29s-6.48-.1-6.48-.29v-50.26c0-.19,2.16-.29,6.48-.29s6.48.1,6.48.29v48.24Zm-7.2-38.02c2.88-4.22,7.08-7.22,12.6-9,5.52-1.78,10.53-2.11,15.05-1.01,4.51,1.1,6.77,3.29,6.77,6.55v32.26c0,.19-2.16.29-6.48.29s-6.48-.09-6.48-.29v-32.26c0-2.59-.96-4.1-2.88-4.54-1.92-.43-4.06-.14-6.41.86-2.35,1.01-4.01,2.14-4.97,3.38-.38.58-1.25,1.27-2.59,2.09-1.35.82-2.54,1.44-3.6,1.87-1.06.43-1.39.36-1.01-.22h0Zm34.42,33.7c0,2.21.91,3.51,2.74,3.89,1.82.38,3.96.22,6.41-.5s4.58-1.66,6.41-2.81c2.4-1.34,3.69-1.8,3.89-1.37.19.43-.91,1.37-3.31,2.81-4.23,2.4-8.62,3.96-13.18,4.68-4.56.72-8.35.48-11.38-.72-3.02-1.2-4.54-3.19-4.54-5.98v-31.54c0-.19,2.16-.29,6.48-.29s6.48.1,6.48.29v31.54Zm26.78,4.32v2.02c0,.19-2.16.29-6.48.29s-6.48-.1-6.48-.29v-50.26c0-.19,2.16-.29,6.48-.29s6.48.1,6.48.29v48.24Zm5.76-6.48c1.63-1.44,2.59-2.06,2.88-1.87,4.99,2.11,8.06,3.46,9.22,4.03l.58.29-3.17,2.16,3.46-3.31c1.25-1.15,2.16-1.82,2.74-2.02.58-.19.62.07.14.79-.48.72-1.35,1.71-2.59,2.95l-3.46,3.31c-.58.58-1.2,1.1-1.87,1.58-.67.48-1.1.67-1.3.58-.19-.09-.38-.19-.58-.29-4.99-2.11-8.06-3.46-9.22-4.03l2.88-1.87-4.75,4.46c-1.25,1.15-2.11,1.78-2.59,1.87-.48.09-.43-.29.14-1.15.58-.86,1.49-1.87,2.74-3.02l4.75-4.46Zm117.79.58c-4.9,4.23-10.13,6.89-15.7,7.99-5.57,1.1-10.27.94-14.11-.5-3.84-1.44-5.76-3.41-5.76-5.9v-79.92c0-1.82-1.54-3.12-4.61-3.89-3.07-.77-7.3-1.15-12.67-1.15-9.41,0-16.61.82-21.6,2.45-4.99,1.63-7.49,4.32-7.49,8.06,0,3.17,1.15,6.22,3.46,9.14,2.3,2.93,5.95,6.79,10.94,11.59,4.61,4.32,8.37,8.11,11.3,11.38,2.93,3.26,5.42,7.03,7.49,11.3,2.06,4.27,3.1,8.91,3.1,13.9,0,4.32-1.06,8.35-3.17,12.1-2.11,3.74-5.23,6.77-9.36,9.07-4.13,2.3-9.07,3.46-14.83,3.46s-10.71-1.13-14.83-3.38c-4.13-2.25-7.25-5.28-9.36-9.07-2.11-3.79-3.17-7.85-3.17-12.17,0-4.9,1.51-9.41,4.54-13.54,3.02-4.13,7.27-7.42,12.74-9.86,5.47-2.45,11.81-3.67,19.01-3.67h18.86c.19,0,.29.48.29,1.44s-.1,1.44-.29,1.44h-18.86c-15.55,0-23.33,8.06-23.33,24.19,0,7.49,1.22,13.1,3.67,16.85,2.45,3.74,6.02,5.62,10.73,5.62s8.28-1.89,10.73-5.69c2.45-3.79,3.67-9.38,3.67-16.78,0-4.51-.99-8.69-2.95-12.53-1.97-3.84-4.32-7.18-7.06-10.01-2.74-2.83-6.31-6.17-10.73-10.01-4.7-4.13-8.19-7.51-10.44-10.15-2.26-2.64-3.38-5.4-3.38-8.28,0-7.49,4.18-12.53,12.53-15.12,8.35-2.59,17.62-3.89,27.79-3.89,6.43,0,13.03.58,19.8,1.73,6.77,1.15,10.15,2.98,10.15,5.47v79.92c0,2.5,1.22,3.84,3.67,4.03,2.45.19,5.13-.19,8.06-1.15,2.93-.96,4.63-1.68,5.11-2.16.86-.77,1.99-1.51,3.38-2.23,1.39-.72,2.42-1.1,3.1-1.15.67-.05.53.31-.43,1.08h0Zm-45.36-42.62c.19,0,.29.48.29,1.44s-.1,1.44-.29,1.44h-16.56c-.19,0-.29-.48-.29-1.44s.09-1.44.29-1.44h16.56Zm52.42,48.53v2.02c0,.19-2.16.29-6.48.29s-6.48-.1-6.48-.29v-50.26c0-.19,2.16-.29,6.48-.29s6.48.1,6.48.29v48.24Z"/><path class="cls-7" d="m2258.11,401.51v5.04c0,.19-2.11.29-6.34.29s-6.34-.1-6.34-.29v-93.31c0-.19,2.11-.29,6.34-.29s6.34.1,6.34.29v88.27Zm-6.48-34.85c3.84-4.9,8.69-8.16,14.54-9.79,5.85-1.63,11.02-1.53,15.48.29,4.46,1.82,6.7,4.9,6.7,9.22v40.18c0,.19-2.16.29-6.48.29s-6.48-.1-6.48-.29v-40.18c0-3.36-1.18-5.4-3.53-6.12-2.35-.72-4.95-.62-7.78.29-2.83.91-4.59,1.8-5.26,2.66-.48.58-1.42,1.27-2.81,2.09-1.39.82-2.59,1.39-3.6,1.73-1.01.34-1.27.22-.79-.36h0Zm52.13-20.16c1.92,3.17,3.91,5.21,5.98,6.12,2.06.91,4.2,1.37,6.41,1.37h14.98c2.59-.09,6.48-.14,11.66-.14,6.91-.09,11.71-.09,14.4,0,2.69.1,4.61.34,5.76.72,1.15.38,2.35,1.15,3.6,2.3.09.1-1.49,1.13-4.75,3.1-3.26,1.97-5.04,2.86-5.33,2.66-1.54-1.44-3.6-2.93-6.19-4.46-2.59-1.53-4.99-2.3-7.2-2.3-2.59.1-6.48.14-11.66.14-3.36.1-8.45.14-15.26.14h-3.46c-6.62,0-11.16-.19-13.61-.58-2.45-.38-4.25-1.49-5.4-3.31-.09-.19,1.53-1.25,4.9-3.17,3.36-1.92,5.09-2.78,5.18-2.59h0Zm26.06,61.63c-5.38,0-10.03-1.18-13.97-3.53-3.94-2.35-6.94-5.54-9-9.58-2.07-4.03-3.1-8.5-3.1-13.39s1.03-9.38,3.1-13.46c2.06-4.08,5.06-7.32,9-9.72,3.94-2.4,8.59-3.6,13.97-3.6s9.89,1.2,13.82,3.6c3.94,2.4,6.96,5.64,9.07,9.72,2.11,4.08,3.17,8.57,3.17,13.46s-1.06,9.36-3.17,13.39c-2.11,4.03-5.14,7.22-9.07,9.58-3.94,2.35-8.55,3.53-13.82,3.53h0Zm0-2.16c2.21,0,4.34-.94,6.41-2.81,2.06-1.87,3.77-4.63,5.11-8.28,1.34-3.65,2.02-8.06,2.02-13.25s-.67-9.65-2.02-13.39c-1.35-3.74-3.05-6.55-5.11-8.42-2.07-1.87-4.2-2.81-6.41-2.81s-4.34.94-6.41,2.81c-2.07,1.87-3.77,4.68-5.11,8.42-1.35,3.74-2.02,8.21-2.02,13.39s.67,9.63,2.02,13.32c1.34,3.7,3.05,6.46,5.11,8.28,2.06,1.82,4.2,2.74,6.41,2.74h0Zm48.24-54.86c8.73,5.67,15.84,10.54,21.31,14.62,5.47,4.08,10.17,8.35,14.11,12.82,3.94,4.46,5.9,8.76,5.9,12.89l.14,15.12c0,.19-2.16.29-6.48.29s-6.48-.1-6.48-.29l.14-7.63c.09-1.63.14-4.13.14-7.49,0-4.32-1.94-9.17-5.83-14.54-3.89-5.38-8.57-10.51-14.04-15.41-5.47-4.9-10.56-8.88-15.26-11.95-1.06-.77-1.73-1.46-2.02-2.09-.29-.62-.14-.96.43-1.01.58-.05,1.39.31,2.45,1.08l5.47,3.6Zm33.12,45.65c-5.18,3.65-10.92,6.46-17.21,8.42-6.29,1.97-11.62,2.47-15.98,1.51-4.37-.96-6.55-3.74-6.55-8.35,0-4.9,1.22-9.53,3.67-13.9,2.45-4.37,5.28-8.16,8.5-11.38,3.22-3.22,7.27-6.84,12.17-10.87l1.01-.86c4.41-3.55,7.68-7.82,9.79-12.82,2.11-4.99,2.54-10.53,1.3-16.63-1.25-6.1-4.61-12.36-10.08-18.79-.19-.19,1.78-.31,5.9-.36,4.13-.05,6.29.07,6.48.36,6.91,8.06,9.36,16.22,7.34,24.48-2.02,8.26-7.78,16.27-17.28,24.05-1.92,1.63-4.13,4.23-6.62,7.78-2.5,3.55-4.66,7.85-6.48,12.89-1.82,5.04-2.74,10.39-2.74,16.06,0,2.5,1.25,4.03,3.74,4.61,2.5.58,5.52.36,9.07-.65,3.55-1.01,6.77-2.57,9.65-4.68,1.25-.86,2.5-1.56,3.74-2.09,1.25-.53,1.97-.67,2.16-.43.19.24-.34.79-1.58,1.66h0Zm32.83,3.46c0,2.11.86,3.29,2.59,3.53,1.73.24,3.69-.07,5.9-.94,2.21-.86,3.84-1.73,4.9-2.59,1.34-.96,2.57-1.7,3.67-2.23,1.1-.53,1.68-.65,1.73-.36.05.29-.6.96-1.94,2.02-4.23,3.26-8.66,5.45-13.32,6.55-4.66,1.1-8.57,1.1-11.74,0-3.17-1.1-4.75-3.1-4.75-5.98v-43.92c0-.19,2.16-.29,6.48-.29s6.48.1,6.48.29v43.92Zm25.92,33.98v8.64c0,.58-2.11,4.41-6.34,11.52-4.23,7.1-6.34,10.46-6.34,10.08v-108.14c0-.19,2.11-.29,6.34-.29s6.34.1,6.34.29v77.9Zm-12.38-64.8c4.61-6.14,10.01-10.17,16.2-12.1,6.19-1.92,11.61-1.94,16.27-.07,4.66,1.87,6.98,4.68,6.98,8.42v40.9c0,.19-2.16.29-6.48.29s-6.48-.1-6.48-.29v-40.9c0-3.74-1.42-5.83-4.25-6.26-2.83-.43-5.98.14-9.43,1.73-3.46,1.58-5.57,3-6.34,4.25-.38.58-1.2,1.32-2.45,2.23-1.25.91-2.35,1.58-3.31,2.02-.96.43-1.2.36-.72-.22h0Zm82.94-13.1c0-.19,2.11-.29,6.34-.29s6.34.1,6.34.29v75.89c-.77,11.33-5.23,19.08-13.39,23.26-8.16,4.18-17.81,6.55-28.94,7.13-1.35.09-2.16.07-2.45-.07-.29-.14.24-.41,1.58-.79,6.82-1.82,12.29-3.79,16.42-5.9,4.13-2.11,7.42-5.04,9.86-8.78,2.45-3.74,3.86-8.69,4.25-14.83v-75.89h0Zm-17.57,43.92c0,1.73,1.3,2.64,3.89,2.74,2.59.1,5.47-.41,8.64-1.51,3.17-1.1,5.28-2.23,6.34-3.38,1.15-1.25,2.21-2.21,3.17-2.88.96-.67,1.49-.86,1.58-.58.09.29-.43,1.06-1.58,2.3-4.42,4.9-9.34,8.02-14.76,9.36-5.42,1.34-10.15,1.3-14.18-.14-4.03-1.44-6.05-3.41-6.05-5.9v-43.92c0-.19,2.16-.29,6.48-.29s6.48.1,6.48.29v43.92Z"/><rect class="cls-4" x="2026.66" y="60.25" width="32.37" height="69.15"/><rect class="cls-4" x="1975.83" y="60.25" width="32.37" height="69.15"/><rect class="cls-4" x="2077.49" y="60.25" width="63.29" height="69.15"/><polygon class="cls-4" points="2135.88 188.38 2135.88 1.28 2189.32 94.83 2135.88 188.38"/><rect class="cls-4" x="2026.66" y="642.65" width="32.37" height="69.15"/><rect class="cls-4" x="1975.83" y="642.65" width="32.37" height="69.15"/><rect class="cls-4" x="2077.49" y="642.65" width="63.29" height="69.15"/><polygon class="cls-4" points="2135.88 770.77 2135.88 583.67 2189.32 677.22 2135.88 770.77"/><rect class="cls-4" x="2026.66" y="340.7" width="32.37" height="69.15"/><rect class="cls-4" x="1975.83" y="340.7" width="32.37" height="69.15"/><rect class="cls-4" x="2077.49" y="340.7" width="63.29" height="69.15"/><polygon class="cls-4" points="2135.88 468.82 2135.88 281.72 2189.32 375.27 2135.88 468.82"/><path class="cls-5" d="m2805.73,103.75c0-6.48,4.32-10.22,9.25-10.22,2.56,0,4.32,1.08,5.69,2.34l-1.55,1.91c-1.15-1.04-2.41-1.76-4.03-1.76-3.64,0-6.33,3.13-6.33,7.74s2.52,7.74,6.26,7.74c1.84,0,3.49-.9,4.72-1.98l1.3,1.94c-1.73,1.55-3.89,2.48-6.26,2.48-5.11,0-9.03-3.74-9.03-10.19Z"/><path class="cls-5" d="m2823.8,108.46c0-4.25,3.71-6.33,12.06-7.27.04-2.63-.79-5.22-4.14-5.22-2.34,0-4.43,1.12-5.9,2.16l-1.19-2.05c1.69-1.12,4.43-2.56,7.56-2.56,4.71,0,6.59,3.2,6.59,7.88v12.06h-2.41l-.25-2.38h-.11c-1.87,1.58-4.1,2.84-6.55,2.84-3.2,0-5.65-1.94-5.65-5.47Zm12.06.4v-5.69c-6.88.79-9.21,2.45-9.21,5.11,0,2.34,1.62,3.28,3.6,3.28s3.64-.94,5.62-2.7Z"/><path class="cls-5" d="m2845.19,109.9v-25.09h2.92v25.3c0,.97.4,1.37.9,1.37.18,0,.32,0,.68-.07l.43,2.27c-.47.14-.94.25-1.76.25-2.23,0-3.17-1.44-3.17-4.03Z"/><path class="cls-5" d="m2855.77,107.6v-11.16h-2.95v-2.23l3.06-.18.36-5.51h2.45v5.51h5.36v2.41h-5.36v11.27c0,2.38.72,3.82,3.06,3.82.72,0,1.62-.25,2.27-.54l.58,2.23c-1.08.36-2.38.72-3.46.72-4.07,0-5.36-2.56-5.36-6.33Z"/><path class="cls-5" d="m2804.98,401.68l1.48-1.98c1.69,1.37,3.42,2.34,5.87,2.34,2.7,0,4.03-1.44,4.03-3.24,0-2.09-2.34-3.02-4.54-3.82-2.77-1.01-5.76-2.3-5.76-5.62,0-3.02,2.41-5.44,6.62-5.44,2.34,0,4.43.97,5.9,2.16l-1.44,1.91c-1.33-.97-2.7-1.73-4.46-1.73-2.59,0-3.78,1.37-3.78,2.95,0,1.94,2.02,2.7,4.25,3.49,2.84,1.12,6.01,2.23,6.01,5.94,0,3.1-2.45,5.69-6.95,5.69-2.77,0-5.4-1.15-7.23-2.66Z"/><path class="cls-5" d="m2821.64,401.68l1.48-1.98c1.69,1.37,3.42,2.34,5.87,2.34,2.7,0,4.03-1.44,4.03-3.24,0-2.09-2.34-3.02-4.54-3.82-2.77-1.01-5.76-2.3-5.76-5.62,0-3.02,2.41-5.44,6.62-5.44,2.34,0,4.43.97,5.9,2.16l-1.44,1.91c-1.33-.97-2.7-1.73-4.46-1.73-2.59,0-3.78,1.37-3.78,2.95,0,1.94,2.02,2.7,4.25,3.49,2.84,1.12,6.01,2.23,6.01,5.94,0,3.1-2.45,5.69-6.95,5.69-2.77,0-5.4-1.15-7.23-2.66Z"/><path class="cls-5" d="m2838.96,390.99c0-8.57,3.02-13.21,8.1-13.21s8.03,4.68,8.03,13.21-2.99,13.35-8.03,13.35-8.1-4.79-8.1-13.35Zm13.28,0c0-7.59-2.09-10.8-5.18-10.8s-5.25,3.2-5.25,10.8,2.12,10.98,5.25,10.98,5.18-3.38,5.18-10.98Z"/><path class="cls-5" d="m2860.13,401.43h5.9v-19.44h-4.64v-1.91c2.27-.4,3.96-1.01,5.33-1.8h2.23v23.15h5.36v2.45h-14.18v-2.45Z"/><path class="cls-5" d="m2805.77,683.63c0-6.26,4-10.22,8.46-10.22,2.3,0,3.82.86,5.58,2.3l-.14-3.38v-7.63h2.92v28.65h-2.41l-.25-2.34h-.11c-1.55,1.55-3.64,2.81-6.01,2.81-4.9,0-8.03-3.67-8.03-10.19Zm13.89,4.93v-10.51c-1.76-1.55-3.28-2.16-4.97-2.16-3.31,0-5.87,3.2-5.87,7.74,0,4.79,2.02,7.7,5.58,7.7,1.87,0,3.53-.94,5.25-2.77Z"/><path class="cls-5" d="m2829.38,689.79v-25.09h2.92v25.3c0,.97.4,1.37.9,1.37.18,0,.32,0,.68-.07l.43,2.27c-.47.14-.94.25-1.76.25-2.23,0-3.17-1.44-3.17-4.03Z"/><path class="cls-5" d="m2838.85,667.69c0-1.19.83-1.98,2.05-1.98,1.15,0,2.02.79,2.02,1.98,0,1.26-.86,2.05-2.02,2.05-1.22,0-2.05-.79-2.05-2.05Zm.58,6.23h2.92v19.44h-2.92v-19.44Z"/><path class="cls-5" d="m2847.56,697.13c0-1.66,1.08-3.28,2.88-4.46v-.14c-1.01-.61-1.76-1.66-1.76-3.2s1.19-2.88,2.16-3.6v-.14c-1.26-1.01-2.52-2.92-2.52-5.25,0-4.18,3.28-6.91,7.2-6.91,1.08,0,2.02.25,2.7.5h6.73v2.27h-4.1c.97.94,1.69,2.45,1.69,4.21,0,4.14-3.1,6.8-7.02,6.8-.97,0-2.09-.25-2.99-.72-.72.61-1.3,1.3-1.3,2.45,0,1.26.79,2.2,3.46,2.2h3.89c4.46,0,6.7,1.4,6.7,4.61,0,3.53-3.78,6.66-9.68,6.66-4.79,0-8.03-1.91-8.03-5.26Zm14.83-.97c0-1.91-1.4-2.56-4.07-2.56h-3.56c-.61,0-1.58-.11-2.48-.32-1.48,1.04-2.12,2.3-2.12,3.49,0,2.16,2.2,3.56,5.83,3.56,3.89,0,6.41-2.09,6.41-4.18Zm-2.52-15.84c0-2.92-1.98-4.72-4.36-4.72s-4.36,1.76-4.36,4.72,2.02,4.86,4.36,4.86,4.36-1.91,4.36-4.86Z"/></g></svg>