<?xml version="1.0" encoding="UTF-8"?><svg id="_图层_2" xmlns="http://www.w3.org/2000/svg" xmlns:xlink="http://www.w3.org/1999/xlink" viewBox="0 0 737.01 649.71"><defs><style>.cls-1{clip-path:url(#clippath);}.cls-2{fill:none;}.cls-2,.cls-3{stroke-width:0px;}.cls-4{clip-path:url(#clippath-1);}.cls-5{clip-path:url(#clippath-2);}.cls-3{fill:#2a282c;}</style><clipPath id="clippath"><rect class="cls-2" width="737.01" height="649.71"/></clipPath><clipPath id="clippath-1"><rect class="cls-2" x="297.76" y="502.19" width="21.71" height="50.62"/></clipPath><clipPath id="clippath-2"><rect class="cls-2" x="691.21" y="501.49" width="30.81" height="52.03"/></clipPath></defs><g id="_图层_1-2"><g class="cls-1"><path class="cls-3" d="m28.26,13.65v20.92c0,.23-.17.34-.51.34s-.51-.11-.51-.34l-.07-10.29c0-4.11-.56-6.86-1.68-8.23-1.12-1.37-2.23-2.17-3.33-2.4h-.07V3.77c0-.09,1.03-.14,3.09-.14s3.09.05,3.09.14v9.87Zm3.36,24.35c.09,0-.06,1.12-.45,3.36-.39,2.24-.65,3.36-.79,3.36h-11.11s.11-1.12.48-3.36c.37-2.24.62-3.36.75-3.36h11.11Zm-5.01,3.7c-.87.87-2.24,1.66-4.11,2.37-1.88.71-4.28,1.06-7.2,1.06-4.07,0-7.09-.78-9.05-2.33-1.97-1.55-3.17-3.25-3.6-5.07-.44-1.83-.63-3.7-.58-5.62V3.77c0-.09,1.03-.14,3.09-.14s3.09.05,3.09.14v28.12c0,2.29.11,4.25.34,5.9.23,1.65.87,3.11,1.92,4.39,1.05,1.28,2.65,1.92,4.8,1.92s3.87-.46,4.9-1.37c1.03-.91,1.54-1.92,1.54-3.02,0-.09,1.03-.14,3.09-.14s3.09.05,3.09.14c0,.46-.44,1.12-1.3,1.99"/><path class="cls-3" d="m66.25,43.69v.96c0,.09-1.03.14-3.09.14s-3.09-.05-3.09-.14v-23.93c0-.09,1.03-.14,3.09-.14s3.09.05,3.09.14v22.97Zm-12.34-2.06c0,1.01.41,1.57,1.23,1.68.82.11,1.76-.03,2.81-.45,1.05-.41,1.83-.82,2.33-1.24.64-.46,1.22-.81,1.75-1.06.53-.25.8-.31.82-.17.02.14-.29.46-.93.96-2.01,1.56-4.13,2.6-6.34,3.12-2.22.53-4.08.53-5.59,0-1.51-.53-2.26-1.47-2.26-2.85v-20.92c0-.09,1.03-.14,3.09-.14s3.09.05,3.09.14v20.92Zm-12.34,0c0,1.01.41,1.57,1.24,1.68.82.11,1.76-.03,2.81-.45,1.05-.41,1.83-.82,2.33-1.24.64-.46,1.22-.81,1.75-1.06.53-.25.8-.31.82-.17.02.14-.29.46-.93.96-2.01,1.56-4.13,2.6-6.34,3.12-2.22.53-4.08.53-5.59,0-1.51-.53-2.26-1.47-2.26-2.85v-20.92c0-.09,1.03-.14,3.09-.14s3.09.05,3.09.14v20.92Z"/><path class="cls-3" d="m161.57,26.54h.21c.23,0-.73.64-2.88,1.92-2.15,1.28-3.34,1.92-3.57,1.92l-.75-.14c-5.12-1.1-10.95-1.65-17.49-1.65-.82,0-1.41-.14-1.75-.41-.34-.27-.34-.56,0-.86.34-.3.93-.45,1.75-.45,11.29,0,19.45-.11,24.48-.34m-28.05-9.87v-.69c-.05-2.19.16-4.18.62-5.97.46-1.78,1.66-3.38,3.6-4.8,1.94-1.42,4.95-2.13,9.02-2.13s6.98.7,8.88,2.09c1.9,1.4,3.06,2.96,3.5,4.7.43,1.74.63,3.73.58,5.97v3.98c0,.09-1.03.14-3.09.14s-3.09-.04-3.09-.14v-3.91c0-2.42-.11-4.41-.34-5.97-.23-1.55-.83-2.91-1.82-4.08-.98-1.17-2.53-1.75-4.63-1.75s-3.75.62-4.8,1.85c-1.05,1.24-1.69,2.68-1.92,4.32-.23,1.65-.34,3.68-.34,6.1v28.12c0,.09-1.03.14-3.09.14s-3.09-.05-3.09-.14v-27.84Z"/><path class="cls-3" d="m175.46,21.02c2.81-.75,5.34-.78,7.58-.07,2.24.71,3.36,1.84,3.36,3.39v9.05c0,.09-1.03.14-3.09.14s-3.09-.04-3.09-.14v-9.05c0-1.51-.58-2.35-1.75-2.54-1.17-.18-2.46.02-3.88.62-1.42.6-2.29,1.12-2.61,1.58-.23.27-.68.61-1.34.99-.66.39-1.23.68-1.71.86-.48.18-.61.12-.38-.21,1.78-2.33,4.08-3.87,6.89-4.63m2.98,21.98c2.56,0,4.55.27,5.97.82,1.42.55,2.38,1.2,2.88,1.95.5.75.75,1.5.75,2.23,0,.05-.51.08-1.54.1-1.03.02-2.06.02-3.09,0-1.03-.02-1.54-.06-1.54-.1,0-.96-.09-1.69-.27-2.19-.18-.5-.53-.87-1.03-1.1-.5-.23-1.21-.34-2.13-.34h-10.15c-.82,0-1.41-.11-1.75-.34-.34-.23-.34-.46,0-.69.34-.23.93-.34,1.75-.34h10.15Zm-7.06,14.81v4.11c0,.28-1.01,2.1-3.02,5.49-2.01,3.38-3.02,4.98-3.02,4.8V20.71c0-.09,1.01-.14,3.02-.14s3.02.05,3.02.14v37.1Z"/><path class="cls-3" d="m296.67,26.13c2.56.87,4.46,2.13,5.69,3.77-.6.05-1.7.09-3.33.14-1.62.05-2.48,0-2.57-.14-1.19-1.55-2.46-2.56-3.81-3.02-1.35-.46-3.1-.69-5.25-.69-.82,0-1.41-.11-1.75-.34-.34-.23-.34-.46,0-.69.34-.23.93-.34,1.75-.34,3.61,0,6.7.43,9.26,1.3m-11.66-10.15v-1.1c.04-2.19-.03-4.02-.24-5.49-.21-1.46-.77-2.71-1.68-3.74-.92-1.03-2.33-1.54-4.25-1.54-2.88,0-4.88,1.03-6,3.09-1.12,2.06-1.68,4.53-1.68,7.41,0,3.34.49,5.89,1.47,7.65.98,1.76,2.85,2.64,5.59,2.64h9.33c.73,0,1.23.12,1.51.34s.26.46-.03.69c-.3.23-.79.34-1.47.34h-9.33c-3.52,0-6.26-.67-8.23-2.02-1.97-1.35-3.29-2.9-3.98-4.66-.69-1.76-1.03-3.42-1.03-4.97,0-2.79.95-5.41,2.85-7.85,1.9-2.45,5.57-3.67,11.01-3.67,3.79,0,6.61.66,8.44,1.99,1.83,1.33,2.95,2.84,3.36,4.53.41,1.69.59,3.59.55,5.69v29.22c0,.09-1.03.14-3.09.14s-3.09-.05-3.09-.14V15.98Z"/><path class="cls-3" d="m327.87,40.6c.78-.69,1.23-.98,1.37-.89,2.38,1.01,3.84,1.65,4.39,1.92l.27.14-1.51,1.03,1.65-1.58c.59-.55,1.03-.87,1.3-.96.27-.09.3.03.07.38-.23.34-.64.81-1.23,1.41l-1.65,1.58c-.27.27-.57.53-.89.75-.32.23-.53.32-.62.28-.09-.05-.18-.09-.27-.14-2.38-1.01-3.84-1.65-4.39-1.92l1.37-.89-2.26,2.13c-.59.55-1.01.85-1.23.89-.23.05-.21-.14.07-.55.27-.41.71-.89,1.3-1.44l2.26-2.13Zm-14.16-19.24c2.95-1.03,5.57-1.17,7.85-.41,2.29.75,3.43,2.16,3.43,4.22v37.45c0,.28-1.01,2.1-3.02,5.49-2.01,3.38-3.02,4.98-3.02,4.8l.07-14.4V25.17c0-1.74-.66-2.75-1.99-3.05-1.33-.3-2.8-.09-4.42.62s-2.69,1.47-3.19,2.3c-.18.27-.57.63-1.17,1.06-.6.44-1.12.77-1.58.99-.46.23-.57.18-.34-.14,1.97-2.7,4.42-4.56,7.37-5.59m-3.12,20.27c0,.82.62,1.26,1.85,1.3,1.23.05,2.61-.19,4.11-.72,1.51-.53,2.51-1.06,3.02-1.61.55-.59,1.05-1.05,1.51-1.37.46-.32.71-.41.75-.28.05.14-.21.5-.75,1.1-2.1,2.33-4.45,3.82-7.03,4.46-2.58.64-4.83.62-6.76-.07-1.92-.69-2.88-1.62-2.88-2.81v-20.92c0-.09,1.03-.14,3.09-.14s3.09.05,3.09.14v20.92Z"/><path class="cls-3" d="m435.26,27.16h.55c.14,0-.31.32-1.34.96-1.03.64-2.1,1.28-3.22,1.92-1.12.64-1.75.96-1.89.96-.18-.04-.31-.08-.38-.1-.07-.02-.19-.06-.38-.1-1.19-.41-2.58-.78-4.18-1.1-1.6-.32-3.41-.48-5.42-.48-.82,0-1.41-.14-1.75-.41-.34-.27-.34-.56,0-.86.34-.3.93-.45,1.75-.45,4.89,0,10.31-.11,16.25-.34m-39.16-10.49v-.76c-.05-2.24.15-4.23.58-5.97.43-1.74,1.61-3.31,3.53-4.73,1.92-1.42,4.91-2.13,8.98-2.13s7.06.71,8.98,2.13,3.1,2.99,3.53,4.73c.43,1.74.63,3.73.58,5.97v28.6c0,.09-1.03.14-3.09.14s-3.09-.05-3.09-.14v-28.39c0-2.38-.11-4.36-.34-5.97-.23-1.6-.85-3.01-1.85-4.22-1.01-1.21-2.58-1.82-4.73-1.82s-3.73.61-4.73,1.82c-1.01,1.21-1.62,2.62-1.85,4.22-.23,1.6-.34,3.59-.34,5.97v3.7c0,.09-1.03.14-3.09.14s-3.09-.04-3.09-.14v-3.15Z"/><path class="cls-3" d="m461.32,40.6c.78-.69,1.23-.98,1.37-.89,2.38,1.01,3.84,1.65,4.39,1.92l.27.14-1.51,1.03,1.65-1.58c.59-.55,1.03-.87,1.3-.96.27-.09.3.03.07.38-.23.34-.64.81-1.23,1.41l-1.65,1.58c-.27.27-.57.53-.89.75-.32.23-.53.32-.62.28-.09-.05-.18-.09-.27-.14-2.38-1.01-3.84-1.65-4.39-1.92l1.37-.89-2.26,2.13c-.59.55-1.01.85-1.23.89-.23.05-.21-.14.07-.55.27-.41.71-.89,1.3-1.44l2.26-2.13Zm-13.61-19.48c2.81-.91,5.3-.99,7.48-.24,2.17.76,3.26,2.3,3.26,4.63v37.1c0,.28-1.01,2.1-3.02,5.49-2.01,3.38-3.02,4.98-3.02,4.8l.07-14.4V25.51c0-1.55-.54-2.55-1.61-2.98-1.08-.43-2.29-.45-3.63-.03-1.35.41-2.25.91-2.71,1.51-.23.27-.68.61-1.34,1-.66.39-1.23.67-1.71.86-.48.18-.61.12-.38-.21,1.6-2.1,3.81-3.61,6.62-4.53m-3.33,22.56v.96c0,.09-1.03.14-3.09.14s-3.09-.05-3.09-.14v-23.93c0-.09,1.03-.14,3.09-.14s3.09.05,3.09.14v22.97Z"/><path class="cls-3" d="m555.96,13.17h.21c.23,0-.73.64-2.88,1.92-2.15,1.28-3.34,1.92-3.57,1.92l-.75-.14c-5.12-1.1-10.95-1.65-17.49-1.65-.82,0-1.41-.14-1.75-.41-.34-.27-.34-.56,0-.86.34-.3.93-.45,1.75-.45,11.29,0,19.45-.11,24.48-.34m-1.85,18.45v.55c.04,1.97-.15,3.85-.58,5.66-.44,1.81-1.6,3.48-3.5,5.01-1.9,1.53-4.86,2.3-8.88,2.3s-7.09-.78-9.05-2.33c-1.97-1.55-3.17-3.25-3.6-5.07-.44-1.83-.63-3.7-.58-5.62V3.57c0-.09,1.03-.14,3.09-.14s3.09.05,3.09.14v28.32c0,2.29.11,4.25.34,5.9.23,1.65.87,3.11,1.92,4.39,1.05,1.28,2.65,1.92,4.8,1.92s3.65-.61,4.63-1.82c.98-1.21,1.59-2.59,1.82-4.15.23-1.55.34-3.47.34-5.76v-4.8c0-.09,1.03-.14,3.09-.14s3.09.05,3.09.14v4.05Z"/><path class="cls-3" d="m580.38,44.03v.62c0,.09-1.03.14-3.09.14s-3.09-.05-3.09-.14v-15.91c0-.09,1.03-.14,3.09-.14s3.09.05,3.09.14v15.29Zm-9.84-23.59h11.35c.09,0,.14.25.14.75s-.05.75-.14.75h-18.17c-.09,0-.14-.25-.14-.75s.04-.75.14-.75h6.82Zm-4.42,20.03c0,1.33.75,2.05,2.26,2.16,1.51.12,3.18-.16,5.01-.82,1.83-.66,3.02-1.34,3.57-2.02.32-.59.74-1.14,1.27-1.65.53-.5.91-.79,1.17-.86.25-.07.22.17-.1.72-2.29,3.25-4.91,5.34-7.89,6.28-2.97.94-5.6.94-7.89,0-2.29-.94-3.43-2.21-3.43-3.81V.14c0-.09,1.01-.14,3.02-.14s3.02.05,3.02.14v40.33Z"/><path class="cls-3" d="m685.02,45.81c-.6-1.14-1.45-2.22-2.57-3.22-1.12-1.01-3.1-1.91-5.93-2.71-2.84-.8-6.7-1.13-11.59-1-.23,0-.34-.23-.34-.69s.11-.69.34-.69c7.27-.18,12.97.02,17.11.62,4.14.59,7.12,2.03,8.95,4.32.09.09-.8.8-2.67,2.13-1.88,1.33-2.86,1.94-2.95,1.85-.05-.05-.16-.25-.34-.62m-24.48-29.15c0-3.34.88-6.47,2.64-9.4,1.76-2.92,5.2-4.39,10.32-4.39s8.72,1.52,10.53,4.56c1.81,3.04,2.71,6.34,2.71,9.91,0,4.66-1.3,8.7-3.91,12.1-2.61,3.41-7.11,6.39-13.51,8.95-.41.14-.72.16-.93.07-.21-.09-.26-.25-.17-.48.09-.23.32-.41.69-.55,3.38-1.33,5.91-2.89,7.58-4.7,1.67-1.81,2.77-3.87,3.29-6.21.52-2.33.79-5.39.79-9.19v-.34c0-2.7-.11-4.91-.34-6.65-.23-1.74-.86-3.25-1.89-4.53-1.03-1.28-2.64-1.92-4.83-1.92s-3.65.6-4.63,1.78c-.98,1.19-1.59,2.57-1.82,4.15-.23,1.58-.34,3.58-.34,6v3.98c0,.09-1.03.14-3.09.14s-3.09-.04-3.09-.14v-3.15Zm-1.37,14.4c0-.09,1.03-.14,3.09-.14s3.09.05,3.09.14v13.44c0,.09-1.03.14-3.09.14s-3.09-.05-3.09-.14v-13.44Z"/><path class="cls-3" d="m721.58,66.25c2.56,0,4.55.28,5.97.82,1.42.55,2.38,1.2,2.88,1.96.5.75.75,1.5.75,2.23,0,.04-.51.08-1.54.1-1.03.02-2.06.02-3.09,0-1.03-.02-1.54-.06-1.54-.1,0-.96-.09-1.69-.27-2.2-.18-.5-.53-.87-1.03-1.1-.5-.23-1.21-.34-2.13-.34h-10.15c-.82,0-1.41-.12-1.75-.34-.34-.23-.34-.46,0-.69.34-.23.93-.34,1.75-.34h10.15Zm-17.76-45.26c2.79-.78,5.25-.72,7.37.17,2.13.89,3.19,2.34,3.19,4.35v41.42c0,.28-.5.47-1.51.58-1.01.11-2,.11-2.98,0-.98-.11-1.47-.31-1.47-.58V25.51c0-1.65-.57-2.63-1.71-2.95-1.14-.32-2.42-.25-3.84.21-1.42.46-2.29.89-2.61,1.3-.18.28-.61.61-1.27.99-.66.39-1.23.66-1.71.82s-.61.1-.38-.17c1.83-2.38,4.14-3.95,6.93-4.73m-3.57,20.64c0,1.01.43,1.56,1.3,1.65.87.09,1.85-.08,2.95-.52,1.1-.43,1.9-.86,2.4-1.27.59-.46,1.15-.81,1.68-1.06.53-.25.8-.31.82-.17.02.14-.26.46-.86.96-2.01,1.6-4.15,2.67-6.41,3.22-2.26.55-4.17.56-5.73.03-1.56-.53-2.33-1.47-2.33-2.85v-20.92c0-.09,1.03-.14,3.09-.14s3.09.05,3.09.14v20.92Z"/><path class="cls-3" d="m11.45,139.61c3.47,0,6.86.48,10.15,1.44,3.29.96,5.51,2.17,6.65,3.63-6.31.14-9.51.14-9.6,0-.87-1.14-1.66-1.98-2.37-2.5-.71-.53-1.4-.86-2.06-1-.66-.14-1.59-.21-2.78-.21h-5.83c-.82,0-1.41-.11-1.75-.34-.34-.23-.34-.46,0-.69.34-.23.93-.34,1.75-.34h5.83Zm18.65-30.04h.21c.23,0-.73.64-2.88,1.92-2.15,1.28-3.34,1.92-3.57,1.92l-.75-.14c-5.12-1.1-10.95-1.65-17.49-1.65-.82,0-1.41-.14-1.75-.41-.34-.27-.34-.56,0-.86.34-.3.93-.45,1.75-.45,11.29,0,19.45-.11,24.48-.34m-28.05-9.6c0-.09,1.03-.14,3.09-.14s3.09.05,3.09.14v40.94c0,.09-1.03.14-3.09.14s-3.09-.05-3.09-.14v-40.94Z"/><path class="cls-3" d="m37.65,117.26c0-.5.05-.75.14-.75h15.64c.09,0,.14.25.14.75s-.05.75-.14.75h-15.64c-.09,0-.14-.25-.14-.75m6.52,22.56c3.66,0,6.17.53,7.54,1.58,1.37,1.05,2.06,2.19,2.06,3.43,0,.09-1.03.14-3.09.14s-3.09-.05-3.09-.14c0-1.37-.23-2.32-.69-2.85-.46-.53-1.37-.79-2.74-.79h-7.06c-.82,0-1.41-.11-1.75-.34-.34-.23-.34-.46,0-.69.34-.23.93-.34,1.75-.34h7.06Zm-3.98-1.17v2.4c0,.09-1.01.14-3.02.14s-3.02-.05-3.02-.14v-44.51c0-.09,1.01-.14,3.02-.14s3.02.05,3.02.14v42.11Z"/><path class="cls-3" d="m147.03,139.61c3.79,0,7.25.47,10.36,1.41,3.11.94,5.26,2.16,6.45,3.67-6.31.14-9.51.14-9.6,0-.87-1.14-1.62-1.97-2.26-2.47-.64-.5-1.3-.84-1.99-1-.69-.16-1.67-.24-2.95-.24h-9.94c-.82,0-1.41-.11-1.75-.34-.34-.23-.34-.46,0-.69.34-.23.93-.34,1.75-.34h9.94Zm-13.51-26.54v-.69c-.05-2.19.16-4.18.62-5.97.46-1.78,1.66-3.38,3.6-4.8,1.94-1.42,4.95-2.13,9.02-2.13s6.98.7,8.88,2.09c1.9,1.4,3.06,2.96,3.5,4.7.43,1.74.63,3.73.58,5.97v3.98c0,.09-1.03.14-3.09.14s-3.09-.04-3.09-.14v-3.91c0-2.42-.11-4.41-.34-5.97-.23-1.55-.83-2.91-1.82-4.08-.98-1.17-2.53-1.75-4.63-1.75s-3.75.62-4.8,1.85c-1.05,1.24-1.69,2.68-1.92,4.32-.23,1.65-.34,3.68-.34,6.1v28.12c0,.09-1.03.14-3.09.14s-3.09-.05-3.09-.14v-27.84Z"/><path class="cls-3" d="m175.91,117.39c2.79-.78,5.25-.73,7.37.14,2.13.87,3.19,2.33,3.19,4.39v19.13c0,.09-1.03.14-3.09.14s-3.09-.05-3.09-.14v-19.13c0-1.6-.56-2.57-1.68-2.91-1.12-.34-2.36-.3-3.7.14-1.35.44-2.18.86-2.5,1.27-.23.27-.68.61-1.34.99-.66.39-1.23.66-1.71.82-.48.16-.61.1-.38-.17,1.83-2.33,4.14-3.88,6.93-4.66m3.22,45.26c2.56,0,4.55.28,5.97.82,1.42.55,2.38,1.2,2.88,1.95.5.75.75,1.5.75,2.23,0,.04-.51.08-1.54.1-1.03.02-2.06.02-3.09,0-1.03-.02-1.54-.06-1.54-.1,0-.96-.09-1.69-.28-2.19-.18-.5-.53-.87-1.03-1.1-.5-.23-1.21-.34-2.13-.34h-10.15c-.82,0-1.41-.12-1.75-.34-.34-.23-.34-.46,0-.69.34-.23.93-.34,1.75-.34h10.15Zm-7.13-5.76v6.45c0,.28-.5.47-1.51.58-1.01.11-2,.11-2.98,0-.98-.11-1.48-.31-1.48-.58l-.07-6.45.07-39.78c0-.09,1-.14,2.98-.14s2.98.05,2.98.14v39.78Z"/><path class="cls-3" d="m264.99,113.07c0-3.38,1.01-6.49,3.02-9.33,2.01-2.83,6.17-4.25,12.48-4.25s10.3,1.41,12.24,4.22c1.94,2.81,2.91,5.93,2.91,9.36v15.5c0,3.2-.66,6.15-1.99,8.85-1.33,2.7-4.02,4.05-8.09,4.05-3.61,0-6.13-1.14-7.54-3.43-1.42-2.29-2.13-5.1-2.13-8.43,0-3.75,1.17-6.76,3.5-9.02,2.33-2.26,6.52-3.39,12.55-3.39,3.43,0,6.31.42,8.64,1.27,2.33.85,4.05,2.12,5.14,3.81-.6.05-1.71.08-3.36.1-1.65.02-2.49-.01-2.54-.1-1.05-1.55-2.13-2.56-3.22-3.02-1.1-.46-2.65-.69-4.66-.69-2.84,0-4.95.35-6.34,1.06-1.4.71-2.33,1.83-2.81,3.36-.48,1.53-.72,3.74-.72,6.62,0,7.22,1.17,10.84,3.5,10.84,1.6,0,2.65-1.11,3.15-3.33.5-2.22.75-5.06.75-8.54v-15.5c0-2.33-.16-4.37-.48-6.1-.32-1.74-1.14-3.25-2.47-4.53-1.33-1.28-3.34-1.92-6.04-1.92s-4.79.64-6.14,1.92c-1.35,1.28-2.22,2.8-2.61,4.56-.39,1.76-.58,3.78-.58,6.07v27.84c0,.09-1.03.14-3.09.14s-3.09-.05-3.09-.14v-27.84Z"/><path class="cls-3" d="m318.37,117.15c3.54-.71,6.7-.7,9.46.03,2.77.73,4.15,1.78,4.15,3.15v14.95c0,1.97-.77,3.47-2.3,4.53-1.53,1.05-3.39,1.58-5.59,1.58-2.61,0-4.67-.72-6.21-2.16-1.53-1.44-2.3-3.37-2.3-5.8s.77-4.4,2.3-6.07c1.53-1.67,3.83-2.5,6.89-2.5h10.77c.09,0,.06.23-.1.69-.16.46-.31.69-.45.69h-10.22c-1.1,0-1.88.21-2.33.62-.46.41-.74,1.06-.86,1.95-.11.89-.17,2.39-.17,4.49v1.85c.04,1.42.16,2.5.34,3.26.18.75.46,1.27.82,1.54.37.27.87.41,1.51.41h.07c.41,0,.73-.1.96-.31.23-.21.4-.67.51-1.41.11-.73.17-1.85.17-3.36v-14.95c0-1.51-.97-2.27-2.91-2.3-1.94-.02-4.1.31-6.48.99-2.38.69-3.68,1.14-3.91,1.37-.32.32-.82.68-1.51,1.06-.69.39-1.22.63-1.61.72-.39.09-.4-.05-.03-.41,2.47-2.38,5.47-3.92,9.02-4.63m-5.11,37.07v4.11c0,.28-1.01,2.1-3.02,5.49-2.01,3.38-3.02,4.98-3.02,4.8v-51.5c0-.09,1.01-.14,3.02-.14s3.02.05,3.02.14v37.1Z"/><path class="cls-3" d="m428.13,118.49c2.56.87,4.46,2.13,5.69,3.77-.6.05-1.7.09-3.33.14-1.62.05-2.48,0-2.57-.14-1.19-1.55-2.46-2.56-3.81-3.02-1.35-.46-3.1-.69-5.25-.69-.82,0-1.41-.11-1.75-.34-.34-.23-.34-.46,0-.69.34-.23.93-.34,1.75-.34,3.61,0,6.7.44,9.26,1.3m-18.45.07c-2.74,0-4.61.97-5.59,2.91-.98,1.94-1.47,4.72-1.47,8.33,0,2.97.56,5.51,1.68,7.61,1.12,2.1,3.12,3.15,6,3.15,1.92,0,3.34-.53,4.25-1.58.92-1.05,1.48-2.31,1.68-3.77.21-1.46.28-3.31.24-5.56v-29.63c0-.09,1.03-.14,3.09-.14s3.09.05,3.09.14v29.22c.04,2.15-.14,4.07-.55,5.76-.41,1.69-1.53,3.21-3.36,4.56-1.83,1.35-4.64,2.02-8.44,2.02-5.44,0-9.11-1.25-11.01-3.74-1.9-2.49-2.85-5.18-2.85-8.06,0-1.65.34-3.42,1.03-5.32.69-1.9,2.01-3.59,3.98-5.07,1.97-1.49,4.71-2.23,8.23-2.23h9.33c.73,0,1.23.11,1.51.34.27.23.26.46-.03.69-.3.23-.79.34-1.47.34h-9.33Z"/><path class="cls-3" d="m458.72,129.19c0,3.75-.94,6.79-2.81,9.12-1.88,2.33-4.85,3.5-8.91,3.5s-7.05-1.12-9.09-3.36c-2.03-2.24-3.05-4.98-3.05-8.23,0-3.84,1.21-6.98,3.63-9.43,2.42-2.45,6.17-3.67,11.25-3.67h14.4c.09,0,.14.23.14.69s-.05.69-.14.69h-14.4c-5.81,0-8.71,3.91-8.71,11.73,0,3.61.46,6.28,1.37,7.99.91,1.71,2.45,2.57,4.59,2.57s3.65-.89,4.49-2.67c.85-1.78,1.27-4.75,1.27-8.92l-.07-32.64c0-.09,1.01-.14,3.02-.14s3.02.05,3.02.14v32.64Z"/><path class="cls-3" d="m530.65,112.18c1.83-2.93,5.33-4.39,10.49-4.39,5.49,0,9.13,1.43,10.94,4.29,1.81,2.86,2.71,5.96,2.71,9.29v5.69c0,.09-1.03.14-3.09.14s-3.09-.04-3.09-.14v-6.1c0-2.38-.13-4.38-.38-6-.25-1.62-.93-3.05-2.02-4.29-1.1-1.23-2.79-1.85-5.07-1.85-2.15,0-3.75.62-4.8,1.85-1.05,1.23-1.69,2.67-1.92,4.32-.23,1.65-.34,3.68-.34,6.1v.27c0,.09-1.03.14-3.09.14s-3.09-.04-3.09-.14c0-3.2.91-6.26,2.74-9.19m-2.74-12.14c0-.09,1.03-.14,3.09-.14s3.09.05,3.09.14v40.87c0,.09-1.03.14-3.09.14s-3.09-.05-3.09-.14v-40.87Z"/><path class="cls-3" d="m569.68,117.39c2.79-.78,5.25-.73,7.37.14,2.13.87,3.19,2.33,3.19,4.39v19.13c0,.09-1.03.14-3.09.14s-3.09-.05-3.09-.14v-19.13c0-1.6-.56-2.57-1.68-2.91-1.12-.34-2.36-.3-3.7.14-1.35.44-2.18.86-2.5,1.27-.23.27-.68.61-1.34,1-.66.39-1.24.66-1.72.82-.48.16-.61.1-.38-.17,1.83-2.33,4.14-3.88,6.93-4.66m-3.98,35.39v5.55c0,.28-.98,2.1-2.95,5.49-1.97,3.38-2.95,4.98-2.95,4.8v-72.08c0-.09.98-.14,2.95-.14s2.95.05,2.95.14v56.24Z"/><path class="cls-3" d="m668.77,139.61c3.47,0,6.86.48,10.15,1.44,3.29.96,5.51,2.17,6.65,3.63-6.31.14-9.51.14-9.6,0-.87-1.14-1.66-1.98-2.37-2.5-.71-.53-1.4-.86-2.06-1-.66-.14-1.59-.21-2.78-.21h-5.83c-.82,0-1.41-.11-1.75-.34-.34-.23-.34-.46,0-.69.34-.23.93-.34,1.75-.34h5.83Zm-9.4-39.64c0-.09,1.03-.14,3.09-.14s3.09.05,3.09.14v40.94c0,.09-1.03.14-3.09.14s-3.09-.05-3.09-.14v-40.94Z"/><path class="cls-3" d="m693.73,155.66c0,1.19.13,2.26.38,3.22.25.96.9,1.83,1.96,2.61,1.05.78,2.65,1.17,4.8,1.17h2.68c.09,0,.14.22.14.65s-.05.65-.14.65h-3.36c-2.24-.05-4.27-.3-6.1-.75-1.83-.46-3.34-1.29-4.53-2.5-1.19-1.21-1.78-2.89-1.78-5.04v-38.54c0-.09,1-.14,2.98-.14s2.98.05,2.98.14v38.54Z"/><path class="cls-3" d="m35.11,212.63c0,3.29-.69,6.12-2.06,8.47-1.37,2.36-4.25,3.53-8.64,3.53-6.95,0-10.42-4-10.42-12v-7.89c0-.09,1.03-.14,3.09-.14s3.09.05,3.09.14v7.89c0,3.52.25,6.23.75,8.13.5,1.9,1.67,2.85,3.5,2.85,1.42,0,2.46-.46,3.12-1.37.66-.91,1.06-2.05,1.2-3.39.14-1.35.21-3.19.21-5.52v-8.57c0-.09,1.03-.14,3.09-.14s3.09.05,3.09.14v7.89Zm-19.89-8.02c.87,0,1.46.12,1.78.34.32.23.31.46-.03.69-.34.23-.93.34-1.75.34h-7.54c-.82,0-1.41-.11-1.75-.34-.34-.23-.34-.46,0-.69.34-.23.93-.34,1.75-.34h7.54Zm-13.17-8.02c0-.09,1.03-.14,3.09-.14s3.09.05,3.09.14v40.87c0,.09-1.03.14-3.09.14s-3.09-.05-3.09-.14v-40.87Z"/><path class="cls-3" d="m72.28,236.5v.96c0,.09-1.03.14-3.09.14s-3.09-.05-3.09-.14v-23.93c0-.09,1.03-.14,3.09-.14s3.09.05,3.09.14v22.97Zm-12.76-2.06c0,1.05.43,1.67,1.3,1.85.87.18,1.89.1,3.05-.24,1.17-.34,2.18-.79,3.05-1.34,1.14-.64,1.76-.86,1.85-.65.09.21-.44.65-1.58,1.34-2.01,1.14-4.1,1.89-6.28,2.23-2.17.34-3.98.23-5.42-.34-1.44-.57-2.16-1.52-2.16-2.85v-15.02c0-.09,1.03-.14,3.09-.14s3.09.05,3.09.14v15.02Zm-10.39-20.33c2.63-.85,5.02-1.01,7.17-.48,2.15.53,3.22,1.57,3.22,3.12v15.36c0,.09-1.03.14-3.09.14s-3.09-.05-3.09-.14v-15.36c0-1.24-.46-1.96-1.37-2.16-.92-.21-1.93-.07-3.05.41-1.12.48-1.91,1.02-2.37,1.61-.18.27-.6.61-1.23,1-.64.39-1.21.69-1.71.89-.5.21-.66.17-.48-.1,1.37-2.01,3.37-3.44,6-4.29m-2.78,35.08v5.55c0,.28-.98,2.1-2.95,5.49-1.97,3.38-2.95,4.98-2.95,4.8v-72.08c0-.09.98-.14,2.95-.14s2.95.05,2.95.14v56.24Z"/><path class="cls-3" d="m155.06,234.41c1.42-1.85,2.13-4.35,2.13-7.51v-17.76c0-3.75-.69-6.56-2.06-8.44-1.37-1.87-3.27-2.81-5.69-2.81s-4.32.94-5.69,2.81c-1.37,1.88-2.06,4.69-2.06,8.44v17.76c0,3.15.71,5.66,2.13,7.51,1.42,1.85,3.29,2.78,5.62,2.78s4.2-.93,5.62-2.78m-13.17,2.16c-2.1-1.1-3.69-2.51-4.77-4.25-1.07-1.74-1.61-3.54-1.61-5.42v-17.76c0-2.24.54-4.32,1.61-6.24,1.07-1.92,2.66-3.46,4.77-4.63,2.1-1.17,4.62-1.75,7.54-1.75s5.44.58,7.54,1.75c2.1,1.17,3.69,2.71,4.77,4.63,1.07,1.92,1.61,4,1.61,6.24v17.76c0,1.88-.54,3.68-1.61,5.42-1.07,1.74-2.66,3.15-4.77,4.25-2.1,1.1-4.62,1.65-7.54,1.65s-5.44-.55-7.54-1.65m-5.62-41.94c1.46,1.4,2.79,2.07,3.98,2.02l9.26-.14,8.92-.14c2.79-.04,5.23.17,7.34.65,2.1.48,3.75,1.06,4.94,1.75,1.19.69,1.92,1.28,2.2,1.78.09.09-.85.71-2.81,1.85-1.97,1.14-2.99,1.67-3.09,1.58-.96-1.55-2.24-2.99-3.84-4.32-1.6-1.33-3.09-1.97-4.46-1.92l-8.92.14-9.26.14c-2.74.05-5.1-.19-7.06-.72-1.97-.53-3.49-1.19-4.56-1.99-1.07-.8-1.79-1.59-2.16-2.37-.04-.14.92-.76,2.88-1.89,1.97-1.12,2.97-1.63,3.02-1.54.96,2.01,2.17,3.72,3.63,5.11"/><path class="cls-3" d="m200.39,213.39c.09,0,.14.23.14.69s-.05.69-.14.69h-7.89c-.09,0-.14-.23-.14-.69s.04-.69.14-.69h7.89Zm-24.04,6.45c1.44-1.97,3.47-3.53,6.1-4.7,2.63-1.17,5.63-1.75,9.02-1.75h8.98c.09,0,.14.23.14.69s-.05.69-.14.69h-8.98c-7.32,0-10.97,3.84-10.97,11.52,0,7.13,2.24,10.7,6.72,10.7,2.19,0,3.86-.89,5.01-2.67,1.14-1.78,1.71-4.46,1.71-8.02,0-2.1-.46-4.05-1.37-5.83-.92-1.78-2.02-3.36-3.33-4.73-1.3-1.37-3.01-2.97-5.11-4.8-2.47-2.2-4.28-3.99-5.42-5.38-1.14-1.39-1.71-2.89-1.71-4.49,0-1.92.88-3.61,2.64-5.07,1.76-1.46,3.28-2.51,4.56-3.15.05-.05.14.02.27.21.14.18.16.3.07.34-.37.18-.82.81-1.37,1.89-.55,1.07-.82,2-.82,2.78,0,1.74.62,3.41,1.85,5.01,1.23,1.6,3.13,3.59,5.69,5.97,2.24,2.15,4.03,3.99,5.38,5.52,1.35,1.53,2.51,3.29,3.5,5.28.98,1.99,1.47,4.15,1.47,6.48,0,2.06-.5,3.98-1.51,5.76-1.01,1.78-2.49,3.22-4.46,4.32-1.97,1.1-4.32,1.65-7.06,1.65s-5.1-.55-7.06-1.65c-1.97-1.1-3.45-2.54-4.46-4.32-1.01-1.78-1.51-3.7-1.51-5.76,0-2.33.72-4.48,2.16-6.45"/><path class="cls-3" d="m290.98,237.46c0,.09-1.03.14-3.09.14s-3.09-.05-3.09-.14v-23.8c0-.09,1.03-.14,3.09-.14s3.09.05,3.09.14v23.8Zm-20.02-28.8c0,3.66.61,6.53,1.82,8.61,1.21,2.08,2.95,3.63,5.21,4.66s5.27,1.82,9.02,2.37c.64.09.96.24.96.45s-.26.37-.79.48c-.53.11-1.09.13-1.68.03-6.36-.96-11.4-2.81-15.12-5.56-3.73-2.74-5.59-6.42-5.59-11.04v-12.07c0-.09,1.03-.14,3.09-.14s3.09.05,3.09.14v12.07Z"/><path class="cls-3" d="m317.04,250.63v4.11c0,.28-1.01,2.1-3.02,5.49-2.01,3.38-3.02,4.98-3.02,4.8v-51.5c0-.09,1-.14,3.02-.14s3.02.05,3.02.14v37.1Zm-14.26-17.35c0,1.33.75,2.05,2.26,2.16,1.51.12,3.18-.16,5.01-.82,1.83-.66,3.02-1.34,3.57-2.02.32-.59.74-1.14,1.27-1.65.53-.5.91-.79,1.17-.86.25-.07.22.17-.1.72-2.29,3.25-4.91,5.34-7.89,6.28-2.97.94-5.6.94-7.89,0-2.29-.94-3.43-2.21-3.43-3.81v-40.33c0-.09,1.01-.14,3.02-.14s3.02.05,3.02.14v40.33Z"/><path class="cls-3" d="m407.28,202.62l1.92-2.26,6.58,4.87c.09.05-.06.32-.45.82-.39.5-.88,1.01-1.47,1.51l-16.18,13.58,1.92-2.33c1.92,1.42,4.75,3.59,8.5,6.52l8.5,6.58c.09.09.15.44.17,1.03.02.59.01,1.23-.03,1.92l-.89,7.41c-.05.41-.16.69-.34.82-.18.14-.34.11-.48-.07-.14-.18-.18-.48-.14-.89l.75-7.13.14,2.95c-3.25-2.47-6.7-5.03-10.36-7.68l-10.36-7.61c-.09-.09.06-.38.45-.86.39-.48.88-.97,1.48-1.47l16.18-13.58-1.92,2.33-6.58-4.87c-.09-.09.06-.38.45-.86.39-.48.88-.95,1.47-1.41l3.5-3.02,3.5-2.95c.32-.27.61-.4.86-.38.25.02.37.16.34.41-.02.25-.2.51-.51.79l-7,5.83Z"/><path class="cls-3" d="m431.7,225.39c3.02-.91,5.73-.98,8.13-.21,2.4.78,3.6,2.33,3.6,4.66v25.58c0,.27-1.01,2.1-3.02,5.49-2.01,3.38-3.02,4.98-3.02,4.8l.07-14.4v-21.47c0-1.55-.65-2.55-1.95-2.98-1.3-.43-2.74-.45-4.32-.03-1.58.41-2.6.92-3.05,1.51-.23.27-.68.61-1.34.99-.66.39-1.23.68-1.71.86-.48.18-.61.12-.38-.21,1.65-2.15,3.98-3.68,7-4.59m-8.64-11.8c.27-4.39,1.25-7.97,2.91-10.73,1.67-2.77,4.01-5.09,7.03-6.96,1.97-1.23,3.84-2.09,5.62-2.57,1.78-.48,3.31-.66,4.59-.55,1.28.11,2.15.38,2.61.79.14.14-.03.65-.51,1.54-.48.89-1.02,1.71-1.61,2.47-.6.75-.98,1.06-1.17.93-1.51-1.23-2.93-2.05-4.25-2.43-1.33-.39-2.81-.08-4.46.93-1.01.64-1.95,2.29-2.85,4.94-.89,2.65-1.52,6.22-1.89,10.7l-1.17,18.11c0,.14-1.03.19-3.09.17-2.06-.02-3.09-.08-3.09-.17l1.3-17.15Z"/><path class="cls-3" d="m556.51,236.64c-.14.14-.33.09-.58-.14-.25-.23-.33-.41-.24-.55l5.76-6.93c.14-.14.33-.09.58.14.25.23.33.41.24.55l-5.76,6.93Zm-26.27-27.16v-.28c0-2.24.22-4.3.65-6.17.43-1.87,1.59-3.57,3.46-5.07,1.87-1.51,4.75-2.26,8.64-2.26s7.02.81,8.98,2.43c1.97,1.62,3.2,3.48,3.7,5.56.5,2.08.76,4.45.76,7.1,0,3.11-.71,6.79-2.13,11.04-1.42,4.25-3.75,8.01-7,11.28-3.25,3.27-7.43,4.9-12.55,4.9-4.3,0-6.63-1.39-7-4.18-.37-2.79,1.18-5.02,4.63-6.69,3.45-1.67,7.74-1.31,12.86,1.06.82.37,2.97,1.28,6.45,2.74,2.83,1.14,5.17,2.13,7,2.95.09.05-.58.94-2.02,2.67-1.44,1.74-2.23,2.58-2.37,2.54-1.88-.82-4.14-1.92-6.79-3.29l-6.1-2.95c-3.38-1.55-6.13-2-8.23-1.34-2.1.66-2.9,1.7-2.4,3.12.5,1.42,2.15,2.13,4.94,2.13,5.49,0,9.28-2.64,11.38-7.92,2.1-5.28,3.15-11.3,3.15-18.07,0-4.25-.47-7.66-1.41-10.22-.94-2.56-2.89-3.84-5.86-3.84-2.01,0-3.5.64-4.46,1.92-.96,1.28-1.55,2.77-1.78,4.46-.23,1.69-.34,3.77-.34,6.24v3.29c0,.09-1.03.14-3.09.14s-3.09-.04-3.09-.14v-3.15Z"/><path class="cls-3" d="m590.32,237.46c.04.09-1.08.15-3.36.17-2.29.02-3.45-.03-3.5-.17l-6.93-21.6c-.09-.18.09-.51.55-.99.46-.48.94-.88,1.44-1.2.5-.32.8-.37.89-.14l10.9,23.93Zm-15.81-.03c-3.09.66-5.42.42-7-.72-1.58-1.14-2.37-2.93-2.37-5.35,0-2.83.89-5.38,2.67-7.65,1.78-2.26,4.16-4.65,7.13-7.17l.34-.27c1.23-1.05,2.14-1.94,2.71-2.67.57-.73.82-1.49.75-2.26-.07-.78-.49-1.69-1.27-2.74-.41-.55-.97-1.04-1.68-1.48-.71-.43-1.68-.95-2.91-1.54-1.51-.73-2.66-1.38-3.46-1.95-.8-.57-1.31-1.25-1.54-2.02-.5-1.87,2.13-4.78,7.89-8.71.09-.04.21.01.34.17.14.16.16.29.07.38-2.47,1.65-3.36,3.68-2.67,6.1.23.78.74,1.45,1.54,2.02.8.57,1.95,1.22,3.46,1.95,1.23.6,2.21,1.11,2.91,1.54.71.44,1.27.93,1.68,1.48.73.96.67,2.18-.17,3.67-.85,1.49-2.8,3.51-5.86,6.07-.73.64-1.55,1.62-2.47,2.95-.92,1.33-1.71,2.96-2.4,4.9-.69,1.94-1.03,3.99-1.03,6.14,0,7.09,4.32,7.77,12.96,2.06.69-.41,1.28-.72,1.78-.93.5-.21.75-.23.75-.07s-.34.45-1.03.86c-4.34,2.84-8.06,4.58-11.14,5.25"/><path class="cls-3" d="m687.97,239.79c3.47,0,6.86.48,10.15,1.44,3.29.96,5.51,2.17,6.65,3.64-6.31.14-9.51.14-9.6,0-.87-1.14-1.66-1.98-2.37-2.5s-1.4-.86-2.06-.99c-.66-.14-1.59-.21-2.78-.21h-5.14c-.82,0-1.41-.12-1.75-.34-.34-.23-.34-.46,0-.69.34-.23.93-.34,1.75-.34h5.14Zm-28.6-30.31v-.82c-.05-2.24.15-4.23.58-5.97.43-1.74,1.6-3.3,3.5-4.7,1.9-1.39,4.86-2.09,8.88-2.09s7.07.71,9.02,2.13c1.94,1.42,3.14,3.02,3.6,4.8.46,1.78.66,3.77.62,5.97v32.23c0,.09-1.03.14-3.09.14s-3.09-.05-3.09-.14v-31.82c0-2.42-.11-4.46-.34-6.1-.23-1.65-.87-3.09-1.92-4.32-1.05-1.23-2.65-1.85-4.8-1.85s-3.65.58-4.63,1.75c-.98,1.17-1.59,2.53-1.82,4.08-.23,1.56-.34,3.54-.34,5.97v4.6c0,.09-1.03.14-3.09.14s-3.09-.04-3.09-.14v-3.84Z"/><path class="cls-3" d="m721.58,259.06c2.56,0,4.55.28,5.97.82,1.42.55,2.38,1.2,2.88,1.96.5.75.75,1.5.75,2.23,0,.04-.51.08-1.54.1-1.03.02-2.06.02-3.09,0-1.03-.02-1.54-.06-1.54-.1,0-.96-.09-1.69-.27-2.19-.18-.5-.53-.87-1.03-1.1-.5-.23-1.21-.34-2.13-.34h-10.15c-.82,0-1.41-.12-1.75-.34-.34-.23-.34-.46,0-.69.34-.23.93-.34,1.75-.34h10.15Zm-17.73-45.26c2.77-.78,5.21-.73,7.34.14,2.13.87,3.19,2.33,3.19,4.39v41.42c0,.28-.5.47-1.51.58-1.01.11-2,.11-2.98,0-.98-.11-1.47-.31-1.47-.58v-41.42c0-1.6-.57-2.57-1.71-2.92-1.14-.34-2.4-.3-3.77.14-1.37.43-2.22.86-2.54,1.27-.23.27-.68.61-1.34,1-.66.39-1.23.66-1.71.82-.48.16-.61.1-.38-.17,1.83-2.33,4.13-3.89,6.89-4.66m-3.53,22.7v.96c0,.09-1.03.14-3.09.14s-3.09-.05-3.09-.14v-23.93c0-.09,1.03-.14,3.09-.14s3.09.05,3.09.14v22.97Z"/><path class="cls-3" d="m33.54,333.8c-5.3.28-8.05.28-8.23,0-13.35-22.13-20.35-33.7-20.99-34.7-.05-.09.09-.3.41-.62.32-.32.5-.43.55-.34,18.56,23.36,27.98,35.25,28.26,35.66m-18.17.24c-3.75.57-6.96.45-9.64-.38-2.67-.82-4.01-2.67-4.01-5.56,0-.87.45-2.45,1.34-4.73.89-2.29,2.68-5.5,5.38-9.64,2.7-4.14,6.52-8.99,11.45-14.57,2.51-2.83,4.71-4.81,6.58-5.93,1.87-1.12,3.57-1.15,5.07-.1.18.14.03.65-.45,1.54-.48.89-1.03,1.73-1.65,2.5-.62.78-1.02,1.12-1.2,1.03-1.23-.87-2.16-1.38-2.78-1.54-.62-.16-1.18-.05-1.68.34-.5.39-1.3,1.22-2.4,2.5l-.55.62c-3.8,4.3-6.6,8.16-8.4,11.59-1.81,3.43-2.9,6.18-3.29,8.26-.39,2.08-.54,3.99-.45,5.73v.62c0,3.06.94,5,2.81,5.8,1.87.8,4.11.93,6.72.38,2.61-.55,5.92-1.51,9.94-2.88l.62-.21c.55-.18.72-.15.51.1-.21.25-.63.58-1.27,1-.64.41-1.21.69-1.71.82-3.57,1.24-7.22,2.14-10.97,2.71"/><path class="cls-3" d="m48.01,333.66c-3.11.69-5.67.4-7.68-.86-2.01-1.26-3.02-3.35-3.02-6.28,0-2.19.91-5.38,2.74-9.57,1.83-4.18,4.53-9.22,8.09-15.12,3.38-5.62,6.44-9.26,9.16-10.91,2.72-1.65,5.13-1.83,7.24-.55.18.14.03.65-.45,1.54-.48.89-1.03,1.73-1.65,2.5-.62.78-1.02,1.12-1.2,1.03l-.55-.34c-1.55-.96-2.73-1.49-3.53-1.58-.8-.09-1.74.45-2.81,1.61-1.07,1.17-2.59,3.35-4.56,6.55-2.33,3.93-3.99,8.02-4.97,12.28-.98,4.25-1.47,8.07-1.47,11.45s.77,5.32,2.3,6.07c1.53.76,3.19.84,4.97.24,1.78-.59,3.04-1.19,3.77-1.78.46-.41,1.01-.79,1.65-1.13.64-.34,1.1-.52,1.37-.55.27-.02.18.17-.27.58-2.97,2.51-6.01,4.11-9.12,4.8m-7.54-26.27c5.99.64,10.61,2.57,13.85,5.8,3.25,3.22,4.87,8.42,4.87,15.6l.07,4.46c0,.27-.51.47-1.54.58-1.03.11-2.06.11-3.09,0-1.03-.11-1.54-.31-1.54-.58l.07-2.26c.05-.46.07-1.19.07-2.19,0-5.17-.51-9.18-1.54-12.04-1.03-2.86-2.48-4.87-4.35-6.04-1.88-1.17-4.25-1.91-7.13-2.23-1.83-.23-3.66-.34-5.49-.34-.09,0-.14-.18-.14-.55s.05-.55.14-.55c1.87,0,3.79.11,5.76.34"/><path class="cls-3" d="m168.22,293.44c2.42.39,4.09.95,5.01,1.68.05.05-.8.55-2.54,1.51-1.74.96-2.63,1.42-2.68,1.37-1.55-1.28-3.22-2.34-5.01-3.19-1.78-.85-3.82-1.27-6.1-1.27-1.33,0-1.99-.11-1.99-.34s.66-.34,1.99-.34c5.12,0,8.89.19,11.32.58m-28.53,27.4v.27c0,2.29.11,4.25.34,5.9.23,1.65.87,3.11,1.92,4.39,1.05,1.28,2.65,1.92,4.8,1.92s3.64-.61,4.63-1.82c.98-1.21,1.59-2.59,1.82-4.15.23-1.55.34-3.47.34-5.76v-28.6c0-.09,1.03-.14,3.09-.14s3.09.05,3.09.14v28.39c.05,1.97-.15,3.85-.58,5.66-.44,1.81-1.6,3.48-3.5,5.01-1.9,1.53-4.86,2.3-8.88,2.3s-7.09-.78-9.05-2.33c-1.97-1.55-3.17-3.25-3.6-5.07-.44-1.83-.63-3.7-.58-5.62v-28.32c0-.09,1.03-.14,3.09-.14s3.09.05,3.09.14v27.84Z"/><path class="cls-3" d="m188.66,289.97c0-.5.04-.75.14-.75h12.55c.09,0,.14.25.14.75s-.05.75-.14.75h-12.55c-.09,0-.14-.25-.14-.75m3.22,41.49v2.4c0,.09-1.01.14-3.02.14s-3.02-.05-3.02-.14v-44.51c0-.09,1.01-.14,3.02-.14s3.02.05,3.02.14v42.11Zm-14.2-.62c0,.82.62,1.26,1.85,1.3,1.23.05,2.61-.19,4.11-.72,1.51-.53,2.51-1.06,3.02-1.61.55-.59,1.05-1.05,1.51-1.37.46-.32.71-.41.75-.28.04.14-.21.5-.75,1.1-2.1,2.33-4.45,3.82-7.03,4.46-2.58.64-4.83.62-6.76-.07-1.92-.69-2.88-1.62-2.88-2.81v-20.92c0-.09,1.03-.14,3.09-.14s3.09.05,3.09.14v20.92Z"/><path class="cls-3" d="m274.79,316.99c0,.09-1,.14-2.98.14s-2.98-.05-2.98-.14v-10.29c0-.09,1-.14,2.98-.14s2.98.05,2.98.14v10.29Zm-6-20.33c.94-1.39,2.27-2.5,4.01-3.33,1.74-.82,3.75-1.23,6.04-1.23,3.52,0,6.32.94,8.4,2.81,2.08,1.88,3.12,4.25,3.12,7.13,0,1.88-.47,3.59-1.41,5.14-.94,1.56-2.27,2.78-4.01,3.67-1.74.89-3.77,1.34-6.1,1.34h-6.79c-.23,0-.34-.23-.34-.69s.11-.69.34-.69h6.79c1.6,0,2.93-.7,3.98-2.09,1.05-1.39,1.58-3.62,1.58-6.69s-.53-5.37-1.58-6.79c-1.05-1.42-2.38-2.13-3.98-2.13-1.42,0-2.69.68-3.81,2.02-1.12,1.35-1.68,3.35-1.68,6,0,.09-.99.14-2.98.14s-2.98-.04-2.98-.14c0-1.6.47-3.1,1.41-4.49m2.81,32.13c.89,1.46,2,2.63,3.33,3.5,1.33.87,2.63,1.3,3.91,1.3,1.37,0,2.72-.49,4.05-1.47,1.33-.98,2.42-2.32,3.29-4.01.87-1.69,1.3-3.57,1.3-5.62s-.4-3.93-1.2-5.49c-.8-1.55-1.86-2.74-3.19-3.57-1.33-.82-2.74-1.23-4.25-1.23-.73,0-1.24-.1-1.51-.31-.27-.21-.26-.42.03-.65.3-.23.79-.34,1.48-.34,3.15,0,5.85.55,8.09,1.65,2.24,1.1,3.92,2.53,5.04,4.29,1.12,1.76,1.68,3.65,1.68,5.66s-.57,4.01-1.71,5.86c-1.14,1.85-2.82,3.36-5.04,4.53-2.22,1.17-4.9,1.75-8.06,1.75s-5.65-.54-7.89-1.61c-2.24-1.07-3.94-2.42-5.11-4.05-1.17-1.62-1.75-3.26-1.75-4.9,0-.09,1.03-.14,3.09-.14s3.09.05,3.09.14c0,1.69.45,3.27,1.34,4.73"/><path class="cls-3" d="m299.28,327.49v-17.56c0-.09,1.01-.14,3.02-.14s3.02.05,3.02.14v36.14c-.14,2.15-.47,3.92-.99,5.31-.53,1.39-1.41,2.63-2.64,3.7-1.23,1.07-2.95,2.05-5.14,2.91-3.57,1.46-7.36,2.31-11.38,2.54-.37.04-.67.04-.93,0-.25-.05-.33-.1-.24-.17.09-.07.34-.15.75-.24,2.24-.59,4.14-1.2,5.69-1.82,1.55-.62,2.9-1.36,4.05-2.23,1.42-1.05,2.53-2.39,3.33-4.01.8-1.62,1.29-3.62,1.47-6v-18.59Z"/><path class="cls-3" d="m424.15,320.84v.55c.04,1.97-.15,3.85-.58,5.66-.44,1.81-1.6,3.48-3.5,5.01-1.9,1.53-4.86,2.3-8.88,2.3s-7.09-.78-9.05-2.33c-1.97-1.55-3.17-3.25-3.6-5.07-.44-1.83-.63-3.7-.58-5.62v-30.38c1.37.09,2.4.14,3.09.14h-.75c-9.37.18-16.14-1.39-20.3-4.73-.05-.05.85-.74,2.67-2.09,1.83-1.35,2.81-1.98,2.95-1.89l.07.07c.37.78,1.1,1.78,2.19,3.02,1.1,1.23,2.77,2.42,5.01,3.57,2.24,1.14,4.96,1.71,8.16,1.71.78,0,1.44.02,1.99.07.55.05.91.09,1.1.14v30.18c0,2.29.11,4.25.34,5.9.23,1.65.87,3.11,1.92,4.39,1.05,1.28,2.65,1.92,4.8,1.92s3.65-.61,4.63-1.82c.98-1.21,1.59-2.59,1.82-4.15.23-1.55.34-3.47.34-5.76v-4.8c0-.09,1.03-.14,3.09-.14s3.09.05,3.09.14v4.05Z"/><path class="cls-3" d="m449.39,332.91v.96c0,.09-1.03.14-3.09.14s-3.09-.05-3.09-.14v-23.93c0-.09,1.03-.14,3.09-.14s3.09.05,3.09.14v22.97Zm-14.26-3.22c0,1.33.75,2.05,2.26,2.16,1.51.12,3.18-.16,5.01-.82,1.83-.66,3.02-1.34,3.57-2.02.32-.59.74-1.14,1.27-1.65.52-.5.91-.79,1.17-.86.25-.07.22.17-.1.72-2.29,3.25-4.91,5.34-7.89,6.28-2.97.94-5.6.94-7.89,0-2.29-.94-3.43-2.21-3.43-3.81v-40.33c0-.09,1.01-.14,3.02-.14s3.02.05,3.02.14v40.33Zm-2.88-39.71c0,.5-.05.75-.14.75h-12.96c-.09,0-.14-.25-.14-.75s.05-.75.14-.75h12.96c.09,0,.14.25.14.75"/><path class="cls-3" d="m543.07,289.49c-.09-.09.89-.15,2.95-.17,2.06-.02,3.13.03,3.22.17l8.16,11.59c.09.09-.89.15-2.95.17-2.06.02-3.13-.03-3.22-.17l-8.16-11.59Zm1.99-.14c.09,0,.14.23.14.69s-.05.69-.14.69h-15.7c-.09,0-.14-.23-.14-.69s.04-.69.14-.69h15.7Zm12.76,30.59c0,3.79-.97,7.17-2.91,10.12-1.94,2.95-5.66,4.42-11.15,4.42-6.4,0-10.64-1.92-12.72-5.76-2.08-3.84-3.12-8.57-3.12-14.2,0-3.38.47-6.71,1.41-9.98.94-3.27,2.58-6.02,4.94-8.26,2.35-2.24,5.52-3.36,9.5-3.36,1.74,0,3.15.22,4.25.65,1.1.44,1.97.97,2.61,1.61.64.64,1.33,1.49,2.06,2.54l.41.55c.09.09-.21.14-.89.14s-1.08-.04-1.17-.14c-.96-1.37-2-2.43-3.12-3.19-1.12-.75-2.5-1.13-4.15-1.13-3.02,0-5.22.93-6.62,2.78-1.4,1.85-2.25,4.13-2.57,6.82-.32,2.7-.48,6.29-.48,10.77v.21c0,3.89.22,7.17.65,9.84.43,2.67,1.35,4.86,2.74,6.55,1.39,1.69,3.49,2.54,6.27,2.54,2.33,0,4.08-.63,5.25-1.89,1.17-1.26,1.9-2.81,2.19-4.66.3-1.85.45-4.17.45-6.96v-4.46c0-.09,1.03-.14,3.09-.14s3.09.05,3.09.14v4.46Z"/><path class="cls-3" d="m562.1,347.17c.66-1.05,1.79-2.47,3.39-4.25,1.83-2.01,3.36-3.86,4.59-5.56,4.57-6.13,6.54-11.36,5.9-15.7-.32-2.06-1.11-3.7-2.37-4.94-1.26-1.24-2.69-1.85-4.29-1.85-1.23,0-2.4.38-3.5,1.13-1.1.75-1.81,2.05-2.13,3.87-.05.09-.23.1-.55.03-.32-.07-.46-.17-.41-.31.27-2.88,1.09-5.33,2.43-7.34,1.35-2.01,3.55-3.02,6.62-3.02,2.56,0,4.57.74,6.04,2.23,1.46,1.49,2.4,3.46,2.81,5.93.41,2.42.15,5.07-.79,7.96-.94,2.88-2.89,6.15-5.86,9.81-4.02,4.94-6.04,9.21-6.04,12.82,0,4.98,4.18,7.48,12.55,7.48h4.87c.09,0,.14.22.14.65s-.05.65-.14.65h-7.75c-5.03,0-9.04-.41-12.04-1.23-3-.82-4.49-2.49-4.49-5.01,0-1.19.33-2.31.99-3.36"/><path class="cls-3" d="m659.37,305.88v-.69c-.05-2.19.16-4.18.62-5.97.46-1.78,1.66-3.38,3.6-4.8,1.94-1.42,4.95-2.13,9.02-2.13s6.98.7,8.88,2.09c1.9,1.4,3.06,2.96,3.5,4.7.43,1.74.63,3.73.58,5.97v28.67c0,.09-1.03.14-3.09.14s-3.09-.05-3.09-.14v-28.6c0-2.42-.11-4.41-.34-5.97-.23-1.55-.83-2.91-1.82-4.08-.98-1.17-2.53-1.75-4.63-1.75s-3.75.62-4.8,1.85c-1.05,1.24-1.69,2.68-1.92,4.32-.23,1.65-.34,3.68-.34,6.1v28.12c0,.09-1.03.14-3.09.14s-3.09-.05-3.09-.14v-27.84Z"/><path class="cls-3" d="m701.35,310.21c2.79-.78,5.25-.73,7.37.14,2.13.87,3.19,2.33,3.19,4.39v19.13c0,.09-1.03.14-3.09.14s-3.09-.05-3.09-.14v-19.13c0-1.6-.56-2.57-1.68-2.92-1.12-.34-2.36-.3-3.7.14-1.35.43-2.18.86-2.5,1.27-.23.27-.68.61-1.34,1-.66.39-1.23.66-1.71.82-.48.16-.61.1-.38-.17,1.83-2.33,4.14-3.89,6.93-4.66m-3.77,22.7v.96c0,.09-1.03.14-3.09.14s-3.09-.05-3.09-.14v-23.93c0-.09,1.03-.14,3.09-.14s3.09.05,3.09.14v22.97Z"/><path class="cls-3" d="m2.47,402.29c0-3.34.88-6.47,2.64-9.4,1.76-2.92,5.2-4.39,10.32-4.39s8.66,1.5,10.49,4.49c1.83,3,2.74,6.18,2.74,9.57,0,2.93-.4,5.52-1.2,7.78-.8,2.26-2.31,4.42-4.53,6.48-2.22,2.06-5.41,4-9.57,5.83-.41.14-.73.16-.96.07-.23-.09-.31-.24-.24-.45.07-.21.29-.4.65-.58,3.57-1.51,6.07-3.91,7.51-7.2,1.44-3.29,2.16-7.27,2.16-11.93v-.27c0-2.56-.12-4.7-.34-6.41-.23-1.71-.86-3.2-1.89-4.46-1.03-1.26-2.64-1.89-4.83-1.89s-3.65.6-4.63,1.78c-.98,1.19-1.59,2.57-1.82,4.15-.23,1.58-.34,3.58-.34,6v3.98c0,.09-1.03.14-3.09.14s-3.09-.04-3.09-.14v-3.15Zm-1.1,14.4c-.14-.09,1.05-.15,3.57-.17,2.51-.02,3.84.03,3.98.17l19.2,13.44c.14.09-1.05.15-3.57.17-2.51.02-3.84-.03-3.98-.17l-19.2-13.44Z"/><path class="cls-3" d="m32.06,443.68c.89-1.26,2.41-3.05,4.56-5.38l2.61-2.81c1.97-2.24,3.29-3.93,3.98-5.07.69-1.14.93-2.06.72-2.74-.21-.69-.83-1.46-1.89-2.33l-7.34-5.97c-1.19-1-1.27-2.48-.24-4.42,1.03-1.94,2.85-4.56,5.45-7.85l.96-1.23c.09-.09.24,0,.45.27.21.27.29.46.24.55-1.65,2.1-2.74,3.63-3.29,4.59-.55.96-.77,1.67-.65,2.13.11.46.51.98,1.2,1.58l3.09,2.54,4.39,3.57c2.88,2.42,1.76,6.54-3.36,12.34-1.6,1.83-2.91,3.79-3.94,5.9-1.03,2.1-1.54,4-1.54,5.69,0,1.28.21,2.39.62,3.33.41.94,1.48,1.77,3.19,2.5,1.71.73,4.38,1.1,7.99,1.1h4.18c.09,0,.14.22.14.65s-.05.65-.14.65h-7.54c-3.48.04-6.21-.01-8.2-.17-1.99-.16-3.65-.65-4.97-1.47-1.33-.82-1.99-2.15-1.99-3.98,0-1.37.45-2.69,1.34-3.94"/><path class="cls-3" d="m145.39,389.33c0-.09.91-.14,2.74-.14s2.74.05,2.74.14v25.24c0,.09-.92.14-2.74.14s-2.74-.05-2.74-.14v-25.24Zm-12.55,12.96c0-3.25,1.04-6.32,3.12-9.22,2.08-2.9,6.14-4.36,12.17-4.36s9.98,1.44,11.97,4.32c1.99,2.88,2.98,5.97,2.98,9.26v28.53c0,.09-.92.14-2.74.14s-2.74-.05-2.74-.14v-28.53c0-3.61-.6-6.61-1.78-8.98-1.19-2.38-3.75-3.57-7.68-3.57s-6.61,1.21-7.89,3.63c-1.28,2.42-1.92,5.4-1.92,8.92v3.15c0,.09-.92.14-2.74.14s-2.74-.04-2.74-.14v-3.15Z"/><path class="cls-3" d="m199.77,443.44v4.11c0,.28-1.01,2.1-3.02,5.49-2.01,3.38-3.02,4.98-3.02,4.8v-51.5c0-.09,1.01-.14,3.02-.14s3.02.05,3.02.14v37.1Zm-12.34-16.19c0,1.01.41,1.57,1.23,1.68.82.11,1.76-.03,2.81-.45,1.05-.41,1.83-.82,2.33-1.24.64-.46,1.22-.81,1.75-1.06.53-.25.8-.31.82-.17.02.14-.29.46-.93.96-2.01,1.56-4.13,2.6-6.34,3.12-2.22.53-4.08.53-5.59,0-1.51-.53-2.26-1.47-2.26-2.85v-20.92c0-.09,1.03-.14,3.09-.14s3.09.05,3.09.14v20.92Zm-12.34,0c0,1.01.41,1.57,1.24,1.68.82.11,1.76-.03,2.81-.45,1.05-.41,1.83-.82,2.33-1.24.64-.46,1.22-.81,1.75-1.06.53-.25.8-.31.82-.17.02.14-.29.46-.93.96-2.01,1.56-4.13,2.6-6.34,3.12-2.22.53-4.08.53-5.59,0-1.51-.53-2.26-1.47-2.26-2.85v-20.92c0-.09,1.03-.14,3.09-.14s3.09.05,3.09.14v20.92Z"/><path class="cls-3" d="m290.84,431.44c-.6-1.14-1.45-2.22-2.57-3.22-1.12-1.01-3.1-1.91-5.93-2.71-2.84-.8-6.7-1.13-11.59-1-.23,0-.34-.23-.34-.69s.11-.69.34-.69c7.27-.18,12.97.02,17.11.62,4.14.59,7.12,2.03,8.95,4.32.09.09-.8.8-2.67,2.13-1.88,1.33-2.86,1.94-2.95,1.85-.05-.05-.16-.25-.34-.62m-11.01-15.16c.16-1.24-.14-2.21-.89-2.91-.75-.71-2-1.52-3.74-2.43-1.92-1.1-3.46-2.1-4.63-3.02-1.17-.91-2.09-2.13-2.78-3.64-1.01-2.19-1.24-4.54-.69-7.03.55-2.49,1.9-4.57,4.05-6.24,2.15-1.67,4.89-2.5,8.23-2.5,4.86,0,8.42,1.06,10.46,4.25,1.81,2.83,2.71,6.08,2.71,9.74,0,2.7-.8,5.44-2.4,8.23-1.6,2.79-3.87,5.36-6.82,7.72-2.95,2.36-6.32,4.22-10.11,5.59-.41.14-.72.16-.93.07-.21-.09-.25-.25-.14-.48.11-.23.38-.41.79-.55,4.34-1.65,7.67-4.26,9.98-7.85,2.31-3.59,3.46-7.83,3.46-12.72,0-3.75-.4-6.89-1.47-9.29-.83-1.86-2.74-3.66-5.72-3.67-1.83,0-3.25.47-4.67,1.41-1.42.94-2.36,2.22-2.81,3.84-.46,1.62-.25,3.37.62,5.25.5,1.1,1.14,2.08,1.92,2.95.78.87,1.81,1.88,3.09,3.02,1.78,1.6,3.07,3.01,3.87,4.22.8,1.21,1.03,2.73.69,4.56-.34,1.83-1.59,4.07-3.74,6.72-.28.32-.54.51-.79.58-.25.07-.41,0-.48-.21-.07-.21.03-.47.31-.79,1.6-1.97,2.48-3.57,2.64-4.8m-14.85.41c0-.09,1.03-.14,3.09-.14s3.09.05,3.09.14v13.44c0,.09-1.03.14-3.09.14s-3.09-.05-3.09-.14v-13.44Z"/><path class="cls-3" d="m299.28,443.37c.73-1.14,1.87-2.61,3.43-4.39,1.6-1.97,2.51-3.11,2.74-3.43,3.29-4.25,5.5-7.68,6.62-10.29,1.12-2.61,1.5-5.03,1.13-7.27-.37-2.01-1.18-3.67-2.43-4.97-1.26-1.3-2.6-1.95-4.01-1.95-2.29,0-3.73.64-4.32,1.92-.55,1.14-.6,2.36-.14,3.63.46,1.28,1.58,2.49,3.36,3.63,1.33.82,2.37,1.68,3.12,2.57.75.89,1.17,2.18,1.23,3.87.07,1.69-.47,3.86-1.61,6.52-.5,1.14-.95,1.93-1.34,2.37-.39.43-.58.45-.58.03s.23-1.17.69-2.26c.55-1.19.62-2.4.21-3.63s-1.67-2.51-3.77-3.84c-2.1-1.37-3.26-3.25-3.46-5.62-.21-2.38.33-4.84,1.61-7.41,1.1-2.29,2.26-4.02,3.5-5.21,1.23-1.19,2.7-1.78,4.39-1.78,1.78,0,3.37.58,4.77,1.75,1.39,1.17,2.32,3.12,2.78,5.86.46,2.56.13,5.36-.99,8.4-1.12,3.04-3.42,6.78-6.89,11.21-1.1,1.46-2.08,3.35-2.95,5.66-.87,2.31-1.3,4.29-1.3,5.93,0,2.19.96,3.95,2.88,5.28,1.92,1.33,4.96,1.99,9.12,1.99h4.18c.09,0,.14.22.14.65s-.05.65-.14.65h-4.18c-1.19,0-2.13.02-2.81.07-3.25.04-5.93-.02-8.06-.21-2.13-.18-3.99-.75-5.59-1.72-1.6-.96-2.4-2.51-2.4-4.66,0-1.1.37-2.22,1.1-3.36"/><path class="cls-3" d="m435.61,412.78h.55c.23,0-.73.64-2.88,1.92-2.15,1.28-3.34,1.92-3.57,1.92l-.76-.21c-3.15-1.05-6.36-1.58-9.6-1.58-.82,0-1.41-.14-1.75-.41-.34-.27-.34-.56,0-.86.34-.3.93-.45,1.75-.45,4.89,0,10.31-.11,16.25-.34m-39.16-10.49v-.82c-.05-2.24.15-4.23.58-5.97.43-1.74,1.6-3.3,3.5-4.7,1.9-1.39,4.86-2.09,8.88-2.09s7.07.71,9.02,2.13c1.94,1.42,3.14,3.02,3.6,4.8.46,1.78.66,3.77.62,5.97v28.53c0,.09-1.03.14-3.09.14s-3.09-.05-3.09-.14v-28.12c0-2.42-.11-4.46-.34-6.1-.23-1.65-.87-3.09-1.92-4.32-1.05-1.23-2.65-1.85-4.8-1.85s-3.65.58-4.63,1.75c-.98,1.17-1.59,2.53-1.82,4.08-.23,1.56-.34,3.54-.34,5.97v28.74c0,.09-1.03.14-3.09.14s-3.09-.05-3.09-.14v-27.98Z"/><path class="cls-3" d="m461.6,426.23c.78-.69,1.23-.98,1.37-.89,2.38,1.01,3.84,1.65,4.39,1.92l.27.14-1.51,1.03,1.65-1.58c.59-.55,1.03-.87,1.3-.96.27-.09.3.03.07.38-.23.34-.64.81-1.23,1.41l-1.65,1.58c-.27.27-.57.53-.89.75-.32.23-.53.32-.62.28-.09-.05-.18-.09-.27-.14-2.38-1.01-3.84-1.65-4.39-1.92l1.37-.89-2.26,2.13c-.59.55-1.01.85-1.23.89-.23.05-.21-.14.07-.55.27-.41.71-.89,1.3-1.44l2.26-2.13Zm-13.41-19.58c2.81-.8,5.29-.77,7.44.1,2.15.87,3.22,2.31,3.22,4.32v19.2c0,.09-1.03.14-3.09.14s-3.09-.05-3.09-.14v-19.2c0-1.65-.57-2.62-1.71-2.91-1.14-.3-2.42-.21-3.84.27-1.42.48-2.29.93-2.61,1.34-.18.27-.61.61-1.27.99-.66.39-1.24.68-1.72.86-.48.18-.61.14-.38-.14,1.87-2.42,4.22-4.03,7.03-4.83m-3.46,22.67v.96c0,.09-1.03.14-3.09.14s-3.09-.05-3.09-.14v-23.93c0-.09,1.03-.14,3.09-.14s3.09.05,3.09.14v22.97Z"/><path class="cls-3" d="m554.11,417.24v.55c.04,1.97-.15,3.85-.58,5.66-.44,1.81-1.6,3.48-3.5,5.01-1.9,1.53-4.86,2.3-8.88,2.3s-7.09-.78-9.05-2.33c-1.97-1.55-3.17-3.25-3.6-5.07-.44-1.83-.63-3.7-.58-5.62v-28.32c0-.09,1.03-.14,3.09-.14s3.09.05,3.09.14v28.12c0,2.29.11,4.25.34,5.9.23,1.65.87,3.11,1.92,4.39,1.05,1.28,2.65,1.92,4.8,1.92s3.65-.61,4.63-1.82c.98-1.21,1.59-2.59,1.82-4.15.23-1.55.34-3.47.34-5.76v-28.6c0-.09,1.03-.14,3.09-.14s3.09.05,3.09.14v27.84Z"/><path class="cls-3" d="m580.38,429.31v.96c0,.09-1.03.14-3.09.14s-3.09-.05-3.09-.14v-23.93c0-.09,1.03-.14,3.09-.14s3.09.05,3.09.14v22.97Zm-14.26-2.06c0,.82.62,1.26,1.85,1.3,1.23.05,2.61-.19,4.11-.72,1.51-.53,2.51-1.06,3.02-1.61.55-.59,1.05-1.05,1.51-1.37.46-.32.71-.41.75-.28.04.14-.21.5-.75,1.1-2.1,2.33-4.45,3.82-7.03,4.46-2.58.64-4.83.62-6.76-.07-1.92-.69-2.88-1.62-2.88-2.81v-20.92c0-.09,1.03-.14,3.09-.14s3.09.05,3.09.14v20.92Z"/><path class="cls-3" d="m692.98,430.48c3.29.96,5.51,2.17,6.65,3.63-6.31.14-9.51.14-9.6,0-.87-1.14-1.66-1.98-2.37-2.5-.71-.53-1.4-.86-2.06-1-.66-.14-1.59-.21-2.78-.21-.82,0-1.41-.11-1.75-.34-.34-.23-.34-.46,0-.69.34-.23.93-.34,1.75-.34,3.47,0,6.86.48,10.15,1.44m-7.61-.21c0,.09-1.03.14-3.09.14s-3.09-.05-3.09-.14v-41.08c0-.09,1.03-.14,3.09-.14s3.09.05,3.09.14v41.08Zm-20.02-24c0,4.07,1.31,6.88,3.94,8.44,2.63,1.55,6.41,2.33,11.35,2.33.73,0,1.24.08,1.51.24.27.16.26.33-.03.51-.3.18-.79.28-1.48.28-6.77,0-12.04-1-15.81-2.98-3.77-1.99-5.66-4.93-5.66-8.81v-8.71c0-.09,1.03-.14,3.09-.14s3.09.05,3.09.14v8.71Z"/><path class="cls-3" d="m727.41,451.87c2.56,0,4.55.28,5.97.82,1.42.55,2.38,1.2,2.88,1.96.5.75.75,1.5.75,2.23,0,.04-.51.08-1.54.1-1.03.02-2.06.02-3.09,0-1.03-.02-1.54-.06-1.54-.1,0-.96-.09-1.69-.27-2.2-.18-.5-.53-.87-1.03-1.1-.5-.23-1.21-.34-2.13-.34h-10.15c-.82,0-1.41-.12-1.75-.34-.34-.23-.34-.46,0-.69.34-.23.93-.34,1.75-.34h10.15Zm-7.13-7.2v7.89c0,.28-.49.47-1.47.58-.98.11-1.95.11-2.91,0-.96-.11-1.44-.31-1.44-.58l-.07-7.89.07-58.91c0-.09.97-.14,2.91-.14s2.91.05,2.91.14v58.91Zm-14.13-17.42c0,.82.62,1.26,1.85,1.3,1.23.05,2.61-.19,4.11-.72,1.51-.53,2.51-1.06,3.02-1.61.55-.59,1.05-1.05,1.51-1.37.46-.32.71-.41.75-.28.04.14-.21.5-.75,1.1-2.1,2.33-4.45,3.82-7.03,4.46-2.58.64-4.83.62-6.76-.07-1.92-.69-2.88-1.62-2.88-2.81v-20.92c0-.09,1.03-.14,3.09-.14s3.09.05,3.09.14v20.92Z"/><path class="cls-3" d="m19.82,488.27c-1.05-1.19-2.49-1.78-4.32-1.78-2.42,0-4.41.56-5.97,1.68-1.55,1.12-2.33,2.46-2.33,4.01,0,1.01.62,2.05,1.85,3.12,1.23,1.07,3.2,2.46,5.9,4.15l3.15,2.13c3.7,2.52,6.5,4.97,8.4,7.37,1.9,2.4,2.85,4.84,2.85,7.3,0,3.15-1.1,5.74-3.29,7.75-2.19,2.01-5.26,3.02-9.19,3.02-2.84,0-5.5-.54-7.99-1.61-2.49-1.07-4.53-2.47-6.1-4.18-1.58-1.71-2.5-3.42-2.78-5.11-.05-.09,1.13-.15,3.53-.17,2.4-.02,3.62.03,3.67.17.91,6.58,4.14,9.88,9.67,9.88,2.06,0,3.85-.34,5.38-1.03,1.53-.69,2.71-1.55,3.53-2.61.82-1.05,1.23-2.13,1.23-3.22,0-1.37-.7-2.69-2.09-3.94-1.4-1.26-3.76-2.98-7.1-5.18-1.28-.82-2.42-1.58-3.43-2.26-3.66-2.42-6.16-4.56-7.51-6.41-1.35-1.85-2.02-3.94-2.02-6.27,0-2.93.97-5.26,2.91-7,1.94-1.74,4.51-2.61,7.72-2.61,3.7,0,6.82.82,9.36,2.47,2.54,1.65,4.03,3.86,4.49,6.65,0,.09-1.2.15-3.6.17-2.4.02-3.6-.03-3.6-.17-.5-3.02-1.28-5.12-2.33-6.31"/><path class="cls-3" d="m54.9,503.22c2.95-.91,5.53-.93,7.75-.03,2.22.89,3.33,2.23,3.33,4.01v19.48c0,.09-1.03.14-3.09.14s-3.09-.05-3.09-.14v-19.48c0-1.78-.68-2.78-2.02-2.98-1.35-.21-2.85.07-4.49.82-1.65.75-2.65,1.43-3.02,2.02-.18.27-.57.63-1.17,1.06-.6.44-1.12.76-1.58.96-.46.21-.57.17-.34-.1,2.19-2.93,4.77-4.85,7.72-5.76m-1.68,22.49v.96c0,.09-1.03.14-3.09.14s-3.09-.05-3.09-.14v-23.93c0-.09,1.03-.14,3.09-.14s3.09.05,3.09.14v22.97Zm-12.34-2.06c0,1.01.41,1.57,1.24,1.68.82.11,1.76-.03,2.81-.45,1.05-.41,1.83-.82,2.33-1.24.64-.46,1.22-.81,1.75-1.06.53-.25.8-.31.82-.17.02.14-.29.46-.93.96-2.01,1.56-4.13,2.6-6.34,3.12-2.22.53-4.08.53-5.59,0-1.51-.53-2.26-1.47-2.26-2.85v-20.92c0-.09,1.03-.14,3.09-.14s3.09.05,3.09.14v20.92Z"/><path class="cls-3" d="m133.52,498.7v-.69c-.05-2.19.16-4.18.62-5.97.46-1.78,1.66-3.38,3.6-4.8,1.94-1.42,4.95-2.13,9.02-2.13s6.98.7,8.88,2.09c1.9,1.4,3.06,2.96,3.5,4.7.43,1.74.63,3.73.58,5.97v3.98c0,.09-1.03.14-3.09.14s-3.09-.04-3.09-.14v-3.91c0-2.42-.11-4.41-.34-5.97-.23-1.55-.83-2.91-1.82-4.08-.98-1.17-2.53-1.75-4.63-1.75s-3.75.62-4.8,1.85c-1.05,1.24-1.69,2.68-1.92,4.32-.23,1.65-.34,3.68-.34,6.1v28.12c0,.09-1.03.14-3.09.14s-3.09-.05-3.09-.14v-27.84Z"/><path class="cls-3" d="m174.94,503.02c2.79-.78,5.25-.73,7.37.14,2.13.87,3.19,2.33,3.19,4.39v19.13c0,.09-1.03.14-3.09.14s-3.09-.05-3.09-.14v-19.13c0-1.6-.56-2.57-1.68-2.91-1.12-.34-2.36-.3-3.7.14-1.35.44-2.18.86-2.5,1.27-.23.27-.68.61-1.34.99-.66.39-1.23.66-1.71.82-.48.16-.61.1-.38-.17,1.83-2.33,4.14-3.89,6.93-4.66m-3.91,36.83v4.11c0,.28-1.01,2.1-3.02,5.49-2.01,3.38-3.02,4.98-3.02,4.8v-51.5c0-.09,1.01-.14,3.02-.14s3.02.05,3.02.14v37.1Z"/><path class="cls-3" d="m283.43,500.31c1.1-1.39,1.65-3.44,1.65-6.14s-.56-4.69-1.68-6.1c-1.12-1.42-2.41-2.13-3.87-2.13s-2.74.71-3.84,2.13c-1.1,1.42-1.65,3.45-1.65,6.1s.54,4.74,1.61,6.14c1.07,1.4,2.37,2.09,3.88,2.09s2.81-.7,3.91-2.09m-10.01,1.89c-1.74-.82-3.06-1.94-3.98-3.36-.92-1.42-1.37-2.97-1.37-4.66s.46-3.18,1.37-4.59c.91-1.42,2.24-2.55,3.98-3.39,1.74-.85,3.77-1.27,6.1-1.27s4.36.42,6.1,1.27c1.74.85,3.07,1.98,4.01,3.39.94,1.42,1.41,2.95,1.41,4.59s-.47,3.25-1.41,4.66c-.94,1.42-2.27,2.54-4.01,3.36-1.74.82-3.77,1.23-6.1,1.23s-4.37-.41-6.1-1.23m-1.41,20.44c.71,1.01,1.67,1.89,2.88,2.64,1.21.76,2.57,1.13,4.08,1.13,1.6,0,3.11-.48,4.53-1.44,1.42-.96,2.55-2.33,3.39-4.11.85-1.78,1.27-3.82,1.27-6.1s-.44-4.15-1.3-5.86c-.87-1.71-1.99-3.04-3.36-3.98-1.37-.94-2.79-1.41-4.25-1.41-1.6,0-3.03.41-4.29,1.23-1.26.82-2.24,1.77-2.95,2.85-.71,1.08-1.06,1.93-1.06,2.57,0,.23-.52.38-1.54.45-1.03.07-2.06.07-3.09,0-1.03-.07-1.54-.22-1.54-.45,0-.59.56-1.52,1.68-2.78,1.12-1.26,2.78-2.39,4.97-3.39,2.19-1.01,4.8-1.51,7.82-1.51s5.74.56,8.02,1.68c2.29,1.12,4.03,2.62,5.25,4.49,1.21,1.88,1.82,3.91,1.82,6.1s-.63,4.19-1.89,6.14-3.05,3.52-5.38,4.73c-2.33,1.21-5.03,1.82-8.09,1.82-2.88,0-5.4-.48-7.54-1.44-2.15-.96-3.8-2.02-4.94-3.19-1.14-1.17-1.71-2.02-1.71-2.57,0-.23.52-.38,1.54-.45,1.03-.07,2.06-.07,3.09,0,1.03.07,1.54.22,1.54.45,0,.6.35,1.4,1.06,2.4"/><path class="cls-3" d="m426.35,512.96c-2.51,0-5.13-.51-7.85-1.54-2.72-1.03-4.47-3.37-5.25-7.03-.64-2.97-1.45-5.34-2.44-7.1-.98-1.76-2.27-2.64-3.87-2.64-1.37,0-2.64.35-3.81,1.06-1.17.71-2.07,1.64-2.71,2.78-.23.32-.49.55-.79.69-.3.14-.51.15-.65.03-.14-.11-.11-.35.07-.72.82-1.33,1.9-2.47,3.22-3.43,1.33-.96,2.88-1.44,4.66-1.44,2.33,0,4.42.42,6.28,1.27,1.85.85,3.33,1.92,4.42,3.22,1.1,1.3,1.78,2.62,2.06,3.94.37,1.83.98,3.52,1.85,5.07.87,1.56,1.79,2.79,2.78,3.7.98.92,1.79,1.4,2.44,1.44.18,0,.25.11.21.34-.05.23-.16.34-.34.34h-.27Zm-29.9-27.3c0-.09,1.03-.14,3.09-.14s3.09.05,3.09.14v40.87c0,.09-1.03.14-3.09.14s-3.09-.05-3.09-.14v-40.87Z"/><path class="cls-3" d="m438.97,522.63c.78-.69,1.23-.98,1.37-.89,2.38,1.01,3.84,1.65,4.39,1.92l.27.14-1.51,1.03,1.65-1.58c.59-.55,1.03-.87,1.3-.96.27-.09.3.03.07.38-.23.34-.64.81-1.23,1.41l-1.65,1.58c-.27.27-.57.53-.89.75-.32.23-.53.32-.62.28-.09-.05-.18-.09-.27-.14-2.38-1.01-3.84-1.65-4.39-1.92l1.37-.89-2.26,2.13c-.6.55-1.01.85-1.23.89-.23.05-.21-.14.07-.55.27-.41.71-.89,1.3-1.44l2.26-2.13Zm-2.74,3.09v.96c0,.09-1.03.14-3.09.14s-3.09-.05-3.09-.14v-23.93c0-.09,1.03-.14,3.09-.14s3.09.05,3.09.14v22.97Z"/><path class="cls-3" d="m539.85,485.6c0-.09,1.03-.14,3.09-.14s3.09.05,3.09.14v40.94c0,.09-1.03.14-3.09.14s-3.09-.05-3.09-.14v-40.94Zm10.39,25.65c1.71-1.87,2.57-4.71,2.57-8.5s-.87-6.74-2.61-8.71c-1.74-1.97-4.16-2.95-7.27-2.95s-5.53.98-7.27,2.95c-1.74,1.97-2.61,4.87-2.61,8.71s.86,6.63,2.57,8.5c1.71,1.88,4.15,2.81,7.3,2.81s5.59-.94,7.3-2.81m-19.17.48c-2.79-2.24-4.18-5.23-4.18-8.98,0-2.47.62-4.65,1.85-6.55,1.23-1.9,3.05-3.39,5.45-4.49,2.4-1.1,5.32-1.65,8.74-1.65s6.34.55,8.74,1.65c2.4,1.1,4.22,2.6,5.45,4.49,1.23,1.9,1.85,4.08,1.85,6.55,0,3.75-1.4,6.74-4.18,8.98-2.79,2.24-6.74,3.36-11.86,3.36s-9.08-1.12-11.86-3.36"/><path class="cls-3" d="m586.31,503.12c2.86-.85,5.37-.83,7.54.03,2.17.87,3.26,2.29,3.26,4.25v19.27c0,.09-1.03.14-3.09.14s-3.09-.05-3.09-.14v-19.27c0-1.69-.61-2.67-1.82-2.95-1.21-.27-2.56-.14-4.05.41-1.49.55-2.39,1.08-2.71,1.58-.18.27-.59.62-1.23,1.03-.64.41-1.2.71-1.68.89s-.61.14-.38-.14c1.97-2.56,4.38-4.26,7.24-5.11m-3.12,35.29v5.55c0,.28-.98,2.1-2.95,5.49-1.97,3.38-2.95,4.98-2.95,4.8v-72.08c0-.09.98-.14,2.95-.14s2.95.05,2.95.14v56.24Zm-13.24-14.75c0,.92.51,1.41,1.54,1.47,1.03.07,2.19-.14,3.5-.62,1.3-.48,2.18-.95,2.64-1.41.59-.5,1.13-.9,1.61-1.2.48-.3.74-.38.79-.24.04.14-.23.48-.82,1.03-2.01,1.92-4.23,3.18-6.65,3.77-2.42.59-4.49.59-6.21,0-1.71-.59-2.57-1.53-2.57-2.81v-20.92c0-.09,1.03-.14,3.09-.14s3.09.05,3.09.14v20.92Z"/><path class="cls-3" d="m675.08,506.93c2.74,0,4.61-.88,5.59-2.64.98-1.76,1.47-4.31,1.47-7.65,0-2.88-.56-5.35-1.68-7.41-1.12-2.06-3.12-3.09-6-3.09-1.92,0-3.34.57-4.25,1.72-.92,1.14-1.47,2.48-1.68,4.01-.21,1.53-.29,3.44-.24,5.73v28.94c0,.09-1.03.14-3.09.14s-3.09-.05-3.09-.14v-28.53c-.05-2.2.14-4.18.55-5.97.41-1.78,1.53-3.38,3.36-4.8,1.83-1.42,4.64-2.13,8.44-2.13,5.44,0,9.11,1.22,11.01,3.67,1.9,2.45,2.85,5.06,2.85,7.85,0,1.55-.34,3.21-1.03,4.97-.69,1.76-2.01,3.31-3.98,4.66-1.97,1.35-4.71,2.02-8.23,2.02h-9.33c-.73,0-1.23-.11-1.51-.34-.27-.23-.26-.46.03-.69.3-.23.79-.34,1.47-.34h9.33Zm-4.53,7c10.93,0,17.81.87,20.64,2.61.09.05-.81.62-2.71,1.71-1.9,1.1-2.92,1.62-3.05,1.58-5.07-3.02-9.67-4.53-13.78-4.53l-14.06-.07c-.18,0-.27-.22-.27-.65s.09-.65.27-.65h12.96Z"/><path class="cls-3" d="m21.6,620.03c1.42-1.85,2.13-4.35,2.13-7.51v-18.79c0-3.79-.69-6.65-2.06-8.57-1.37-1.92-3.27-2.88-5.69-2.88s-4.32.96-5.69,2.88c-1.37,1.92-2.06,4.78-2.06,8.57v18.79c0,3.15.71,5.66,2.13,7.51,1.42,1.85,3.29,2.78,5.62,2.78s4.21-.93,5.62-2.78m-13.17,2.16c-2.1-1.1-3.69-2.51-4.77-4.25-1.07-1.74-1.61-3.54-1.61-5.42v-18.79c0-2.24.54-4.31,1.61-6.21,1.07-1.9,2.66-3.42,4.77-4.56,2.1-1.14,4.62-1.72,7.54-1.72s5.44.57,7.54,1.72c2.1,1.14,3.69,2.66,4.77,4.56,1.07,1.9,1.61,3.97,1.61,6.21v18.79c0,1.88-.54,3.68-1.61,5.42-1.07,1.74-2.66,3.15-4.77,4.25-2.1,1.1-4.62,1.65-7.54,1.65s-5.44-.55-7.54-1.65"/><path class="cls-3" d="m49.72,621.3c.91-.87,1.67-2.16,2.26-3.87.59-1.71.89-3.78.89-6.21s-.3-4.5-.89-6.24c-.6-1.74-1.35-3.05-2.26-3.94-.92-.89-1.83-1.34-2.74-1.34s-1.83.47-2.74,1.41c-.91.94-1.67,2.28-2.26,4.01s-.89,3.77-.89,6.1.3,4.35.89,6.07c.59,1.71,1.35,3.03,2.26,3.94.92.92,1.83,1.37,2.74,1.37s1.83-.43,2.74-1.3m-9.22.65c-1.85-1.12-3.28-2.62-4.29-4.49-1.01-1.87-1.51-3.95-1.51-6.24s.5-4.39,1.51-6.31c1.01-1.92,2.45-3.44,4.32-4.56,1.87-1.12,4.02-1.68,6.45-1.68s4.56.57,6.41,1.72c1.85,1.14,3.29,2.66,4.32,4.56,1.03,1.9,1.54,3.99,1.54,6.28s-.51,4.37-1.54,6.24c-1.03,1.88-2.47,3.37-4.32,4.49-1.85,1.12-3.99,1.68-6.41,1.68s-4.63-.56-6.48-1.68"/><path class="cls-3" d="m153.75,623.36c0,.09-.94.14-2.81.14s-2.81-.05-2.81-.14v-41.35c0-.09.94-.14,2.81-.14s2.81.05,2.81.14v41.35Zm-6.69-39.71c-1.3.55-2.41,1.42-3.33,2.61-.92,1.19-1.37,2.65-1.37,4.39,0,2.56.72,4.49,2.16,5.8,1.44,1.3,3.58,1.95,6.41,1.95s5.65.51,8.16,1.54c2.51,1.03,4.54,2.51,6.07,4.46,1.53,1.94,2.3,4.26,2.3,6.96,0,3.75-1.34,6.79-4.01,9.12-2.67,2.33-6.92,3.5-12.72,3.5-3.84,0-7.08-.51-9.7-1.54-2.63-1.03-4.59-2.45-5.9-4.25-1.3-1.81-1.95-3.83-1.95-6.07,0-.09.91-.14,2.74-.14s2.74.05,2.74.14c0,2.42.7,4.45,2.09,6.07,1.39,1.62,3.03,2.82,4.9,3.6,1.87.78,3.57,1.17,5.07,1.17s3.14-.42,4.9-1.27c1.76-.84,3.26-2.15,4.49-3.91,1.24-1.76,1.85-3.9,1.85-6.41,0-2.29-.55-4.29-1.65-6-1.1-1.71-2.56-3.03-4.39-3.94-1.83-.91-3.82-1.37-5.97-1.37-2.56,0-4.83-.45-6.82-1.34s-3.53-2.06-4.63-3.5c-1.1-1.44-1.65-2.96-1.65-4.56,0-2.7,1.02-4.85,3.05-6.45,2.03-1.6,5.63-2.4,10.8-2.4,1.19,0,2,.08,2.43.24.43.16.42.33-.03.51-.46.18-1.26.27-2.4.27s-2.37.27-3.67.82"/><path class="cls-3" d="m192.5,632.14v7.82c0,.28-.94,2.01-2.81,5.21-1.88,3.2-2.81,4.71-2.81,4.53v-71.12c0-.09.94-.14,2.81-.14s2.81.05,2.81.14v53.56Zm-7.06-51.71c-1.51.69-2.79,1.73-3.84,3.12-1.05,1.4-1.58,3.12-1.58,5.18,0,3.11.89,5.5,2.67,7.17,1.78,1.67,4.3,2.5,7.54,2.5,2.88,0,5.51.5,7.89,1.51,2.38,1.01,4.26,2.48,5.66,4.42,1.39,1.94,2.09,4.26,2.09,6.96,0,3.84-1.25,6.92-3.74,9.22-2.49,2.31-6.64,3.46-12.45,3.46-3.84,0-7.12-.53-9.84-1.58-2.72-1.05-4.78-2.47-6.17-4.25-1.4-1.78-2.09-3.79-2.09-6.04,0-.09.91-.14,2.74-.14s2.74.05,2.74.14c0,2.38.73,4.39,2.19,6.04,1.46,1.65,3.19,2.86,5.18,3.63,1.99.78,3.74,1.17,5.25,1.17s3.09-.42,4.73-1.27c1.65-.84,3.05-2.15,4.22-3.91,1.17-1.76,1.75-3.92,1.75-6.48,0-3.47-1.04-6.22-3.12-8.23-2.08-2.01-4.74-3.02-7.99-3.02-2.74,0-5.25-.53-7.51-1.58-2.26-1.05-4.04-2.46-5.32-4.22-1.28-1.76-1.92-3.6-1.92-5.52,0-6.9,5.05-10.36,15.16-10.36,1.19,0,2,.08,2.43.24.43.16.42.33-.03.51-.46.18-1.26.27-2.4.27-1.33,0-2.74.34-4.25,1.03"/><path class="cls-3" d="m288.51,619.04c.78-.69,1.23-.98,1.37-.89,2.38,1.01,3.84,1.65,4.39,1.92l.27.14-1.51,1.03,1.65-1.58c.59-.55,1.03-.87,1.3-.96.27-.09.3.03.07.38-.23.34-.64.81-1.23,1.41l-1.65,1.58c-.27.27-.57.53-.89.75-.32.23-.53.32-.62.27-.09-.05-.18-.09-.27-.14-2.38-1.01-3.84-1.65-4.39-1.92l1.37-.89-2.26,2.13c-.6.55-1.01.85-1.23.89-.23.05-.21-.14.07-.55.27-.41.71-.89,1.3-1.44l2.26-2.13Zm-2.74,3.09v.96c0,.09-1.03.14-3.09.14s-3.09-.05-3.09-.14v-23.93c0-.09,1.03-.14,3.09-.14s3.09.05,3.09.14v22.97Zm-14.26-3.22c0,1.33.75,2.05,2.26,2.16,1.51.12,3.18-.16,5.01-.82,1.83-.66,3.02-1.34,3.57-2.02.32-.59.74-1.14,1.27-1.65.53-.5.91-.79,1.17-.86.25-.07.22.17-.1.72-2.29,3.25-4.91,5.34-7.89,6.28-2.97.94-5.6.94-7.89,0-2.29-.94-3.43-2.21-3.43-3.81v-40.33c0-.09,1.01-.14,3.02-.14s3.02.05,3.02.14v40.33Z"/></g><g class="cls-4"><path class="cls-3" d="m301.58,507.32c-.45.41-.54.59-.27.54.27-.04.73-.24,1.39-.58.65-.34,1.19-.69,1.59-1.05.99-.81,2.21-1.43,3.66-1.86,1.45-.43,2.71-.53,3.8-.31,1.08.23,1.63.79,1.63,1.69v33.01c-.27,3.75-1.55,6.66-3.83,8.74-2.28,2.08-5.91,3.7-10.88,4.88-.95.23-1.15.36-.61.41.54.04,1.46,0,2.74-.14,1.29-.14,2.43-.32,3.42-.54,4.07-.95,7.14-1.97,9.22-3.05,2.08-1.08,3.56-2.42,4.44-4,.88-1.58,1.41-3.68,1.59-6.3v-33.01c0-1.85-1.02-2.98-3.05-3.39-2.03-.41-4.47-.14-7.32.81s-5.35,2.33-7.52,4.13m3.46-4.47c0-.09-1.02-.14-3.05-.14s-3.05.05-3.05.14v20.67c0,1.18.95,2.1,2.85,2.78,1.9.68,4.12.7,6.68.07,2.55-.63,4.87-2.1,6.95-4.41.54-.59.79-.95.75-1.08-.05-.14-.29-.04-.75.27-.45.32-.95.77-1.49,1.36-.5.54-1.49,1.07-2.98,1.59-1.49.52-2.85.76-4.07.71-1.22-.04-1.83-.47-1.83-1.29v-20.67Z"/></g><g class="cls-5"><path class="cls-3" d="m721.85,534.84s.09-.1.14-.31c.05-.21.05-.41,0-.62-.05-.21-.09-.31-.14-.31h-30.47s-.09.1-.14.31c-.04.21-.04.41,0,.62.05.21.09.31.14.31h30.47Zm-24.5-26.01c-.14.27.24.31,1.13.1.89-.21,1.84-.53,2.85-.96,1.01-.43,1.56-.79,1.65-1.06.59-1.28,1.34-2.33,2.23-3.16.89-.82,1.75-1.23,2.57-1.23.87,0,1.73.47,2.57,1.41.85.94,1.53,2.28,2.06,4.01.53,1.74.79,3.77.79,6.11s-.27,4.36-.82,6.07c-.55,1.72-1.25,3.03-2.09,3.95-.85.92-1.73,1.37-2.64,1.37-.82,0-1.67-.39-2.54-1.17-.87-.78-1.56-1.81-2.06-3.09-.09-.23-.63-.56-1.61-1-.98-.43-1.92-.77-2.81-1-.89-.23-1.29-.21-1.2.07,1.78,4.8,5.19,7.21,10.23,7.21,2.47,0,4.61-.55,6.42-1.65,1.81-1.1,3.18-2.6,4.12-4.49.94-1.9,1.41-3.99,1.41-6.28s-.47-4.39-1.41-6.31c-.94-1.92-2.3-3.44-4.08-4.56-1.78-1.12-3.89-1.68-6.31-1.68-4.8,0-8.28,2.45-10.43,7.34m5.97-6.86c0-.09-1.01-.14-3.02-.14s-3.02.05-3.02.14v51.54c0,.18,1.01-1.42,3.02-4.8,2.01-3.39,3.02-5.22,3.02-5.49v-41.24Z"/></g></g></svg>