<?xml version="1.0" encoding="UTF-8"?><svg id="_图层_2" xmlns="http://www.w3.org/2000/svg" viewBox="0 0 1935.72 1095.72"><defs><style>.cls-1{fill:#f9eadb;}.cls-1,.cls-2,.cls-3{stroke-width:0px;}.cls-2{fill:#2a282c;}.cls-3{fill:#d45978;}</style></defs><g id="_图层_1-2"><rect class="cls-3" width="1935.72" height="1095.72"/><rect class="cls-2" x="419.14" y="289.72" width="1085.89" height="110"/><path class="cls-1" d="m1470.19,430.81c-3.58.47-4.58.97-3.03,1.52,1.55.54,4.43.93,8.62,1.16,4.19.23,7.69.19,10.48-.12,6.37-.93,10.25-3.53,11.65-7.81,1.4-4.27-.86-8.23-6.76-11.88-5.91-3.65-15.38-5.47-28.43-5.47h-84.58c-.15,0-.31.35-.47,1.05-.15.7-.15,1.4,0,2.1.16.7.31,1.05.47,1.05h84.58c5.9,0,10.14,1.4,12.7,4.19,2.56,2.8,3.26,5.75,2.1,8.85-1.17,3.11-3.61,4.89-7.34,5.36m-71.76-106.71c-.47.93.81,1.05,3.84.35,3.03-.7,6.25-1.78,9.67-3.26,3.41-1.47,5.28-2.68,5.59-3.61,2.02-4.35,4.54-7.92,7.57-10.72,3.03-2.8,5.94-4.19,8.74-4.19,2.95,0,5.86,1.59,8.74,4.78,2.87,3.18,5.2,7.73,6.99,13.63,1.78,5.91,2.68,12.82,2.68,20.74s-.93,14.79-2.8,20.62c-1.86,5.82-4.23,10.29-7.11,13.4-2.88,3.11-5.86,4.66-8.97,4.66-2.8,0-5.67-1.32-8.62-3.96-2.95-2.64-5.28-6.13-6.99-10.49-.31-.77-2.14-1.9-5.48-3.38-3.34-1.47-6.52-2.6-9.55-3.38-3.03-.77-4.39-.7-4.08.23,6.06,16.31,17.63,24.46,34.72,24.46,8.39,0,15.65-1.86,21.79-5.59,6.14-3.73,10.8-8.81,13.98-15.26,3.18-6.44,4.78-13.55,4.78-21.32s-1.59-14.91-4.78-21.44c-3.18-6.52-7.8-11.69-13.86-15.49-6.06-3.8-13.2-5.71-21.44-5.71-16.31,0-28.12,8.31-35.42,24.93m20.27-23.3c0-.31-3.42-.47-10.25-.47s-10.25.16-10.25.47v174.98c0,.62,3.42-4.82,10.25-16.31,6.83-11.5,10.25-17.71,10.25-18.64v-140.03Zm9.56-137.7c.31-.31-3.38-.5-11.07-.58-7.69-.08-11.77.12-12.23.58-11.34,18.17-22.68,36.43-34.02,54.76l-38.21,61.05c-.31.47.08.74,1.16.82,1.09.08,1.78-.04,2.1-.35l29.59-37.28c20.97-26.4,41.86-52.73,62.68-78.99m-54.06,164.96c0-.31-3.49-.47-10.48-.47s-10.49.16-10.49.47v54.06c0,.31,3.49.47,10.49.47s10.48-.16,10.48-.47v-54.06Zm-56.62-28.19c-.31,0-.47.86-.47,2.56s.15,2.56.47,2.56h61.74c.31,0,.47-.85.47-2.56s-.16-2.56-.47-2.56h-61.74Zm8.16-68.97c0-.31-3.42-.47-10.25-.47s-10.25.16-10.25.47v137c0,5.59,3.84,9.94,11.53,13.05,7.69,3.11,16.62,3.11,26.79,0,10.17-3.1,19.14-10.17,26.91-21.2,1.08-2.02,1.2-2.91.35-2.68-.85.23-2.18,1.2-3.96,2.91-1.79,1.71-3.23,3.49-4.31,5.36-1.71,2.49-5.67,4.86-11.88,7.11-6.21,2.25-11.92,3.15-17.13,2.68-5.21-.47-7.8-2.87-7.8-7.22v-137Zm-103.92,85.28c-1.56,1.4-1.86,2.02-.93,1.86.93-.15,2.52-.82,4.78-1.98,2.25-1.16,4.08-2.37,5.48-3.61,3.41-2.8,7.61-4.93,12.58-6.41,4.97-1.47,9.32-1.82,13.05-1.05,3.73.78,5.59,2.72,5.59,5.82v113.47c-.93,12.89-5.32,22.91-13.17,30.06-7.85,7.14-20.31,12.73-37.4,16.78-3.26.78-3.96,1.24-2.1,1.4,1.86.15,5.01,0,9.44-.47s8.35-1.09,11.77-1.86c13.98-3.26,24.54-6.76,31.69-10.48,7.14-3.73,12.23-8.31,15.26-13.75,3.03-5.44,4.85-12.66,5.48-21.67v-113.47c0-6.37-3.49-10.25-10.48-11.65s-15.38-.47-25.16,2.8c-9.79,3.26-18.41,8-25.86,14.21m11.88-15.38c0-.31-3.49-.47-10.48-.47s-10.48.16-10.48.47v71.07c0,4.04,3.26,7.22,9.79,9.55,6.52,2.33,14.17,2.41,22.95.23,8.77-2.17,16.74-7.22,23.88-15.15,1.86-2.02,2.72-3.26,2.56-3.73-.16-.47-1.01-.15-2.56.93-1.56,1.09-3.26,2.64-5.13,4.66-1.71,1.86-5.13,3.69-10.25,5.48-5.13,1.79-9.79,2.6-13.98,2.45-4.19-.15-6.29-1.63-6.29-4.43v-71.07Zm-41.94,27.26c0-.31-3.5-.47-10.49-.47s-10.48.16-10.48.47v54.06c0,.31,3.49.47,10.48.47s10.49-.16,10.49-.47v-54.06Zm-56.62-28.19c-.31,0-.47.86-.47,2.56s.15,2.56.47,2.56h61.74c.31,0,.47-.85.47-2.56s-.16-2.56-.47-2.56h-61.74Zm8.15-68.97c0-.31-3.42-.47-10.25-.47s-10.25.16-10.25.47v137c0,5.44,3.88,9.75,11.65,12.93,7.77,3.18,16.7,3.18,26.8,0,10.1-3.18,19.03-10.29,26.8-21.32,1.08-1.86,1.2-2.68.35-2.45-.85.23-2.18,1.2-3.96,2.91-1.79,1.71-3.23,3.58-4.31,5.59-1.86,2.33-5.91,4.62-12.12,6.87-6.21,2.25-11.88,3.18-17.01,2.79-5.13-.39-7.69-2.83-7.69-7.34v-137Zm-41.94,69.9c0-.31-3.49-.47-10.48-.47s-10.49.16-10.49.47v81.32c0,.31,3.49.47,10.49.47s10.48-.16,10.48-.47v-81.32Zm-48.46,67.1v-137.47c-7.61,0-14.37-.5-20.27-1.51-5.91-1.01-10.99-2.37-15.26-4.08-4.27-1.71-7.88-3.8-10.83-6.29-2.8-2.17-4.97-4.66-6.52-7.46-1.55-2.8-2.56-5.67-3.03-8.62-.47-2.95-.47-5.9,0-8.85,0-.15-2.52-.31-7.57-.47-5.05-.15-10.09-.15-15.15,0-5.05.16-7.57.31-7.57.47,0,6.99,1.17,12.97,3.49,17.94,2.33,4.97,5.52,9.01,9.55,12.12,4.04,3.11,8.78,5.59,14.21,7.46,3.73,1.24,7.77,2.21,12.12,2.91,4.35.7,8.7,1.17,13.05,1.4,4.35.23,8.93.27,13.75.12,0-.47-.16-.7-.47-.7v133.04c0,5.59,3.84,9.94,11.53,13.05,7.69,3.11,16.62,3.11,26.8,0,10.17-3.1,19.14-10.17,26.91-21.2,1.08-2.02,1.2-2.91.35-2.68-.86.23-2.18,1.2-3.96,2.91-1.79,1.71-3.23,3.49-4.31,5.36-1.71,2.49-5.67,4.86-11.88,7.11-6.21,2.25-11.92,3.15-17.12,2.68-5.21-.47-7.8-2.87-7.8-7.22m-41.94-67.1c0-.31-3.49-.47-10.48-.47s-10.48.16-10.48.47v81.32c0,.31,3.49.47,10.48.47s10.48-.16,10.48-.47v-81.32Zm-41.94,0c0-.31-3.49-.47-10.48-.47s-10.48.16-10.48.47v71.07c0,4.66,2.56,7.89,7.69,9.67,5.13,1.78,11.45,1.78,18.99,0,7.53-1.78,14.71-5.32,21.55-10.6,2.17-1.71,3.22-2.8,3.15-3.26-.08-.47-1.01-.27-2.8.58-1.79.86-3.77,2.06-5.94,3.61-1.71,1.4-4.35,2.8-7.92,4.19-3.57,1.4-6.76,1.9-9.55,1.51-2.8-.39-4.19-2.29-4.19-5.71v-71.07Zm-41.94,0c0-.31-3.5-.47-10.49-.47s-10.48.16-10.48.47v71.07c0,4.66,2.56,7.89,7.69,9.67,5.13,1.78,11.45,1.78,18.99,0,7.53-1.78,14.72-5.32,21.55-10.6,2.17-1.71,3.22-2.8,3.15-3.26-.08-.47-1.01-.27-2.8.58-1.79.86-3.77,2.06-5.94,3.61-1.71,1.4-4.35,2.8-7.92,4.19-3.58,1.4-6.76,1.9-9.55,1.51-2.8-.39-4.19-2.29-4.19-5.71v-71.07Zm-42.4,0c0-.31-3.42-.47-10.25-.47s-10.25.16-10.25.47v174.98c0,.62,3.42-4.82,10.25-16.31,6.83-11.5,10.25-17.71,10.25-18.64v-140.03Zm-41.94,0c0-.31-3.49-.47-10.48-.47s-10.48.16-10.48.47v71.07c0,4.66,2.56,7.89,7.69,9.67,5.13,1.78,11.45,1.78,18.99,0,7.53-1.78,14.72-5.32,21.55-10.6,2.17-1.71,3.22-2.8,3.14-3.26-.08-.47-1.01-.27-2.8.58-1.79.86-3.77,2.06-5.94,3.61-1.71,1.4-4.35,2.8-7.92,4.19-3.58,1.4-6.76,1.9-9.55,1.51-2.8-.39-4.19-2.29-4.19-5.71v-71.07Zm-41.94,0c0-.31-3.49-.47-10.48-.47s-10.49.16-10.49.47v71.07c0,4.66,2.56,7.89,7.69,9.67,5.13,1.78,11.45,1.78,18.99,0,7.53-1.78,14.72-5.32,21.55-10.6,2.17-1.71,3.22-2.8,3.15-3.26-.08-.47-1.01-.27-2.8.58-1.79.86-3.77,2.06-5.94,3.61-1.71,1.4-4.35,2.8-7.92,4.19-3.57,1.4-6.76,1.9-9.55,1.51-2.8-.39-4.19-2.29-4.19-5.71v-71.07Zm-106.02,55.92c-.78,1.09-.35,1.32,1.28.7,1.63-.62,3.57-1.59,5.82-2.91,2.25-1.32,3.77-2.45,4.54-3.38,1.55-2.02,5.01-3.73,10.37-5.13,5.36-1.4,10.25-1.36,14.68.12,4.43,1.48,6.64,4.86,6.64,10.14v72.93l-.23,48.93c0,.62,3.42-4.82,10.25-16.31,6.83-11.5,10.25-17.71,10.25-18.64v-86.91c0-7.92-4.08-13.2-12.23-15.84-8.15-2.64-17.36-2.41-27.61.7-10.25,3.11-18.17,8.31-23.77,15.61m-10.02,2.56c0,.31,3.49.51,10.49.58,6.99.08,10.48-.12,10.48-.58l3.96-61.51c1.24-15.22,3.38-27.34,6.41-36.35,3.03-9.01,6.25-14.6,9.67-16.78,5.59-3.41,10.64-4.46,15.15-3.14,4.5,1.32,9.32,4.08,14.45,8.27.62.47,1.94-.58,3.96-3.15,2.02-2.56,3.84-5.36,5.47-8.39s2.21-4.78,1.75-5.24c-1.56-1.4-4.51-2.29-8.85-2.68-4.35-.39-9.55.23-15.61,1.86-6.06,1.63-12.43,4.54-19.11,8.74-10.25,6.37-18.21,14.25-23.88,23.65-5.67,9.4-8.97,21.55-9.9,36.46l-4.43,58.25Zm-19.8-58.48c0-.31-3.49-.47-10.48-.47s-10.48.16-10.48.47v81.32c0,.31,3.49.47,10.48.47s10.48-.16,10.48-.47v-81.32Zm-41.94,0c0-.31-3.49-.47-10.48-.47s-10.49.16-10.49.47v71.07c0,4.66,2.56,7.89,7.69,9.67,5.13,1.78,11.45,1.78,18.99,0,7.53-1.78,14.72-5.32,21.55-10.6,2.17-1.71,3.22-2.8,3.15-3.26-.08-.47-1.01-.27-2.8.58-1.79.86-3.77,2.06-5.94,3.61-1.71,1.4-4.35,2.8-7.92,4.19-3.58,1.4-6.76,1.9-9.55,1.51-2.8-.39-4.19-2.29-4.19-5.71v-71.07Zm-41.94,0c0-.31-3.49-.47-10.48-.47s-10.48.16-10.48.47v71.07c0,4.66,2.56,7.89,7.69,9.67,5.13,1.78,11.45,1.78,18.99,0,7.53-1.78,14.72-5.32,21.55-10.6,2.17-1.71,3.22-2.8,3.15-3.26-.08-.47-1.01-.27-2.8.58-1.79.86-3.77,2.06-5.94,3.61-1.71,1.4-4.35,2.8-7.92,4.19-3.58,1.4-6.76,1.9-9.55,1.51-2.8-.39-4.19-2.29-4.19-5.71v-71.07Zm-116.96,22.37c-2.18,3.26-1.94,4.12.7,2.56,2.64-1.55,6.13-4.43,10.48-8.62,4.35-4.19,7.61-7.92,9.79-11.18,3.88-5.9,6.29-10.79,7.22-14.68.93-3.88,1.4-10.25,1.4-19.11v-85.28c0-.31-3.3-.47-9.9-.47s-9.9.16-9.9.47v85.28c0,11.5-.7,21.48-2.1,29.94-1.4,8.47-3.96,15.49-7.69,21.09m-37.98-80.62c0,.31,3.22.47,9.67.47s9.67-.15,9.67-.47v-11.65c0-8.54,1.63-16.19,4.89-22.95,3.26-6.76,7.77-12.04,13.51-15.84,5.74-3.8,12.35-5.71,19.8-5.71,11.65,0,20.7,4.54,27.14,13.63,6.44,9.09,9.67,21.71,9.67,37.86v146.09c0,.31,3.3.47,9.9.47s9.9-.16,9.9-.47v-146.09c0-16-4.19-29.16-12.58-39.49-8.39-10.33-23.07-15.49-44.04-15.49-13.98,0-25.24,2.37-33.79,7.11-8.54,4.74-14.64,10.72-18.29,17.94-3.65,7.22-5.48,14.88-5.48,22.95v11.65Z"/><path class="cls-2" d="m1514.38,752.66c0-.19-2.16-.29-6.48-.29s-6.48.1-6.48.29v14.26c0,.19,2.16.29,6.48.29s6.48-.09,6.48-.29v-14.26Zm0,35.57c0-.19-2.16-.29-6.48-.29s-6.48.1-6.48.29v14.26c0,.19,2.16.29,6.48.29s6.48-.1,6.48-.29v-14.26Zm-63.36-25.63c-.48.58-.22.7.79.36,1.01-.34,2.21-.91,3.6-1.73,1.39-.81,2.33-1.51,2.81-2.09.67-.86,2.42-1.75,5.26-2.66,2.83-.91,5.42-1.01,7.78-.29,2.35.72,3.53,2.76,3.53,6.12v40.18c0,.19,2.16.29,6.48.29s6.48-.1,6.48-.29v-40.18c0-4.32-2.23-7.39-6.7-9.22-4.46-1.82-9.63-1.92-15.48-.29-5.86,1.63-10.71,4.9-14.54,9.79m0,85.25c-1.73,0-2.95.24-3.67.72-.72.48-.72.96,0,1.44.72.48,1.94.72,3.67.72h21.31c1.92,0,3.41.24,4.46.72,1.05.48,1.78,1.25,2.16,2.3.38,1.05.58,2.59.58,4.61,0,.09,1.08.17,3.24.22,2.16.05,4.32.05,6.48,0,2.16-.05,3.24-.12,3.24-.22,0-1.54-.53-3.1-1.58-4.68-1.06-1.58-3.07-2.95-6.05-4.1-2.98-1.15-7.15-1.73-12.53-1.73h-21.31Zm6.34-95.62c0-.19-2.09-.29-6.26-.29s-6.26.1-6.26.29l-.14,83.52.14,13.54c0,.58,1.03.98,3.1,1.22,2.06.24,4.15.24,6.26,0,2.11-.24,3.17-.65,3.17-1.22v-97.06Zm-62.49,10.37c-.48.58-.22.7.79.36,1.01-.34,2.21-.91,3.6-1.73,1.39-.81,2.33-1.51,2.81-2.09.67-.86,2.42-1.75,5.26-2.66,2.83-.91,5.42-1.01,7.78-.29,2.35.72,3.53,2.76,3.53,6.12v40.18c0,.19,2.16.29,6.48.29s6.48-.1,6.48-.29v-40.18c0-4.32-2.23-7.39-6.7-9.22-4.46-1.82-9.63-1.92-15.48-.29-5.86,1.63-10.71,4.9-14.54,9.79m6.34-10.37c0-.19-2.11-.29-6.34-.29s-6.34.1-6.34.29v108.14c0,.38,2.11-2.98,6.34-10.08,4.22-7.1,6.34-10.94,6.34-11.52v-86.54Zm-25.92,16.85c0-.19-2.16-.29-6.48-.29s-6.48.1-6.48.29v33.41c0,.19,2.16.29,6.48.29s6.48-.1,6.48-.29v-33.41Zm-34.99-17.42c-.19,0-.29.53-.29,1.58s.09,1.58.29,1.58h38.16c.19,0,.29-.53.29-1.58s-.1-1.58-.29-1.58h-38.16Zm5.04-42.62c0-.19-2.11-.29-6.34-.29s-6.34.1-6.34.29v84.67c0,3.36,2.4,6.03,7.2,7.99,4.8,1.97,10.32,1.97,16.56,0,6.24-1.97,11.76-6.36,16.56-13.18.67-1.15.74-1.66.22-1.51-.53.14-1.35.74-2.45,1.8-1.1,1.06-1.99,2.21-2.66,3.46-1.15,1.44-3.65,2.86-7.49,4.25-3.84,1.39-7.34,1.97-10.51,1.73-3.17-.24-4.75-1.75-4.75-4.54v-84.67Zm-25.92,43.2c0-.19-2.16-.29-6.48-.29s-6.48.1-6.48.29v50.26c0,.19,2.16.29,6.48.29s6.48-.1,6.48-.29v-50.26Zm-36.29-43.49h-27.22c-.09,0-.19.29-.29.86-.09.58-.09,1.15,0,1.73.1.1.14.22.14.36s.05.22.14.22h27.22c.19,0,.29-.53.29-1.58s-.1-1.58-.29-1.58m6.34.29c0-.19-2.11-.29-6.34-.29s-6.34.1-6.34.29v84.67c0,3.36,2.4,6.03,7.2,7.99,4.8,1.97,10.32,1.97,16.56,0,6.24-1.97,11.76-6.36,16.56-13.18.67-1.15.74-1.66.22-1.51-.53.14-1.35.74-2.45,1.8-1.1,1.06-1.99,2.21-2.66,3.46-1.15,1.44-3.65,2.86-7.49,4.25-3.84,1.39-7.34,1.97-10.51,1.73-3.17-.24-4.75-1.75-4.75-4.54v-84.67Zm-25.92,43.2c0-.19-2.16-.29-6.48-.29s-6.48.1-6.48.29v50.26c0,.19,2.16.29,6.48.29s6.48-.1,6.48-.29v-50.26Zm-36.29-43.49h-27.22c-.09,0-.19.29-.29.86-.09.58-.09,1.15,0,1.73.1.1.14.22.14.36s.05.22.14.22h27.22c.19,0,.29-.53.29-1.58s-.1-1.58-.29-1.58m6.34.29c0-.19-2.11-.29-6.34-.29s-6.34.1-6.34.29v84.67c0,3.36,2.4,6.03,7.2,7.99,4.8,1.97,10.32,1.97,16.56,0,6.24-1.97,11.76-6.36,16.56-13.18.67-1.15.74-1.66.22-1.51-.53.14-1.35.74-2.45,1.8-1.1,1.06-1.99,2.21-2.66,3.46-1.15,1.44-3.65,2.86-7.49,4.25-3.84,1.39-7.34,1.97-10.51,1.73-3.17-.24-4.75-1.75-4.75-4.54v-84.67Zm-62.64,53.57c-.48.58-.22.7.79.36,1.01-.34,2.21-.91,3.6-1.73,1.39-.81,2.33-1.51,2.81-2.09.67-.86,2.42-1.75,5.26-2.66,2.83-.91,5.42-1.01,7.78-.29,2.35.72,3.53,2.76,3.53,6.12v40.18c0,.19,2.16.29,6.48.29s6.48-.1,6.48-.29v-40.18c0-4.32-2.23-7.39-6.7-9.22-4.46-1.82-9.62-1.92-15.48-.29-5.86,1.63-10.71,4.9-14.54,9.79m6.62-10.37c0-.19-2.16-.29-6.48-.29s-6.48.1-6.48.29v50.26c0,.19,2.16.29,6.48.29s6.48-.1,6.48-.29v-50.26Zm-25.92,0c0-.19-2.16-.29-6.48-.29s-6.48.1-6.48.29v50.26c0,.19,2.16.29,6.48.29s6.48-.1,6.48-.29v-50.26Zm-36.29-43.49h-27.22c-.09,0-.19.29-.29.86-.09.58-.09,1.15,0,1.73.1.1.14.22.14.36s.05.22.14.22h27.22c.19,0,.29-.53.29-1.58s-.1-1.58-.29-1.58m6.34.29c0-.19-2.11-.29-6.34-.29s-6.33.1-6.33.29v84.67c0,3.36,2.4,6.03,7.2,7.99,4.8,1.97,10.32,1.97,16.56,0,6.24-1.97,11.76-6.36,16.56-13.18.67-1.15.74-1.66.22-1.51-.53.14-1.34.74-2.45,1.8-1.1,1.06-1.99,2.21-2.66,3.46-1.15,1.44-3.65,2.86-7.49,4.25-3.84,1.39-7.34,1.97-10.51,1.73-3.17-.24-4.75-1.75-4.75-4.54v-84.67Zm-25.92,43.2c0-.19-2.16-.29-6.48-.29s-6.48.1-6.48.29v50.26c0,.19,2.16.29,6.48.29s6.48-.1,6.48-.29v-50.26Zm-25.92,0c0-.19-2.16-.29-6.48-.29s-6.48.1-6.48.29v43.92c0,2.88,1.58,4.87,4.75,5.98,3.17,1.1,7.08,1.1,11.74,0,4.66-1.1,9.09-3.29,13.32-6.55,1.34-1.06,1.99-1.73,1.94-2.02-.05-.29-.62-.17-1.73.36-1.1.53-2.33,1.27-3.67,2.23-1.06.86-2.69,1.73-4.9,2.59-2.21.86-4.18,1.18-5.9.94-1.73-.24-2.59-1.41-2.59-3.53v-43.92Zm-25.92,0c0-.19-2.16-.29-6.48-.29s-6.48.1-6.48.29v43.92c0,2.88,1.58,4.87,4.75,5.98,3.17,1.1,7.08,1.1,11.74,0,4.66-1.1,9.09-3.29,13.32-6.55,1.34-1.06,1.99-1.73,1.94-2.02-.05-.29-.62-.17-1.73.36-1.1.53-2.33,1.27-3.67,2.23-1.06.86-2.69,1.73-4.9,2.59-2.21.86-4.18,1.18-5.9.94-1.73-.24-2.59-1.41-2.59-3.53v-43.92Zm-24.77.29c0-.19-2.16-.29-6.48-.29s-6.48.1-6.48.29v49.97c0,.19,2.16.29,6.48.29s6.48-.1,6.48-.29v-49.97Zm-42.05-35.86c0-.19-2.16-.29-6.48-.29s-6.48.1-6.48.29v25.34c0,9.7,3.91,17.42,11.74,23.18,7.82,5.76,18.41,9.65,31.75,11.66,1.25.19,2.42.17,3.53-.07,1.1-.24,1.66-.58,1.66-1.01s-.67-.74-2.02-.94c-7.87-1.15-14.18-2.81-18.94-4.97-4.75-2.16-8.4-5.42-10.94-9.79-2.54-4.37-3.82-10.39-3.82-18.07v-25.34Zm-105.69,35.57c0-.19-2.11-.29-6.34-.29s-6.34.1-6.34.29v108.14c0,.38,2.11-2.98,6.34-10.08,4.22-7.1,6.34-10.94,6.34-11.52v-86.54Zm-29.95-43.2c0-.19-2.11-.29-6.34-.29s-6.34.1-6.34.29v84.67c0,3.36,2.4,6.03,7.2,7.99,4.8,1.97,10.32,1.97,16.56,0,6.24-1.97,11.76-6.36,16.56-13.18.67-1.15.74-1.66.22-1.51-.53.14-1.35.74-2.45,1.8-1.1,1.06-1.99,2.21-2.66,3.46-1.15,1.44-3.65,2.86-7.49,4.25-3.84,1.39-7.34,1.97-10.51,1.73-3.17-.24-4.75-1.75-4.75-4.54v-84.67Zm-62.64,53.57c-.48.58-.22.7.79.36,1.01-.34,2.21-.91,3.6-1.73,1.39-.81,2.33-1.51,2.81-2.09.67-.86,2.42-1.75,5.26-2.66,2.83-.91,5.42-1.01,7.78-.29,2.35.72,3.53,2.76,3.53,6.12v40.18c0,.19,2.16.29,6.48.29s6.48-.1,6.48-.29v-40.18c0-4.32-2.23-7.39-6.7-9.22-4.46-1.82-9.63-1.92-15.48-.29-5.86,1.63-10.71,4.9-14.54,9.79m6.19-53.57c0-.19-2.07-.29-6.19-.29s-6.19.1-6.19.29v151.34c0,.38,2.06-2.98,6.19-10.08,4.13-7.1,6.19-10.94,6.19-11.52v-129.74Zm-25.77,43.2c0-.19-2.16-.29-6.48-.29s-6.48.1-6.48.29v50.26c0,.19,2.16.29,6.48.29s6.48-.1,6.48-.29v-50.26Zm-36.29-43.49h-27.22c-.1,0-.19.29-.29.86-.1.58-.1,1.15,0,1.73.1.1.14.22.14.36s.05.22.14.22h27.22c.19,0,.29-.53.29-1.58s-.1-1.58-.29-1.58m6.34.29c0-.19-2.11-.29-6.34-.29s-6.34.1-6.34.29v84.67c0,3.36,2.4,6.03,7.2,7.99,4.8,1.97,10.32,1.97,16.56,0,6.24-1.97,11.76-6.36,16.56-13.18.67-1.15.74-1.66.22-1.51-.53.14-1.35.74-2.45,1.8-1.11,1.06-1.99,2.21-2.66,3.46-1.15,1.44-3.65,2.86-7.49,4.25-3.84,1.39-7.34,1.97-10.51,1.73-3.17-.24-4.75-1.75-4.75-4.54v-84.67Zm-25.92,60.05c0-.19-2.16-.29-6.48-.29s-6.48.1-6.48.29v33.41c0,.19,2.16.29,6.48.29s6.48-.1,6.48-.29v-33.41Zm-34.99-17.42c-.19,0-.29.53-.29,1.58s.09,1.58.29,1.58h38.16c.19,0,.29-.53.29-1.58s-.1-1.58-.29-1.58h-38.16Zm5.04-42.62c0-.19-2.11-.29-6.34-.29s-6.34.1-6.34.29v84.67c0,3.36,2.4,6.03,7.2,7.99,4.8,1.97,10.32,1.97,16.56,0,6.24-1.97,11.76-6.36,16.56-13.18.67-1.15.74-1.66.22-1.51-.53.14-1.34.74-2.45,1.8-1.1,1.06-1.99,2.21-2.66,3.46-1.15,1.44-3.65,2.86-7.49,4.25-3.84,1.39-7.34,1.97-10.51,1.73-3.17-.24-4.75-1.75-4.75-4.54v-84.67Zm-62.64,53.57c-.48.58-.22.7.79.36,1.01-.34,2.21-.91,3.6-1.73,1.39-.81,2.33-1.51,2.81-2.09.67-.86,2.42-1.75,5.26-2.66,2.83-.91,5.42-1.01,7.78-.29,2.35.72,3.53,2.76,3.53,6.12v40.18c0,.19,2.16.29,6.48.29s6.48-.1,6.48-.29v-40.18c0-4.32-2.23-7.39-6.7-9.22-4.46-1.82-9.62-1.92-15.48-.29-5.86,1.63-10.71,4.9-14.54,9.79m6.19-53.57c0-.19-2.07-.29-6.19-.29s-6.19.1-6.19.29v151.34c0,.38,2.06-2.98,6.19-10.08,4.13-7.1,6.19-10.94,6.19-11.52v-129.74Zm-37.44,89.42c-1.25,1.15-2.16,2.16-2.74,3.02-.58.86-.62,1.25-.14,1.15.48-.1,1.34-.72,2.59-1.87l4.75-4.46-2.88,1.87c1.15.58,4.22,1.92,9.22,4.03.19.1.38.19.58.29.19.1.62-.09,1.3-.58.67-.48,1.3-1.01,1.87-1.58l3.46-3.31c1.25-1.25,2.11-2.23,2.59-2.95.48-.72.43-.98-.14-.79-.58.19-1.49.86-2.74,2.02l-3.46,3.31,3.17-2.16-.58-.29c-1.15-.58-4.23-1.92-9.22-4.03-.29-.19-1.25.43-2.88,1.87l-4.75,4.46Zm-40.46-33.12c-.48.67-.24.77.72.29.96-.48,2.06-1.17,3.31-2.09,1.25-.91,2.06-1.66,2.45-2.23,1.05-1.73,3.29-3.33,6.7-4.82,3.41-1.49,6.5-1.92,9.29-1.3,2.78.63,4.18,2.76,4.18,6.41v69.98l-.14,30.24c0,.38,2.11-2.98,6.34-10.08,4.22-7.1,6.34-10.94,6.34-11.52v-78.62c0-4.32-2.4-7.27-7.2-8.86-4.8-1.58-10.3-1.3-16.49.86-6.19,2.16-11.35,6.07-15.48,11.74m8.93-13.1c0-.19-2.16-.29-6.48-.29s-6.48.1-6.48.29v43.92c0,2.5,2.02,4.46,6.05,5.9,4.03,1.44,8.76,1.49,14.18.14,5.42-1.34,10.34-4.46,14.76-9.36,1.15-1.25,1.68-2.02,1.58-2.3-.1-.29-.63-.09-1.58.58-.96.67-2.02,1.63-3.17,2.88-1.06,1.15-3.17,2.28-6.34,3.38-3.17,1.11-6.05,1.61-8.64,1.51-2.59-.09-3.89-1.01-3.89-2.74v-43.92Zm-62.64,10.37c-.48.58-.22.7.79.36,1.01-.34,2.21-.91,3.6-1.73,1.39-.81,2.33-1.51,2.81-2.09.67-.86,2.42-1.75,5.26-2.66,2.83-.91,5.42-1.01,7.78-.29,2.35.72,3.53,2.76,3.53,6.12v40.18c0,.19,2.16.29,6.48.29s6.48-.1,6.48-.29v-40.18c0-4.32-2.23-7.39-6.7-9.22-4.46-1.82-9.62-1.92-15.48-.29-5.86,1.63-10.7,4.9-14.54,9.79m6.19-53.57c0-.19-2.07-.29-6.19-.29s-6.19.1-6.19.29v151.34c0,.38,2.06-2.98,6.19-10.08,4.13-7.1,6.19-10.94,6.19-11.52v-129.74Zm-29.23,8.06c.67-.58,1.03-1.13,1.08-1.66.05-.53-.19-.81-.72-.86-.53-.05-1.13.22-1.8.79l-7.34,6.19-7.34,6.34c-1.25.96-2.28,1.94-3.1,2.95-.82,1.01-1.13,1.61-.94,1.8l13.82,10.22,4.03-4.9-33.98,28.51c-1.25,1.06-2.28,2.09-3.1,3.1-.82,1.01-1.13,1.61-.94,1.8l21.74,15.98c7.68,5.57,14.93,10.94,21.74,16.13l-.29-6.19-1.58,14.98c-.1.86,0,1.49.29,1.87.29.38.62.43,1.01.14.38-.29.62-.86.72-1.73l1.87-15.55c.09-1.44.12-2.78.07-4.03-.05-1.25-.17-1.97-.36-2.16l-17.86-13.82c-7.87-6.14-13.82-10.7-17.86-13.68l-4.03,4.9,33.98-28.51c1.25-1.05,2.28-2.11,3.1-3.17.81-1.05,1.13-1.63.94-1.73l-13.82-10.22-4.03,4.75,14.69-12.24Z"/><path class="cls-2" d="m1283.84,602.6c-1.25,1.15-2.11,2.14-2.59,2.95-.48.82-.48,1.17,0,1.08.48-.09,1.34-.77,2.59-2.02l7.2-6.77-3.02,2.02c2.21,1.44,5.42,3.65,9.65,6.62,64.9.19,129.65.24,194.26.14.29-.09.74-.36,1.37-.79.62-.43,1.27-.98,1.94-1.66l18.43-17.86c1.25-1.25,2.11-2.23,2.59-2.95.48-.72.41-.98-.22-.79-.62.19-1.56.91-2.81,2.16l-18.58,18,3.17-2.45-194.11.14c-2.11-1.53-5.33-3.74-9.65-6.62-.29-.19-1.3.48-3.02,2.02l-7.2,6.77Zm-.86-46.37c0-.19-2.16-.29-6.48-.29s-6.48.1-6.48.29v50.26c0,.19,2.16.29,6.48.29s6.48-.1,6.48-.29v-50.26Zm-25.92,16.85c0-.19-2.16-.29-6.48-.29s-6.48.1-6.48.29v33.41c0,.19,2.16.29,6.48.29s6.48-.1,6.48-.29v-33.41Zm-34.99-17.42c-.19,0-.29.53-.29,1.58s.09,1.58.29,1.58h38.16c.19,0,.29-.53.29-1.58s-.1-1.58-.29-1.58h-38.16Zm5.04-42.62c0-.19-2.11-.29-6.34-.29s-6.34.1-6.34.29v84.67c0,3.36,2.4,6.03,7.2,7.99,4.8,1.97,10.32,1.97,16.56,0,6.24-1.97,11.76-6.36,16.56-13.18.67-1.15.74-1.66.22-1.51-.53.14-1.34.74-2.45,1.8-1.1,1.06-1.99,2.21-2.66,3.46-1.15,1.44-3.65,2.86-7.49,4.25-3.84,1.39-7.34,1.97-10.51,1.73-3.17-.24-4.75-1.75-4.75-4.54v-84.67Zm-77.75,43.2c0-.19-2.16-.29-6.48-.29s-6.48.1-6.48.29v50.26c0,.19,2.16.29,6.48.29s6.48-.1,6.48-.29v-50.26Zm-36.29-43.49h-27.22c-.09,0-.19.29-.29.86-.1.58-.1,1.15,0,1.73.1.1.14.22.14.36s.05.22.14.22h27.22c.19,0,.29-.53.29-1.58s-.1-1.58-.29-1.58m6.34.29c0-.19-2.11-.29-6.34-.29s-6.34.1-6.34.29v84.67c0,3.36,2.4,6.03,7.2,7.99,4.8,1.97,10.32,1.97,16.56,0,6.24-1.97,11.76-6.36,16.56-13.18.67-1.15.74-1.66.22-1.51-.53.14-1.35.74-2.45,1.8-1.1,1.06-1.99,2.21-2.66,3.46-1.15,1.44-3.65,2.86-7.49,4.25-3.84,1.39-7.34,1.97-10.51,1.73-3.17-.24-4.75-1.75-4.75-4.54v-84.67Zm-25.92,43.2c0-.19-2.16-.29-6.48-.29s-6.48.1-6.48.29v50.26c0,.19,2.16.29,6.48.29s6.48-.1,6.48-.29v-50.26Zm-25.92,0c0-.19-2.16-.29-6.48-.29s-6.48.1-6.48.29v43.92c0,2.88,1.58,4.87,4.75,5.98,3.17,1.1,7.08,1.1,11.74,0,4.65-1.1,9.09-3.29,13.32-6.55,1.34-1.05,1.99-1.73,1.94-2.02-.05-.29-.62-.17-1.73.36-1.1.53-2.33,1.27-3.67,2.23-1.06.86-2.69,1.73-4.9,2.59-2.21.86-4.18,1.18-5.9.94-1.73-.24-2.59-1.41-2.59-3.53v-43.92Zm-25.92,0c0-.19-2.16-.29-6.48-.29s-6.48.1-6.48.29v43.92c0,2.88,1.58,4.87,4.75,5.98,3.17,1.1,7.08,1.1,11.74,0,4.66-1.1,9.09-3.29,13.32-6.55,1.34-1.05,1.99-1.73,1.94-2.02-.05-.29-.63-.17-1.73.36-1.1.53-2.33,1.27-3.67,2.23-1.06.86-2.69,1.73-4.9,2.59-2.21.86-4.18,1.18-5.9.94-1.73-.24-2.59-1.41-2.59-3.53v-43.92Zm-26.21,0c0-.19-2.11-.29-6.34-.29s-6.34.1-6.34.29v108.14c0,.38,2.11-2.98,6.34-10.08,4.22-7.11,6.34-10.94,6.34-11.52v-86.54Zm-29.95-43.2c0-.19-2.11-.29-6.34-.29s-6.34.1-6.34.29v84.67c0,3.36,2.4,6.03,7.2,7.99,4.8,1.97,10.32,1.97,16.56,0,6.24-1.97,11.76-6.36,16.56-13.18.67-1.15.74-1.66.22-1.51-.53.14-1.35.74-2.45,1.8-1.1,1.06-1.99,2.21-2.66,3.46-1.15,1.44-3.65,2.86-7.49,4.25-3.84,1.39-7.34,1.97-10.51,1.73-3.17-.24-4.75-1.75-4.75-4.54v-84.67Zm-25.92,43.2c0-.19-2.16-.29-6.48-.29s-6.48.1-6.48.29v50.26c0,.19,2.16.29,6.48.29s6.48-.1,6.48-.29v-50.26Zm-25.92,0c0-.19-2.16-.29-6.48-.29s-6.48.1-6.48.29v43.92c0,2.88,1.58,4.87,4.75,5.98,3.17,1.1,7.08,1.1,11.74,0,4.65-1.1,9.09-3.29,13.32-6.55,1.34-1.05,1.99-1.73,1.94-2.02-.05-.29-.63-.17-1.73.36-1.11.53-2.33,1.27-3.67,2.23-1.06.86-2.69,1.73-4.9,2.59-2.21.86-4.18,1.18-5.9.94-1.73-.24-2.59-1.41-2.59-3.53v-43.92Zm-25.92,0c0-.19-2.16-.29-6.48-.29s-6.48.1-6.48.29v43.92c0,2.88,1.58,4.87,4.75,5.98,3.17,1.1,7.08,1.1,11.74,0,4.65-1.1,9.09-3.29,13.32-6.55,1.34-1.05,1.99-1.73,1.94-2.02-.05-.29-.63-.17-1.73.36-1.11.53-2.33,1.27-3.67,2.23-1.06.86-2.69,1.73-4.9,2.59-2.21.86-4.18,1.18-5.9.94-1.73-.24-2.59-1.41-2.59-3.53v-43.92Zm-62.64,10.37c-.48.58-.22.7.79.36,1.01-.34,2.21-.91,3.6-1.73,1.39-.81,2.33-1.51,2.81-2.09.67-.86,2.42-1.75,5.26-2.66,2.83-.91,5.42-1.01,7.78-.29,2.35.72,3.53,2.76,3.53,6.12v40.18c0,.19,2.16.29,6.48.29s6.48-.1,6.48-.29v-40.18c0-4.32-2.23-7.39-6.7-9.22-4.46-1.82-9.63-1.92-15.48-.29-5.86,1.63-10.71,4.9-14.54,9.79m6.34-10.37c0-.19-2.11-.29-6.34-.29s-6.34.1-6.34.29v108.14c0,.38,2.11-2.98,6.34-10.08,4.22-7.11,6.34-10.94,6.34-11.52v-86.54Zm-25.92,0c0-.19-2.16-.29-6.48-.29s-6.48.1-6.48.29v50.26c0,.19,2.16.29,6.48.29s6.48-.1,6.48-.29v-50.26Zm-25.92,0c0-.19-2.16-.29-6.48-.29s-6.48.1-6.48.29v43.92c0,2.88,1.58,4.87,4.75,5.98,3.17,1.1,7.08,1.1,11.74,0,4.65-1.1,9.09-3.29,13.32-6.55,1.34-1.05,1.99-1.73,1.94-2.02-.05-.29-.63-.17-1.73.36-1.11.53-2.33,1.27-3.67,2.23-1.06.86-2.69,1.73-4.9,2.59-2.21.86-4.18,1.18-5.9.94-1.73-.24-2.59-1.41-2.59-3.53v-43.92Zm-25.92,0c0-.19-2.16-.29-6.48-.29s-6.48.1-6.48.29v43.92c0,2.88,1.58,4.87,4.75,5.98,3.17,1.1,7.08,1.1,11.74,0,4.66-1.1,9.09-3.29,13.32-6.55,1.34-1.05,1.99-1.73,1.94-2.02-.05-.29-.63-.17-1.73.36-1.1.53-2.33,1.27-3.67,2.23-1.06.86-2.69,1.73-4.9,2.59-2.21.86-4.18,1.18-5.9.94-1.73-.24-2.59-1.41-2.59-3.53v-43.92Zm-65.38,13.1c-.48.58-.24.65.72.22.96-.43,2.06-1.1,3.31-2.02,1.25-.91,2.06-1.66,2.45-2.23.77-1.25,2.88-2.66,6.34-4.25,3.46-1.58,6.6-2.16,9.43-1.73,2.83.43,4.25,2.52,4.25,6.26v40.9c0,.19,2.16.29,6.48.29s6.48-.1,6.48-.29v-40.9c0-3.74-2.33-6.55-6.98-8.42-4.66-1.87-10.08-1.85-16.27.07-6.19,1.92-11.59,5.95-16.2,12.1m12.67-13.1c0-.19-2.16-.29-6.48-.29s-6.48.1-6.48.29v50.26c0,.19,2.16.29,6.48.29s6.48-.1,6.48-.29v-50.26Zm-25.92,0c0-.19-2.16-.29-6.48-.29s-6.48.1-6.48.29v43.92c0,2.88,1.58,4.87,4.75,5.98,3.17,1.1,7.08,1.1,11.74,0,4.66-1.1,9.09-3.29,13.32-6.55,1.34-1.05,1.99-1.73,1.94-2.02-.05-.29-.62-.17-1.73.36-1.1.53-2.33,1.27-3.67,2.23-1.06.86-2.69,1.73-4.9,2.59-2.21.86-4.18,1.18-5.9.94-1.73-.24-2.59-1.41-2.59-3.53v-43.92Zm-62.64,10.37c-.48.58-.22.7.79.36,1.01-.34,2.21-.91,3.6-1.73,1.39-.81,2.33-1.51,2.81-2.09.67-.86,2.42-1.75,5.26-2.66,2.83-.91,5.42-1.01,7.78-.29,2.35.72,3.53,2.76,3.53,6.12v40.18c0,.19,2.16.29,6.48.29s6.48-.1,6.48-.29v-40.18c0-4.32-2.23-7.39-6.7-9.22-4.46-1.82-9.63-1.92-15.48-.29-5.86,1.63-10.71,4.9-14.54,9.79m6.19-53.57c0-.19-2.07-.29-6.19-.29s-6.19.1-6.19.29v151.34c0,.38,2.06-2.98,6.19-10.08,4.13-7.11,6.19-10.94,6.19-11.52v-129.74Zm-25.77,43.2c0-.19-2.16-.29-6.48-.29s-6.48.1-6.48.29v50.26c0,.19,2.16.29,6.48.29s6.48-.1,6.48-.29v-50.26Zm-36.29-43.49h-27.22c-.1,0-.19.29-.29.86-.09.58-.09,1.15,0,1.73.1.1.14.22.14.36s.05.22.14.22h27.22c.19,0,.29-.53.29-1.58s-.1-1.58-.29-1.58m6.34.29c0-.19-2.11-.29-6.34-.29s-6.34.1-6.34.29v84.67c0,3.36,2.4,6.03,7.2,7.99,4.8,1.97,10.32,1.97,16.56,0,6.24-1.97,11.76-6.36,16.56-13.18.67-1.15.74-1.66.22-1.51-.53.14-1.35.74-2.45,1.8-1.11,1.06-1.99,2.21-2.66,3.46-1.15,1.44-3.65,2.86-7.49,4.25-3.84,1.39-7.34,1.97-10.51,1.73-3.17-.24-4.75-1.75-4.75-4.54v-84.67Zm-25.92,43.2c0-.19-2.16-.29-6.48-.29s-6.48.1-6.48.29v50.26c0,.19,2.16.29,6.48.29s6.48-.1,6.48-.29v-50.26Zm-25.92,0c0-.19-2.16-.29-6.48-.29s-6.48.1-6.48.29v43.92c0,2.88,1.58,4.87,4.75,5.98,3.17,1.1,7.08,1.1,11.74,0,4.66-1.1,9.09-3.29,13.32-6.55,1.34-1.05,1.99-1.73,1.94-2.02-.05-.29-.63-.17-1.73.36-1.1.53-2.33,1.27-3.67,2.23-1.06.86-2.69,1.73-4.9,2.59-2.21.86-4.18,1.18-5.9.94-1.73-.24-2.59-1.41-2.59-3.53v-43.92Zm-25.92,0c0-.19-2.16-.29-6.48-.29s-6.48.1-6.48.29v43.92c0,2.88,1.58,4.87,4.75,5.98,3.17,1.1,7.08,1.1,11.74,0,4.66-1.1,9.09-3.29,13.32-6.55,1.34-1.05,1.99-1.73,1.94-2.02-.05-.29-.63-.17-1.73.36-1.1.53-2.33,1.27-3.67,2.23-1.06.86-2.69,1.73-4.9,2.59-2.21.86-4.18,1.18-5.9.94-1.73-.24-2.59-1.41-2.59-3.53v-43.92Zm-25.2-35.57c0-.19-2.16-.29-6.48-.29s-6.48.1-6.48.29v60.05c0,4.8-.24,8.83-.72,12.1-.48,3.27-1.75,6.17-3.82,8.71-2.07,2.54-5.31,3.82-9.72,3.82s-7.87-1.34-10.08-4.03c-2.21-2.69-3.55-5.76-4.03-9.22-.48-3.46-.72-7.58-.72-12.38v-59.04c0-.19-2.16-.29-6.48-.29s-6.48.1-6.48.29v59.47c-.1,4.03.31,7.97,1.22,11.81.91,3.84,3.43,7.39,7.56,10.66,4.13,3.26,10.46,4.9,19.01,4.9s14.66-1.61,18.65-4.82c3.98-3.21,6.43-6.72,7.34-10.51.91-3.79,1.32-7.75,1.22-11.88v-59.62Z"/></g></svg>